STARTFONT 2.1
COMMENT
COMMENT Converted from OpenType font "MonaspaceNeon-Regular.otf" by "otf2bdf 3.0".
COMMENT
FONT -FreeType-Monaspace Neon-Medium-R-Normal--8-60-100-100-P-43-ISO10646-1
SIZE 6 100 100
FONTBOUNDINGBOX 31 12 -1 -3
STARTPROPERTIES 19
FOUNDRY "FreeType"
FAMILY_NAME "Monaspace Neon"
WEIGHT_NAME "Medium"
SLANT "R"
SETWIDTH_NAME "Normal"
ADD_STYLE_NAME ""
PIXEL_SIZE 8
POINT_SIZE 60
RESOLUTION_X 100
RESOLUTION_Y 100
SPACING "P"
AVERAGE_WIDTH 43
CHARSET_REGISTRY "ISO10646"
CHARSET_ENCODING "1"
FONT_ASCENT 7
FONT_DESCENT 1
COPYRIGHT "-FreeType-Monaspace Neon-Medium-R-Normal--8-60-100-100-P-43-ISO10646-1"
_OTF_FONTFILE "MonaspaceNeon-Regular.otf"
_OTF_PSNAME "MonaspaceNeon-Regular"
ENDPROPERTIES
CHARS 1663
STARTCHAR 0020
ENCODING 32
SWIDTH 600 0
DWIDTH 5 0
BBX 0 0 0 0
BITMAP
ENDCHAR
STARTCHAR 0021
ENCODING 33
SWIDTH 600 0
DWIDTH 5 0
BBX 1 7 2 0
BITMAP
80
80
80
80
00
00
80
ENDCHAR
STARTCHAR 0022
ENCODING 34
SWIDTH 600 0
DWIDTH 5 0
BBX 3 3 1 4
BITMAP
A0
A0
A0
ENDCHAR
STARTCHAR 0023
ENCODING 35
SWIDTH 600 0
DWIDTH 5 0
BBX 5 7 0 0
BITMAP
50
50
78
50
50
F8
50
ENDCHAR
STARTCHAR 0024
ENCODING 36
SWIDTH 600 0
DWIDTH 5 0
BBX 5 9 0 -1
BITMAP
20
70
68
60
30
28
A8
70
20
ENDCHAR
STARTCHAR 0025
ENCODING 37
SWIDTH 600 0
DWIDTH 5 0
BBX 5 7 0 0
BITMAP
D0
D0
20
20
40
78
98
ENDCHAR
STARTCHAR 0026
ENCODING 38
SWIDTH 600 0
DWIDTH 5 0
BBX 5 7 0 0
BITMAP
70
40
40
68
B0
90
68
ENDCHAR
STARTCHAR 0027
ENCODING 39
SWIDTH 600 0
DWIDTH 5 0
BBX 1 3 2 4
BITMAP
80
80
80
ENDCHAR
STARTCHAR 0028
ENCODING 40
SWIDTH 600 0
DWIDTH 5 0
BBX 3 8 1 -2
BITMAP
20
40
80
80
80
40
40
20
ENDCHAR
STARTCHAR 0029
ENCODING 41
SWIDTH 600 0
DWIDTH 5 0
BBX 3 8 1 -2
BITMAP
80
40
40
20
20
40
40
80
ENDCHAR
STARTCHAR 002A
ENCODING 42
SWIDTH 600 0
DWIDTH 5 0
BBX 4 4 1 1
BITMAP
40
D0
60
A0
ENDCHAR
STARTCHAR 002B
ENCODING 43
SWIDTH 600 0
DWIDTH 5 0
BBX 4 4 1 1
BITMAP
40
40
F0
40
ENDCHAR
STARTCHAR 002C
ENCODING 44
SWIDTH 600 0
DWIDTH 5 0
BBX 1 3 2 -2
BITMAP
80
80
80
ENDCHAR
STARTCHAR 002D
ENCODING 45
SWIDTH 600 0
DWIDTH 5 0
BBX 3 1 1 2
BITMAP
E0
ENDCHAR
STARTCHAR 002E
ENCODING 46
SWIDTH 600 0
DWIDTH 5 0
BBX 1 1 2 0
BITMAP
80
ENDCHAR
STARTCHAR 002F
ENCODING 47
SWIDTH 600 0
DWIDTH 5 0
BBX 3 7 1 0
BITMAP
20
20
40
40
80
80
80
ENDCHAR
STARTCHAR 0030
ENCODING 48
SWIDTH 600 0
DWIDTH 5 0
BBX 5 6 0 0
BITMAP
70
88
A8
A8
88
70
ENDCHAR
STARTCHAR 0031
ENCODING 49
SWIDTH 600 0
DWIDTH 5 0
BBX 4 7 1 0
BITMAP
40
C0
40
40
40
40
F0
ENDCHAR
STARTCHAR 0032
ENCODING 50
SWIDTH 600 0
DWIDTH 5 0
BBX 4 7 1 0
BITMAP
E0
20
20
20
C0
80
F0
ENDCHAR
STARTCHAR 0033
ENCODING 51
SWIDTH 600 0
DWIDTH 5 0
BBX 5 7 0 0
BITMAP
70
10
10
30
08
88
70
ENDCHAR
STARTCHAR 0034
ENCODING 52
SWIDTH 600 0
DWIDTH 5 0
BBX 5 7 0 0
BITMAP
10
30
50
50
F8
10
10
ENDCHAR
STARTCHAR 0035
ENCODING 53
SWIDTH 600 0
DWIDTH 5 0
BBX 5 7 0 0
BITMAP
70
40
A0
50
08
90
70
ENDCHAR
STARTCHAR 0036
ENCODING 54
SWIDTH 600 0
DWIDTH 5 0
BBX 5 7 0 0
BITMAP
70
40
80
F0
88
48
70
ENDCHAR
STARTCHAR 0037
ENCODING 55
SWIDTH 600 0
DWIDTH 5 0
BBX 4 7 1 0
BITMAP
F0
20
20
20
40
40
40
ENDCHAR
STARTCHAR 0038
ENCODING 56
SWIDTH 600 0
DWIDTH 5 0
BBX 5 7 0 0
BITMAP
70
90
50
70
88
88
70
ENDCHAR
STARTCHAR 0039
ENCODING 57
SWIDTH 600 0
DWIDTH 5 0
BBX 4 7 1 0
BITMAP
E0
A0
90
F0
10
20
E0
ENDCHAR
STARTCHAR 003A
ENCODING 58
SWIDTH 600 0
DWIDTH 5 0
BBX 1 5 2 0
BITMAP
80
80
00
00
80
ENDCHAR
STARTCHAR 003B
ENCODING 59
SWIDTH 600 0
DWIDTH 5 0
BBX 1 6 2 -2
BITMAP
80
00
00
80
80
80
ENDCHAR
STARTCHAR 003C
ENCODING 60
SWIDTH 600 0
DWIDTH 5 0
BBX 3 5 1 0
BITMAP
20
40
80
40
20
ENDCHAR
STARTCHAR 003D
ENCODING 61
SWIDTH 600 0
DWIDTH 5 0
BBX 3 3 1 1
BITMAP
E0
00
E0
ENDCHAR
STARTCHAR 003E
ENCODING 62
SWIDTH 600 0
DWIDTH 5 0
BBX 3 5 1 0
BITMAP
80
60
20
40
80
ENDCHAR
STARTCHAR 003F
ENCODING 63
SWIDTH 600 0
DWIDTH 5 0
BBX 3 7 1 0
BITMAP
E0
20
20
40
00
00
40
ENDCHAR
STARTCHAR 0040
ENCODING 64
SWIDTH 600 0
DWIDTH 5 0
BBX 5 9 0 -2
BITMAP
20
D0
B8
A8
A8
A8
B8
80
78
ENDCHAR
STARTCHAR 0041
ENCODING 65
SWIDTH 600 0
DWIDTH 5 0
BBX 5 7 0 0
BITMAP
20
60
50
50
70
88
88
ENDCHAR
STARTCHAR 0042
ENCODING 66
SWIDTH 600 0
DWIDTH 5 0
BBX 4 7 1 0
BITMAP
E0
A0
A0
E0
90
90
E0
ENDCHAR
STARTCHAR 0043
ENCODING 67
SWIDTH 600 0
DWIDTH 5 0
BBX 5 7 0 0
BITMAP
70
48
80
80
80
48
70
ENDCHAR
STARTCHAR 0044
ENCODING 68
SWIDTH 600 0
DWIDTH 5 0
BBX 4 7 1 0
BITMAP
E0
A0
90
90
90
A0
E0
ENDCHAR
STARTCHAR 0045
ENCODING 69
SWIDTH 600 0
DWIDTH 5 0
BBX 3 7 1 0
BITMAP
E0
80
80
E0
80
80
E0
ENDCHAR
STARTCHAR 0046
ENCODING 70
SWIDTH 600 0
DWIDTH 5 0
BBX 3 7 1 0
BITMAP
E0
80
80
E0
80
80
80
ENDCHAR
STARTCHAR 0047
ENCODING 71
SWIDTH 600 0
DWIDTH 5 0
BBX 5 7 0 0
BITMAP
70
48
80
98
88
48
70
ENDCHAR
STARTCHAR 0048
ENCODING 72
SWIDTH 600 0
DWIDTH 5 0
BBX 3 7 1 0
BITMAP
A0
A0
A0
E0
A0
A0
A0
ENDCHAR
STARTCHAR 0049
ENCODING 73
SWIDTH 600 0
DWIDTH 5 0
BBX 3 7 1 0
BITMAP
E0
40
40
40
40
40
E0
ENDCHAR
STARTCHAR 004A
ENCODING 74
SWIDTH 600 0
DWIDTH 5 0
BBX 3 7 1 0
BITMAP
E0
20
20
20
20
A0
E0
ENDCHAR
STARTCHAR 004B
ENCODING 75
SWIDTH 600 0
DWIDTH 5 0
BBX 4 7 1 0
BITMAP
90
A0
C0
C0
A0
A0
90
ENDCHAR
STARTCHAR 004C
ENCODING 76
SWIDTH 600 0
DWIDTH 5 0
BBX 4 7 1 0
BITMAP
80
80
80
80
80
80
F0
ENDCHAR
STARTCHAR 004D
ENCODING 77
SWIDTH 600 0
DWIDTH 5 0
BBX 4 7 1 0
BITMAP
90
B0
D0
D0
D0
90
90
ENDCHAR
STARTCHAR 004E
ENCODING 78
SWIDTH 600 0
DWIDTH 5 0
BBX 3 7 1 0
BITMAP
A0
A0
E0
E0
E0
A0
A0
ENDCHAR
STARTCHAR 004F
ENCODING 79
SWIDTH 600 0
DWIDTH 5 0
BBX 5 7 0 0
BITMAP
70
50
88
88
88
50
70
ENDCHAR
STARTCHAR 0050
ENCODING 80
SWIDTH 600 0
DWIDTH 5 0
BBX 4 7 1 0
BITMAP
E0
90
90
A0
C0
80
80
ENDCHAR
STARTCHAR 0051
ENCODING 81
SWIDTH 600 0
DWIDTH 5 0
BBX 5 8 0 -1
BITMAP
70
50
88
88
88
70
70
10
ENDCHAR
STARTCHAR 0052
ENCODING 82
SWIDTH 600 0
DWIDTH 5 0
BBX 4 7 1 0
BITMAP
E0
90
90
E0
A0
A0
90
ENDCHAR
STARTCHAR 0053
ENCODING 83
SWIDTH 600 0
DWIDTH 5 0
BBX 5 7 0 0
BITMAP
70
48
40
30
08
88
70
ENDCHAR
STARTCHAR 0054
ENCODING 84
SWIDTH 600 0
DWIDTH 5 0
BBX 5 7 0 0
BITMAP
F8
20
20
20
20
20
20
ENDCHAR
STARTCHAR 0055
ENCODING 85
SWIDTH 600 0
DWIDTH 5 0
BBX 4 7 1 0
BITMAP
90
90
90
90
90
A0
E0
ENDCHAR
STARTCHAR 0056
ENCODING 86
SWIDTH 600 0
DWIDTH 5 0
BBX 5 7 0 0
BITMAP
88
50
50
50
50
20
20
ENDCHAR
STARTCHAR 0057
ENCODING 87
SWIDTH 600 0
DWIDTH 5 0
BBX 5 7 0 0
BITMAP
88
A8
A8
E8
F0
50
50
ENDCHAR
STARTCHAR 0058
ENCODING 88
SWIDTH 600 0
DWIDTH 5 0
BBX 5 7 0 0
BITMAP
48
50
30
20
50
50
88
ENDCHAR
STARTCHAR 0059
ENCODING 89
SWIDTH 600 0
DWIDTH 5 0
BBX 5 7 0 0
BITMAP
88
50
50
20
20
20
20
ENDCHAR
STARTCHAR 005A
ENCODING 90
SWIDTH 600 0
DWIDTH 5 0
BBX 4 7 1 0
BITMAP
E0
20
40
40
80
80
F0
ENDCHAR
STARTCHAR 005B
ENCODING 91
SWIDTH 600 0
DWIDTH 5 0
BBX 3 9 1 -2
BITMAP
E0
80
80
80
80
80
80
80
E0
ENDCHAR
STARTCHAR 005C
ENCODING 92
SWIDTH 600 0
DWIDTH 5 0
BBX 3 7 1 0
BITMAP
80
80
40
40
20
20
20
ENDCHAR
STARTCHAR 005D
ENCODING 93
SWIDTH 600 0
DWIDTH 5 0
BBX 3 9 1 -2
BITMAP
E0
20
20
20
20
20
20
20
E0
ENDCHAR
STARTCHAR 005E
ENCODING 94
SWIDTH 600 0
DWIDTH 5 0
BBX 3 3 1 3
BITMAP
40
A0
A0
ENDCHAR
STARTCHAR 005F
ENCODING 95
SWIDTH 600 0
DWIDTH 5 0
BBX 5 1 0 -2
BITMAP
F8
ENDCHAR
STARTCHAR 0060
ENCODING 96
SWIDTH 600 0
DWIDTH 5 0
BBX 1 2 2 5
BITMAP
80
80
ENDCHAR
STARTCHAR 0061
ENCODING 97
SWIDTH 600 0
DWIDTH 5 0
BBX 4 5 1 0
BITMAP
E0
20
E0
A0
F0
ENDCHAR
STARTCHAR 0062
ENCODING 98
SWIDTH 600 0
DWIDTH 5 0
BBX 4 7 1 0
BITMAP
80
80
E0
90
90
90
E0
ENDCHAR
STARTCHAR 0063
ENCODING 99
SWIDTH 600 0
DWIDTH 5 0
BBX 5 5 0 0
BITMAP
70
88
80
88
70
ENDCHAR
STARTCHAR 0064
ENCODING 100
SWIDTH 600 0
DWIDTH 5 0
BBX 4 7 0 0
BITMAP
10
10
70
90
90
90
70
ENDCHAR
STARTCHAR 0065
ENCODING 101
SWIDTH 600 0
DWIDTH 5 0
BBX 5 5 0 0
BITMAP
70
88
F8
80
70
ENDCHAR
STARTCHAR 0066
ENCODING 102
SWIDTH 600 0
DWIDTH 5 0
BBX 5 8 0 0
BITMAP
18
20
20
F8
20
20
20
70
ENDCHAR
STARTCHAR 0067
ENCODING 103
SWIDTH 600 0
DWIDTH 5 0
BBX 4 7 0 -2
BITMAP
70
90
90
50
70
10
70
ENDCHAR
STARTCHAR 0068
ENCODING 104
SWIDTH 600 0
DWIDTH 5 0
BBX 3 7 1 0
BITMAP
80
80
E0
A0
A0
A0
A0
ENDCHAR
STARTCHAR 0069
ENCODING 105
SWIDTH 600 0
DWIDTH 5 0
BBX 3 7 1 0
BITMAP
40
00
C0
40
40
40
E0
ENDCHAR
STARTCHAR 006A
ENCODING 106
SWIDTH 600 0
DWIDTH 5 0
BBX 3 9 1 -2
BITMAP
20
00
E0
20
20
20
20
20
C0
ENDCHAR
STARTCHAR 006B
ENCODING 107
SWIDTH 600 0
DWIDTH 5 0
BBX 4 7 1 0
BITMAP
80
80
A0
A0
C0
A0
90
ENDCHAR
STARTCHAR 006C
ENCODING 108
SWIDTH 600 0
DWIDTH 5 0
BBX 3 7 1 0
BITMAP
C0
40
40
40
40
40
E0
ENDCHAR
STARTCHAR 006D
ENCODING 109
SWIDTH 600 0
DWIDTH 5 0
BBX 4 5 1 0
BITMAP
E0
D0
D0
D0
D0
ENDCHAR
STARTCHAR 006E
ENCODING 110
SWIDTH 600 0
DWIDTH 5 0
BBX 3 5 1 0
BITMAP
E0
A0
A0
A0
A0
ENDCHAR
STARTCHAR 006F
ENCODING 111
SWIDTH 600 0
DWIDTH 5 0
BBX 5 5 0 0
BITMAP
70
88
88
88
70
ENDCHAR
STARTCHAR 0070
ENCODING 112
SWIDTH 600 0
DWIDTH 5 0
BBX 4 7 1 -2
BITMAP
E0
90
90
90
E0
80
80
ENDCHAR
STARTCHAR 0071
ENCODING 113
SWIDTH 600 0
DWIDTH 5 0
BBX 4 6 0 -2
BITMAP
70
90
90
90
70
10
ENDCHAR
STARTCHAR 0072
ENCODING 114
SWIDTH 600 0
DWIDTH 5 0
BBX 4 5 1 0
BITMAP
B0
40
40
40
E0
ENDCHAR
STARTCHAR 0073
ENCODING 115
SWIDTH 600 0
DWIDTH 5 0
BBX 3 5 1 0
BITMAP
E0
80
E0
20
E0
ENDCHAR
STARTCHAR 0074
ENCODING 116
SWIDTH 600 0
DWIDTH 5 0
BBX 5 6 0 0
BITMAP
40
F0
40
40
40
38
ENDCHAR
STARTCHAR 0075
ENCODING 117
SWIDTH 600 0
DWIDTH 5 0
BBX 3 5 1 0
BITMAP
A0
A0
A0
A0
E0
ENDCHAR
STARTCHAR 0076
ENCODING 118
SWIDTH 600 0
DWIDTH 5 0
BBX 5 5 0 0
BITMAP
88
50
50
60
20
ENDCHAR
STARTCHAR 0077
ENCODING 119
SWIDTH 600 0
DWIDTH 5 0
BBX 5 5 0 0
BITMAP
88
A8
E8
D0
50
ENDCHAR
STARTCHAR 0078
ENCODING 120
SWIDTH 600 0
DWIDTH 5 0
BBX 3 5 1 0
BITMAP
A0
A0
40
A0
A0
ENDCHAR
STARTCHAR 0079
ENCODING 121
SWIDTH 600 0
DWIDTH 5 0
BBX 5 7 0 -2
BITMAP
88
50
50
50
20
20
40
ENDCHAR
STARTCHAR 007A
ENCODING 122
SWIDTH 600 0
DWIDTH 5 0
BBX 3 5 1 0
BITMAP
E0
20
40
80
E0
ENDCHAR
STARTCHAR 007B
ENCODING 123
SWIDTH 600 0
DWIDTH 5 0
BBX 4 9 1 -2
BITMAP
30
40
40
40
80
40
40
40
70
ENDCHAR
STARTCHAR 007C
ENCODING 124
SWIDTH 600 0
DWIDTH 5 0
BBX 1 8 2 -2
BITMAP
80
80
80
80
80
80
80
80
ENDCHAR
STARTCHAR 007D
ENCODING 125
SWIDTH 600 0
DWIDTH 5 0
BBX 4 9 1 -2
BITMAP
80
40
40
40
30
40
40
40
C0
ENDCHAR
STARTCHAR 007E
ENCODING 126
SWIDTH 600 0
DWIDTH 5 0
BBX 4 3 1 1
BITMAP
90
E0
20
ENDCHAR
STARTCHAR 00A0
ENCODING 160
SWIDTH 600 0
DWIDTH 5 0
BBX 0 0 0 0
BITMAP
ENDCHAR
STARTCHAR 00A1
ENCODING 161
SWIDTH 600 0
DWIDTH 5 0
BBX 1 6 2 -2
BITMAP
80
00
80
80
80
80
ENDCHAR
STARTCHAR 00A2
ENCODING 162
SWIDTH 600 0
DWIDTH 5 0
BBX 3 6 1 0
BITMAP
40
E0
C0
C0
E0
40
ENDCHAR
STARTCHAR 00A3
ENCODING 163
SWIDTH 600 0
DWIDTH 5 0
BBX 4 7 1 0
BITMAP
E0
90
80
C0
80
80
F0
ENDCHAR
STARTCHAR 00A4
ENCODING 164
SWIDTH 600 0
DWIDTH 5 0
BBX 4 4 0 1
BITMAP
A0
50
90
70
ENDCHAR
STARTCHAR 00A5
ENCODING 165
SWIDTH 600 0
DWIDTH 5 0
BBX 5 7 0 0
BITMAP
88
50
50
70
20
70
20
ENDCHAR
STARTCHAR 00A6
ENCODING 166
SWIDTH 600 0
DWIDTH 5 0
BBX 1 8 2 -2
BITMAP
80
80
80
00
80
80
80
80
ENDCHAR
STARTCHAR 00A7
ENCODING 167
SWIDTH 600 0
DWIDTH 5 0
BBX 5 9 0 -2
BITMAP
70
48
40
B0
48
28
10
90
70
ENDCHAR
STARTCHAR 00A8
ENCODING 168
SWIDTH 600 0
DWIDTH 5 0
BBX 3 1 1 6
BITMAP
A0
ENDCHAR
STARTCHAR 00A9
ENCODING 169
SWIDTH 600 0
DWIDTH 5 0
BBX 5 4 0 1
BITMAP
F8
E8
D8
F8
ENDCHAR
STARTCHAR 00AA
ENCODING 170
SWIDTH 600 0
DWIDTH 5 0
BBX 2 2 1 5
BITMAP
40
C0
ENDCHAR
STARTCHAR 00AB
ENCODING 171
SWIDTH 600 0
DWIDTH 5 0
BBX 4 5 0 0
BITMAP
50
50
A0
50
40
ENDCHAR
STARTCHAR 00AC
ENCODING 172
SWIDTH 600 0
DWIDTH 5 0
BBX 3 2 1 1
BITMAP
E0
20
ENDCHAR
STARTCHAR 00AD
ENCODING 173
SWIDTH 600 0
DWIDTH 5 0
BBX 3 1 1 2
BITMAP
E0
ENDCHAR
STARTCHAR 00AE
ENCODING 174
SWIDTH 600 0
DWIDTH 5 0
BBX 5 4 0 1
BITMAP
F8
F8
E8
F8
ENDCHAR
STARTCHAR 00AF
ENCODING 175
SWIDTH 600 0
DWIDTH 5 0
BBX 3 1 1 5
BITMAP
E0
ENDCHAR
STARTCHAR 00B0
ENCODING 176
SWIDTH 600 0
DWIDTH 5 0
BBX 3 3 1 4
BITMAP
E0
A0
E0
ENDCHAR
STARTCHAR 00B1
ENCODING 177
SWIDTH 600 0
DWIDTH 5 0
BBX 3 5 1 1
BITMAP
40
E0
40
00
E0
ENDCHAR
STARTCHAR 00B2
ENCODING 178
SWIDTH 600 0
DWIDTH 5 0
BBX 1 2 2 5
BITMAP
80
80
ENDCHAR
STARTCHAR 00B3
ENCODING 179
SWIDTH 600 0
DWIDTH 5 0
BBX 1 2 2 5
BITMAP
80
80
ENDCHAR
STARTCHAR 00B4
ENCODING 180
SWIDTH 600 0
DWIDTH 5 0
BBX 1 1 3 6
BITMAP
80
ENDCHAR
STARTCHAR 00B5
ENCODING 181
SWIDTH 600 0
DWIDTH 5 0
BBX 3 7 1 -2
BITMAP
A0
A0
A0
A0
E0
80
80
ENDCHAR
STARTCHAR 00B6
ENCODING 182
SWIDTH 600 0
DWIDTH 5 0
BBX 5 7 0 0
BITMAP
78
F0
70
70
30
30
30
ENDCHAR
STARTCHAR 00B7
ENCODING 183
SWIDTH 600 0
DWIDTH 5 0
BBX 1 1 2 2
BITMAP
80
ENDCHAR
STARTCHAR 00B8
ENCODING 184
SWIDTH 600 0
DWIDTH 5 0
BBX 2 2 2 -2
BITMAP
80
40
ENDCHAR
STARTCHAR 00B9
ENCODING 185
SWIDTH 600 0
DWIDTH 5 0
BBX 1 2 2 5
BITMAP
80
80
ENDCHAR
STARTCHAR 00BA
ENCODING 186
SWIDTH 600 0
DWIDTH 5 0
BBX 3 2 1 5
BITMAP
E0
E0
ENDCHAR
STARTCHAR 00BB
ENCODING 187
SWIDTH 600 0
DWIDTH 5 0
BBX 4 5 1 0
BITMAP
A0
A0
50
A0
A0
ENDCHAR
STARTCHAR 00BC
ENCODING 188
SWIDTH 600 0
DWIDTH 5 0
BBX 3 6 1 0
BITMAP
80
80
20
40
80
20
ENDCHAR
STARTCHAR 00BD
ENCODING 189
SWIDTH 600 0
DWIDTH 5 0
BBX 4 7 1 0
BITMAP
80
80
20
40
80
30
20
ENDCHAR
STARTCHAR 00BE
ENCODING 190
SWIDTH 600 0
DWIDTH 5 0
BBX 4 6 0 0
BITMAP
C0
40
D0
20
40
50
ENDCHAR
STARTCHAR 00BF
ENCODING 191
SWIDTH 600 0
DWIDTH 5 0
BBX 4 6 1 -2
BITMAP
40
00
40
80
90
E0
ENDCHAR
STARTCHAR 00C0
ENCODING 192
SWIDTH 600 0
DWIDTH 5 0
BBX 5 9 0 0
BITMAP
20
00
20
60
50
50
70
88
88
ENDCHAR
STARTCHAR 00C1
ENCODING 193
SWIDTH 600 0
DWIDTH 5 0
BBX 5 9 0 0
BITMAP
10
00
20
60
50
50
70
88
88
ENDCHAR
STARTCHAR 00C2
ENCODING 194
SWIDTH 600 0
DWIDTH 5 0
BBX 5 9 0 0
BITMAP
70
00
20
60
50
50
70
88
88
ENDCHAR
STARTCHAR 00C3
ENCODING 195
SWIDTH 600 0
DWIDTH 5 0
BBX 5 9 0 0
BITMAP
70
00
20
60
50
50
70
88
88
ENDCHAR
STARTCHAR 00C4
ENCODING 196
SWIDTH 600 0
DWIDTH 5 0
BBX 5 9 0 0
BITMAP
50
00
20
60
50
50
70
88
88
ENDCHAR
STARTCHAR 00C5
ENCODING 197
SWIDTH 600 0
DWIDTH 5 0
BBX 5 8 0 0
BITMAP
60
60
20
50
50
50
70
88
ENDCHAR
STARTCHAR 00C6
ENCODING 198
SWIDTH 600 0
DWIDTH 5 0
BBX 5 7 0 0
BITMAP
38
60
60
50
60
A0
98
ENDCHAR
STARTCHAR 00C7
ENCODING 199
SWIDTH 600 0
DWIDTH 5 0
BBX 5 9 0 -2
BITMAP
70
48
80
80
80
48
70
20
10
ENDCHAR
STARTCHAR 00C8
ENCODING 200
SWIDTH 600 0
DWIDTH 5 0
BBX 3 9 1 0
BITMAP
40
00
E0
80
80
E0
80
80
E0
ENDCHAR
STARTCHAR 00C9
ENCODING 201
SWIDTH 600 0
DWIDTH 5 0
BBX 3 9 1 0
BITMAP
20
00
E0
80
80
E0
80
80
E0
ENDCHAR
STARTCHAR 00CA
ENCODING 202
SWIDTH 600 0
DWIDTH 5 0
BBX 3 9 1 0
BITMAP
E0
00
E0
80
80
E0
80
80
E0
ENDCHAR
STARTCHAR 00CB
ENCODING 203
SWIDTH 600 0
DWIDTH 5 0
BBX 3 9 1 0
BITMAP
A0
00
E0
80
80
E0
80
80
E0
ENDCHAR
STARTCHAR 00CC
ENCODING 204
SWIDTH 600 0
DWIDTH 5 0
BBX 3 9 1 0
BITMAP
40
00
E0
40
40
40
40
40
E0
ENDCHAR
STARTCHAR 00CD
ENCODING 205
SWIDTH 600 0
DWIDTH 5 0
BBX 3 9 1 0
BITMAP
20
00
E0
40
40
40
40
40
E0
ENDCHAR
STARTCHAR 00CE
ENCODING 206
SWIDTH 600 0
DWIDTH 5 0
BBX 3 9 1 0
BITMAP
E0
00
E0
40
40
40
40
40
E0
ENDCHAR
STARTCHAR 00CF
ENCODING 207
SWIDTH 600 0
DWIDTH 5 0
BBX 3 9 1 0
BITMAP
A0
00
E0
40
40
40
40
40
E0
ENDCHAR
STARTCHAR 00D0
ENCODING 208
SWIDTH 600 0
DWIDTH 5 0
BBX 5 7 0 0
BITMAP
70
50
48
E8
48
50
70
ENDCHAR
STARTCHAR 00D1
ENCODING 209
SWIDTH 600 0
DWIDTH 5 0
BBX 3 9 1 0
BITMAP
E0
00
A0
A0
E0
E0
E0
A0
A0
ENDCHAR
STARTCHAR 00D2
ENCODING 210
SWIDTH 600 0
DWIDTH 5 0
BBX 5 9 0 0
BITMAP
20
00
70
50
88
88
88
50
70
ENDCHAR
STARTCHAR 00D3
ENCODING 211
SWIDTH 600 0
DWIDTH 5 0
BBX 5 9 0 0
BITMAP
10
00
70
50
88
88
88
50
70
ENDCHAR
STARTCHAR 00D4
ENCODING 212
SWIDTH 600 0
DWIDTH 5 0
BBX 5 9 0 0
BITMAP
70
00
70
50
88
88
88
50
70
ENDCHAR
STARTCHAR 00D5
ENCODING 213
SWIDTH 600 0
DWIDTH 5 0
BBX 5 9 0 0
BITMAP
70
00
70
50
88
88
88
50
70
ENDCHAR
STARTCHAR 00D6
ENCODING 214
SWIDTH 600 0
DWIDTH 5 0
BBX 5 9 0 0
BITMAP
50
00
70
50
88
88
88
50
70
ENDCHAR
STARTCHAR 00D7
ENCODING 215
SWIDTH 600 0
DWIDTH 5 0
BBX 3 3 1 2
BITMAP
A0
40
A0
ENDCHAR
STARTCHAR 00D8
ENCODING 216
SWIDTH 600 0
DWIDTH 5 0
BBX 5 9 0 -1
BITMAP
08
70
90
A8
A8
A8
D0
70
80
ENDCHAR
STARTCHAR 00D9
ENCODING 217
SWIDTH 600 0
DWIDTH 5 0
BBX 4 9 1 0
BITMAP
40
00
90
90
90
90
90
A0
E0
ENDCHAR
STARTCHAR 00DA
ENCODING 218
SWIDTH 600 0
DWIDTH 5 0
BBX 4 9 1 0
BITMAP
20
00
90
90
90
90
90
A0
E0
ENDCHAR
STARTCHAR 00DB
ENCODING 219
SWIDTH 600 0
DWIDTH 5 0
BBX 4 9 1 0
BITMAP
E0
00
90
90
90
90
90
A0
E0
ENDCHAR
STARTCHAR 00DC
ENCODING 220
SWIDTH 600 0
DWIDTH 5 0
BBX 4 9 1 0
BITMAP
A0
00
90
90
90
90
90
A0
E0
ENDCHAR
STARTCHAR 00DD
ENCODING 221
SWIDTH 600 0
DWIDTH 5 0
BBX 5 9 0 0
BITMAP
10
00
88
50
50
20
20
20
20
ENDCHAR
STARTCHAR 00DE
ENCODING 222
SWIDTH 600 0
DWIDTH 5 0
BBX 4 7 1 0
BITMAP
80
E0
90
90
A0
C0
80
ENDCHAR
STARTCHAR 00DF
ENCODING 223
SWIDTH 600 0
DWIDTH 5 0
BBX 4 7 1 0
BITMAP
E0
A0
A0
E0
90
90
E0
ENDCHAR
STARTCHAR 00E0
ENCODING 224
SWIDTH 600 0
DWIDTH 5 0
BBX 4 7 1 0
BITMAP
40
00
E0
20
E0
A0
F0
ENDCHAR
STARTCHAR 00E1
ENCODING 225
SWIDTH 600 0
DWIDTH 5 0
BBX 4 7 1 0
BITMAP
40
00
E0
20
E0
A0
F0
ENDCHAR
STARTCHAR 00E2
ENCODING 226
SWIDTH 600 0
DWIDTH 5 0
BBX 4 7 1 0
BITMAP
E0
00
E0
20
E0
A0
F0
ENDCHAR
STARTCHAR 00E3
ENCODING 227
SWIDTH 600 0
DWIDTH 5 0
BBX 4 8 1 0
BITMAP
80
E0
00
E0
20
E0
A0
F0
ENDCHAR
STARTCHAR 00E4
ENCODING 228
SWIDTH 600 0
DWIDTH 5 0
BBX 4 7 1 0
BITMAP
A0
00
E0
20
E0
A0
F0
ENDCHAR
STARTCHAR 00E5
ENCODING 229
SWIDTH 600 0
DWIDTH 5 0
BBX 4 7 1 0
BITMAP
E0
40
E0
20
E0
A0
F0
ENDCHAR
STARTCHAR 00E6
ENCODING 230
SWIDTH 600 0
DWIDTH 5 0
BBX 5 5 0 0
BITMAP
78
A8
78
A0
D8
ENDCHAR
STARTCHAR 00E7
ENCODING 231
SWIDTH 600 0
DWIDTH 5 0
BBX 5 7 0 -2
BITMAP
70
88
80
88
70
20
10
ENDCHAR
STARTCHAR 00E8
ENCODING 232
SWIDTH 600 0
DWIDTH 5 0
BBX 5 7 0 0
BITMAP
20
00
70
88
F8
80
70
ENDCHAR
STARTCHAR 00E9
ENCODING 233
SWIDTH 600 0
DWIDTH 5 0
BBX 5 7 0 0
BITMAP
20
00
70
88
F8
80
70
ENDCHAR
STARTCHAR 00EA
ENCODING 234
SWIDTH 600 0
DWIDTH 5 0
BBX 5 7 0 0
BITMAP
70
00
70
88
F8
80
70
ENDCHAR
STARTCHAR 00EB
ENCODING 235
SWIDTH 600 0
DWIDTH 5 0
BBX 5 7 0 0
BITMAP
50
00
70
88
F8
80
70
ENDCHAR
STARTCHAR 00EC
ENCODING 236
SWIDTH 600 0
DWIDTH 5 0
BBX 3 7 1 0
BITMAP
80
00
C0
40
40
40
E0
ENDCHAR
STARTCHAR 00ED
ENCODING 237
SWIDTH 600 0
DWIDTH 5 0
BBX 3 7 1 0
BITMAP
40
00
C0
40
40
40
E0
ENDCHAR
STARTCHAR 00EE
ENCODING 238
SWIDTH 600 0
DWIDTH 5 0
BBX 3 7 1 0
BITMAP
E0
00
C0
40
40
40
E0
ENDCHAR
STARTCHAR 00EF
ENCODING 239
SWIDTH 600 0
DWIDTH 5 0
BBX 3 7 1 0
BITMAP
A0
00
C0
40
40
40
E0
ENDCHAR
STARTCHAR 00F0
ENCODING 240
SWIDTH 600 0
DWIDTH 5 0
BBX 5 7 0 0
BITMAP
30
50
30
48
88
88
70
ENDCHAR
STARTCHAR 00F1
ENCODING 241
SWIDTH 600 0
DWIDTH 5 0
BBX 3 8 1 0
BITMAP
80
E0
00
E0
A0
A0
A0
A0
ENDCHAR
STARTCHAR 00F2
ENCODING 242
SWIDTH 600 0
DWIDTH 5 0
BBX 5 7 0 0
BITMAP
20
00
70
88
88
88
70
ENDCHAR
STARTCHAR 00F3
ENCODING 243
SWIDTH 600 0
DWIDTH 5 0
BBX 5 7 0 0
BITMAP
20
00
70
88
88
88
70
ENDCHAR
STARTCHAR 00F4
ENCODING 244
SWIDTH 600 0
DWIDTH 5 0
BBX 5 7 0 0
BITMAP
70
00
70
88
88
88
70
ENDCHAR
STARTCHAR 00F5
ENCODING 245
SWIDTH 600 0
DWIDTH 5 0
BBX 5 8 0 0
BITMAP
40
70
00
70
88
88
88
70
ENDCHAR
STARTCHAR 00F6
ENCODING 246
SWIDTH 600 0
DWIDTH 5 0
BBX 5 7 0 0
BITMAP
50
00
70
88
88
88
70
ENDCHAR
STARTCHAR 00F7
ENCODING 247
SWIDTH 600 0
DWIDTH 5 0
BBX 3 5 1 0
BITMAP
40
00
E0
00
40
ENDCHAR
STARTCHAR 00F8
ENCODING 248
SWIDTH 600 0
DWIDTH 5 0
BBX 5 6 0 -1
BITMAP
08
70
A8
A8
C8
70
ENDCHAR
STARTCHAR 00F9
ENCODING 249
SWIDTH 600 0
DWIDTH 5 0
BBX 3 7 1 0
BITMAP
40
00
A0
A0
A0
A0
E0
ENDCHAR
STARTCHAR 00FA
ENCODING 250
SWIDTH 600 0
DWIDTH 5 0
BBX 3 5 1 2
BITMAP
A0
A0
A0
A0
E0
ENDCHAR
STARTCHAR 00FB
ENCODING 251
SWIDTH 600 0
DWIDTH 5 0
BBX 3 7 1 0
BITMAP
E0
00
A0
A0
A0
A0
E0
ENDCHAR
STARTCHAR 00FC
ENCODING 252
SWIDTH 600 0
DWIDTH 5 0
BBX 3 7 1 0
BITMAP
A0
00
A0
A0
A0
A0
E0
ENDCHAR
STARTCHAR 00FD
ENCODING 253
SWIDTH 600 0
DWIDTH 5 0
BBX 5 7 0 0
BITMAP
88
50
50
50
20
20
40
ENDCHAR
STARTCHAR 00FE
ENCODING 254
SWIDTH 600 0
DWIDTH 5 0
BBX 4 9 1 -2
BITMAP
80
80
E0
90
90
90
E0
80
80
ENDCHAR
STARTCHAR 00FF
ENCODING 255
SWIDTH 600 0
DWIDTH 5 0
BBX 5 9 0 -2
BITMAP
50
00
88
50
50
50
20
20
40
ENDCHAR
STARTCHAR 0100
ENCODING 256
SWIDTH 600 0
DWIDTH 5 0
BBX 5 9 0 0
BITMAP
70
00
20
60
50
50
70
88
88
ENDCHAR
STARTCHAR 0101
ENCODING 257
SWIDTH 600 0
DWIDTH 5 0
BBX 4 7 1 0
BITMAP
E0
00
E0
20
E0
A0
F0
ENDCHAR
STARTCHAR 0102
ENCODING 258
SWIDTH 600 0
DWIDTH 5 0
BBX 5 9 0 0
BITMAP
50
20
20
60
50
50
70
88
88
ENDCHAR
STARTCHAR 0103
ENCODING 259
SWIDTH 600 0
DWIDTH 5 0
BBX 4 7 1 0
BITMAP
60
00
E0
20
E0
A0
F0
ENDCHAR
STARTCHAR 0104
ENCODING 260
SWIDTH 600 0
DWIDTH 5 0
BBX 5 9 0 -2
BITMAP
20
60
50
50
70
88
88
08
08
ENDCHAR
STARTCHAR 0105
ENCODING 261
SWIDTH 600 0
DWIDTH 5 0
BBX 4 7 1 -2
BITMAP
E0
20
E0
A0
F0
20
30
ENDCHAR
STARTCHAR 0106
ENCODING 262
SWIDTH 600 0
DWIDTH 5 0
BBX 5 9 0 0
BITMAP
10
00
70
48
80
80
80
48
70
ENDCHAR
STARTCHAR 0107
ENCODING 263
SWIDTH 600 0
DWIDTH 5 0
BBX 5 7 0 0
BITMAP
20
00
70
88
80
88
70
ENDCHAR
STARTCHAR 0108
ENCODING 264
SWIDTH 600 0
DWIDTH 5 0
BBX 5 9 0 0
BITMAP
70
00
70
48
80
80
80
48
70
ENDCHAR
STARTCHAR 0109
ENCODING 265
SWIDTH 600 0
DWIDTH 5 0
BBX 5 7 0 0
BITMAP
70
00
70
88
80
88
70
ENDCHAR
STARTCHAR 010A
ENCODING 266
SWIDTH 600 0
DWIDTH 5 0
BBX 5 9 0 0
BITMAP
20
00
70
48
80
80
80
48
70
ENDCHAR
STARTCHAR 010B
ENCODING 267
SWIDTH 600 0
DWIDTH 5 0
BBX 5 7 0 0
BITMAP
20
00
70
88
80
88
70
ENDCHAR
STARTCHAR 010C
ENCODING 268
SWIDTH 600 0
DWIDTH 5 0
BBX 5 9 0 0
BITMAP
50
20
70
48
80
80
80
48
70
ENDCHAR
STARTCHAR 010D
ENCODING 269
SWIDTH 600 0
DWIDTH 5 0
BBX 5 7 0 0
BITMAP
70
00
70
88
80
88
70
ENDCHAR
STARTCHAR 010E
ENCODING 270
SWIDTH 600 0
DWIDTH 5 0
BBX 4 9 1 0
BITMAP
A0
40
E0
A0
90
90
90
A0
E0
ENDCHAR
STARTCHAR 010F
ENCODING 271
SWIDTH 600 0
DWIDTH 5 0
BBX 5 7 0 0
BITMAP
18
10
70
90
90
90
70
ENDCHAR
STARTCHAR 0110
ENCODING 272
SWIDTH 600 0
DWIDTH 5 0
BBX 5 7 0 0
BITMAP
70
50
48
E8
48
50
70
ENDCHAR
STARTCHAR 0111
ENCODING 273
SWIDTH 600 0
DWIDTH 5 0
BBX 4 7 0 0
BITMAP
10
10
70
90
90
90
70
ENDCHAR
STARTCHAR 0112
ENCODING 274
SWIDTH 600 0
DWIDTH 5 0
BBX 3 9 1 0
BITMAP
E0
00
E0
80
80
E0
80
80
E0
ENDCHAR
STARTCHAR 0113
ENCODING 275
SWIDTH 600 0
DWIDTH 5 0
BBX 5 7 0 0
BITMAP
70
00
70
88
F8
80
70
ENDCHAR
STARTCHAR 0114
ENCODING 276
SWIDTH 600 0
DWIDTH 5 0
BBX 3 9 1 0
BITMAP
A0
40
E0
80
80
E0
80
80
E0
ENDCHAR
STARTCHAR 0115
ENCODING 277
SWIDTH 600 0
DWIDTH 5 0
BBX 5 7 0 0
BITMAP
30
00
70
88
F8
80
70
ENDCHAR
STARTCHAR 0116
ENCODING 278
SWIDTH 600 0
DWIDTH 5 0
BBX 3 9 1 0
BITMAP
40
00
E0
80
80
E0
80
80
E0
ENDCHAR
STARTCHAR 0117
ENCODING 279
SWIDTH 600 0
DWIDTH 5 0
BBX 5 7 0 0
BITMAP
20
00
70
88
F8
80
70
ENDCHAR
STARTCHAR 0118
ENCODING 280
SWIDTH 600 0
DWIDTH 5 0
BBX 3 9 1 -2
BITMAP
E0
80
80
E0
80
80
E0
20
20
ENDCHAR
STARTCHAR 0119
ENCODING 281
SWIDTH 600 0
DWIDTH 5 0
BBX 5 7 0 -2
BITMAP
70
88
F8
80
70
20
20
ENDCHAR
STARTCHAR 011A
ENCODING 282
SWIDTH 600 0
DWIDTH 5 0
BBX 3 9 1 0
BITMAP
A0
40
E0
80
80
E0
80
80
E0
ENDCHAR
STARTCHAR 011B
ENCODING 283
SWIDTH 600 0
DWIDTH 5 0
BBX 5 7 0 0
BITMAP
70
00
70
88
F8
80
70
ENDCHAR
STARTCHAR 011C
ENCODING 284
SWIDTH 600 0
DWIDTH 5 0
BBX 5 9 0 0
BITMAP
70
00
70
48
80
98
88
48
70
ENDCHAR
STARTCHAR 011D
ENCODING 285
SWIDTH 600 0
DWIDTH 5 0
BBX 4 9 0 -2
BITMAP
70
00
70
90
90
50
70
10
70
ENDCHAR
STARTCHAR 011E
ENCODING 286
SWIDTH 600 0
DWIDTH 5 0
BBX 5 9 0 0
BITMAP
50
20
70
48
80
98
88
48
70
ENDCHAR
STARTCHAR 011F
ENCODING 287
SWIDTH 600 0
DWIDTH 5 0
BBX 4 9 0 -2
BITMAP
30
00
70
90
90
50
70
10
70
ENDCHAR
STARTCHAR 0120
ENCODING 288
SWIDTH 600 0
DWIDTH 5 0
BBX 5 9 0 0
BITMAP
20
00
70
48
80
98
88
48
70
ENDCHAR
STARTCHAR 0121
ENCODING 289
SWIDTH 600 0
DWIDTH 5 0
BBX 4 9 0 -2
BITMAP
20
00
70
90
90
50
70
10
70
ENDCHAR
STARTCHAR 0122
ENCODING 290
SWIDTH 600 0
DWIDTH 5 0
BBX 5 10 0 -3
BITMAP
70
48
80
98
88
48
70
00
20
20
ENDCHAR
STARTCHAR 0123
ENCODING 291
SWIDTH 600 0
DWIDTH 5 0
BBX 4 10 0 -2
BITMAP
20
20
00
70
90
90
50
70
10
70
ENDCHAR
STARTCHAR 0124
ENCODING 292
SWIDTH 600 0
DWIDTH 5 0
BBX 3 9 1 0
BITMAP
E0
00
A0
A0
A0
E0
A0
A0
A0
ENDCHAR
STARTCHAR 0125
ENCODING 293
SWIDTH 600 0
DWIDTH 5 0
BBX 4 9 0 0
BITMAP
C0
00
40
40
70
50
50
50
50
ENDCHAR
STARTCHAR 0126
ENCODING 294
SWIDTH 600 0
DWIDTH 5 0
BBX 5 7 0 0
BITMAP
50
F8
50
70
50
50
50
ENDCHAR
STARTCHAR 0127
ENCODING 295
SWIDTH 600 0
DWIDTH 5 0
BBX 3 7 1 0
BITMAP
80
80
E0
A0
A0
A0
A0
ENDCHAR
STARTCHAR 0128
ENCODING 296
SWIDTH 600 0
DWIDTH 5 0
BBX 3 9 1 0
BITMAP
E0
00
E0
40
40
40
40
40
E0
ENDCHAR
STARTCHAR 012A
ENCODING 298
SWIDTH 600 0
DWIDTH 5 0
BBX 3 9 1 0
BITMAP
E0
00
E0
40
40
40
40
40
E0
ENDCHAR
STARTCHAR 012B
ENCODING 299
SWIDTH 600 0
DWIDTH 5 0
BBX 3 7 1 0
BITMAP
E0
00
C0
40
40
40
E0
ENDCHAR
STARTCHAR 012C
ENCODING 300
SWIDTH 600 0
DWIDTH 5 0
BBX 3 9 1 0
BITMAP
A0
40
E0
40
40
40
40
40
E0
ENDCHAR
STARTCHAR 012D
ENCODING 301
SWIDTH 600 0
DWIDTH 5 0
BBX 3 7 1 0
BITMAP
C0
00
C0
40
40
40
E0
ENDCHAR
STARTCHAR 012E
ENCODING 302
SWIDTH 600 0
DWIDTH 5 0
BBX 3 9 1 -2
BITMAP
E0
40
40
40
40
40
E0
40
40
ENDCHAR
STARTCHAR 012F
ENCODING 303
SWIDTH 600 0
DWIDTH 5 0
BBX 3 9 1 -2
BITMAP
40
00
C0
40
40
40
E0
40
40
ENDCHAR
STARTCHAR 0130
ENCODING 304
SWIDTH 600 0
DWIDTH 5 0
BBX 3 9 1 0
BITMAP
40
00
E0
40
40
40
40
40
E0
ENDCHAR
STARTCHAR 0131
ENCODING 305
SWIDTH 600 0
DWIDTH 5 0
BBX 3 5 1 0
BITMAP
C0
40
40
40
E0
ENDCHAR
STARTCHAR 0132
ENCODING 306
SWIDTH 600 0
DWIDTH 5 0
BBX 3 7 1 0
BITMAP
A0
A0
A0
A0
20
A0
E0
ENDCHAR
STARTCHAR 0133
ENCODING 307
SWIDTH 600 0
DWIDTH 5 0
BBX 4 9 0 -2
BITMAP
50
00
D0
50
50
50
F0
10
30
ENDCHAR
STARTCHAR 0134
ENCODING 308
SWIDTH 600 0
DWIDTH 5 0
BBX 3 9 1 0
BITMAP
E0
00
E0
20
20
20
20
A0
E0
ENDCHAR
STARTCHAR 0135
ENCODING 309
SWIDTH 600 0
DWIDTH 5 0
BBX 3 9 1 -2
BITMAP
60
00
E0
20
20
20
20
20
C0
ENDCHAR
STARTCHAR 0136
ENCODING 310
SWIDTH 600 0
DWIDTH 5 0
BBX 4 10 1 -3
BITMAP
90
A0
C0
C0
A0
A0
90
00
40
40
ENDCHAR
STARTCHAR 0137
ENCODING 311
SWIDTH 600 0
DWIDTH 5 0
BBX 4 10 1 -3
BITMAP
80
80
A0
A0
C0
A0
90
00
40
40
ENDCHAR
STARTCHAR 0138
ENCODING 312
SWIDTH 600 0
DWIDTH 5 0
BBX 4 5 1 0
BITMAP
A0
A0
C0
A0
90
ENDCHAR
STARTCHAR 0139
ENCODING 313
SWIDTH 600 0
DWIDTH 5 0
BBX 4 8 1 1
BITMAP
80
80
80
80
80
80
80
F0
ENDCHAR
STARTCHAR 013A
ENCODING 314
SWIDTH 600 0
DWIDTH 5 0
BBX 3 9 1 0
BITMAP
20
00
C0
40
40
40
40
40
E0
ENDCHAR
STARTCHAR 013B
ENCODING 315
SWIDTH 600 0
DWIDTH 5 0
BBX 4 10 1 -3
BITMAP
80
80
80
80
80
80
F0
00
40
40
ENDCHAR
STARTCHAR 013C
ENCODING 316
SWIDTH 600 0
DWIDTH 5 0
BBX 3 10 1 -3
BITMAP
C0
40
40
40
40
40
E0
00
40
40
ENDCHAR
STARTCHAR 013D
ENCODING 317
SWIDTH 600 0
DWIDTH 5 0
BBX 4 7 1 0
BITMAP
C0
80
80
80
80
80
F0
ENDCHAR
STARTCHAR 013E
ENCODING 318
SWIDTH 600 0
DWIDTH 5 0
BBX 3 7 1 0
BITMAP
E0
40
40
40
40
40
E0
ENDCHAR
STARTCHAR 013F
ENCODING 319
SWIDTH 600 0
DWIDTH 5 0
BBX 4 7 1 0
BITMAP
80
80
80
A0
80
80
F0
ENDCHAR
STARTCHAR 0140
ENCODING 320
SWIDTH 600 0
DWIDTH 5 0
BBX 4 7 1 0
BITMAP
C0
40
40
50
40
40
E0
ENDCHAR
STARTCHAR 0141
ENCODING 321
SWIDTH 600 0
DWIDTH 5 0
BBX 5 7 0 0
BITMAP
40
40
60
C0
40
40
78
ENDCHAR
STARTCHAR 0142
ENCODING 322
SWIDTH 600 0
DWIDTH 5 0
BBX 3 7 1 0
BITMAP
C0
40
60
C0
40
40
E0
ENDCHAR
STARTCHAR 0143
ENCODING 323
SWIDTH 600 0
DWIDTH 5 0
BBX 3 9 1 0
BITMAP
20
00
A0
A0
E0
E0
E0
A0
A0
ENDCHAR
STARTCHAR 0144
ENCODING 324
SWIDTH 600 0
DWIDTH 5 0
BBX 3 7 1 0
BITMAP
40
00
E0
A0
A0
A0
A0
ENDCHAR
STARTCHAR 0145
ENCODING 325
SWIDTH 600 0
DWIDTH 5 0
BBX 3 10 1 -3
BITMAP
A0
A0
E0
E0
E0
A0
A0
00
40
40
ENDCHAR
STARTCHAR 0146
ENCODING 326
SWIDTH 600 0
DWIDTH 5 0
BBX 3 8 1 -3
BITMAP
E0
A0
A0
A0
A0
00
40
40
ENDCHAR
STARTCHAR 0147
ENCODING 327
SWIDTH 600 0
DWIDTH 5 0
BBX 3 9 1 0
BITMAP
A0
40
A0
A0
E0
E0
E0
A0
A0
ENDCHAR
STARTCHAR 0148
ENCODING 328
SWIDTH 600 0
DWIDTH 5 0
BBX 3 7 1 0
BITMAP
E0
00
E0
A0
A0
A0
A0
ENDCHAR
STARTCHAR 014A
ENCODING 330
SWIDTH 600 0
DWIDTH 5 0
BBX 3 9 1 -2
BITMAP
A0
A0
E0
E0
E0
A0
A0
20
20
ENDCHAR
STARTCHAR 014B
ENCODING 331
SWIDTH 600 0
DWIDTH 5 0
BBX 3 7 1 -2
BITMAP
E0
A0
A0
A0
A0
20
20
ENDCHAR
STARTCHAR 014C
ENCODING 332
SWIDTH 600 0
DWIDTH 5 0
BBX 5 9 0 0
BITMAP
70
00
70
50
88
88
88
50
70
ENDCHAR
STARTCHAR 014D
ENCODING 333
SWIDTH 600 0
DWIDTH 5 0
BBX 5 7 0 0
BITMAP
70
00
70
88
88
88
70
ENDCHAR
STARTCHAR 014E
ENCODING 334
SWIDTH 600 0
DWIDTH 5 0
BBX 5 9 0 0
BITMAP
50
20
70
50
88
88
88
50
70
ENDCHAR
STARTCHAR 014F
ENCODING 335
SWIDTH 600 0
DWIDTH 5 0
BBX 5 7 0 0
BITMAP
30
00
70
88
88
88
70
ENDCHAR
STARTCHAR 0150
ENCODING 336
SWIDTH 600 0
DWIDTH 5 0
BBX 5 9 0 0
BITMAP
50
00
70
50
88
88
88
50
70
ENDCHAR
STARTCHAR 0151
ENCODING 337
SWIDTH 600 0
DWIDTH 5 0
BBX 5 7 0 0
BITMAP
50
00
70
88
88
88
70
ENDCHAR
STARTCHAR 0152
ENCODING 338
SWIDTH 600 0
DWIDTH 5 0
BBX 5 7 0 0
BITMAP
78
A0
A0
98
A0
A0
78
ENDCHAR
STARTCHAR 0153
ENCODING 339
SWIDTH 600 0
DWIDTH 5 0
BBX 5 5 0 0
BITMAP
58
A8
B8
A0
58
ENDCHAR
STARTCHAR 0154
ENCODING 340
SWIDTH 600 0
DWIDTH 5 0
BBX 4 9 1 0
BITMAP
20
00
E0
90
90
E0
A0
A0
90
ENDCHAR
STARTCHAR 0155
ENCODING 341
SWIDTH 600 0
DWIDTH 5 0
BBX 4 7 1 0
BITMAP
40
00
B0
40
40
40
E0
ENDCHAR
STARTCHAR 0156
ENCODING 342
SWIDTH 600 0
DWIDTH 5 0
BBX 4 10 1 -3
BITMAP
E0
90
90
E0
A0
A0
90
00
40
40
ENDCHAR
STARTCHAR 0157
ENCODING 343
SWIDTH 600 0
DWIDTH 5 0
BBX 4 8 1 -3
BITMAP
B0
40
40
40
E0
00
40
40
ENDCHAR
STARTCHAR 0158
ENCODING 344
SWIDTH 600 0
DWIDTH 5 0
BBX 4 9 1 0
BITMAP
A0
40
E0
90
90
E0
A0
A0
90
ENDCHAR
STARTCHAR 0159
ENCODING 345
SWIDTH 600 0
DWIDTH 5 0
BBX 4 7 1 0
BITMAP
E0
00
B0
40
40
40
E0
ENDCHAR
STARTCHAR 015A
ENCODING 346
SWIDTH 600 0
DWIDTH 5 0
BBX 5 9 0 0
BITMAP
10
00
70
48
40
30
08
88
70
ENDCHAR
STARTCHAR 015B
ENCODING 347
SWIDTH 600 0
DWIDTH 5 0
BBX 3 7 1 0
BITMAP
40
00
E0
80
E0
20
E0
ENDCHAR
STARTCHAR 015C
ENCODING 348
SWIDTH 600 0
DWIDTH 5 0
BBX 5 9 0 0
BITMAP
70
00
70
48
40
30
08
88
70
ENDCHAR
STARTCHAR 015D
ENCODING 349
SWIDTH 600 0
DWIDTH 5 0
BBX 3 7 1 0
BITMAP
E0
00
E0
80
E0
20
E0
ENDCHAR
STARTCHAR 015E
ENCODING 350
SWIDTH 600 0
DWIDTH 5 0
BBX 5 9 0 -2
BITMAP
70
48
40
30
08
88
70
20
10
ENDCHAR
STARTCHAR 015F
ENCODING 351
SWIDTH 600 0
DWIDTH 5 0
BBX 3 7 1 -2
BITMAP
E0
80
E0
20
E0
40
20
ENDCHAR
STARTCHAR 0160
ENCODING 352
SWIDTH 600 0
DWIDTH 5 0
BBX 5 9 0 0
BITMAP
50
20
70
48
40
30
08
88
70
ENDCHAR
STARTCHAR 0161
ENCODING 353
SWIDTH 600 0
DWIDTH 5 0
BBX 3 7 1 0
BITMAP
E0
00
E0
80
E0
20
E0
ENDCHAR
STARTCHAR 0162
ENCODING 354
SWIDTH 600 0
DWIDTH 5 0
BBX 5 9 0 -2
BITMAP
F8
20
20
20
20
20
20
20
10
ENDCHAR
STARTCHAR 0163
ENCODING 355
SWIDTH 600 0
DWIDTH 5 0
BBX 5 8 0 -2
BITMAP
40
F0
40
40
40
38
20
10
ENDCHAR
STARTCHAR 0164
ENCODING 356
SWIDTH 600 0
DWIDTH 5 0
BBX 5 9 0 0
BITMAP
50
20
F8
20
20
20
20
20
20
ENDCHAR
STARTCHAR 0165
ENCODING 357
SWIDTH 600 0
DWIDTH 5 0
BBX 5 7 0 0
BITMAP
10
40
F0
40
40
40
38
ENDCHAR
STARTCHAR 0166
ENCODING 358
SWIDTH 600 0
DWIDTH 5 0
BBX 5 7 0 0
BITMAP
F8
20
20
70
20
20
20
ENDCHAR
STARTCHAR 0167
ENCODING 359
SWIDTH 600 0
DWIDTH 5 0
BBX 5 5 0 1
BITMAP
F0
40
F0
40
38
ENDCHAR
STARTCHAR 0168
ENCODING 360
SWIDTH 600 0
DWIDTH 5 0
BBX 4 9 1 0
BITMAP
E0
00
90
90
90
90
90
A0
E0
ENDCHAR
STARTCHAR 0169
ENCODING 361
SWIDTH 600 0
DWIDTH 5 0
BBX 3 8 1 0
BITMAP
80
E0
00
A0
A0
A0
A0
E0
ENDCHAR
STARTCHAR 016A
ENCODING 362
SWIDTH 600 0
DWIDTH 5 0
BBX 4 9 1 0
BITMAP
E0
00
90
90
90
90
90
A0
E0
ENDCHAR
STARTCHAR 016B
ENCODING 363
SWIDTH 600 0
DWIDTH 5 0
BBX 3 7 1 0
BITMAP
E0
00
A0
A0
A0
A0
E0
ENDCHAR
STARTCHAR 016C
ENCODING 364
SWIDTH 600 0
DWIDTH 5 0
BBX 4 9 1 0
BITMAP
A0
40
90
90
90
90
90
A0
E0
ENDCHAR
STARTCHAR 016D
ENCODING 365
SWIDTH 600 0
DWIDTH 5 0
BBX 3 7 1 0
BITMAP
60
00
A0
A0
A0
A0
E0
ENDCHAR
STARTCHAR 016E
ENCODING 366
SWIDTH 600 0
DWIDTH 5 0
BBX 4 9 1 0
BITMAP
C0
C0
90
90
90
90
90
A0
E0
ENDCHAR
STARTCHAR 016F
ENCODING 367
SWIDTH 600 0
DWIDTH 5 0
BBX 3 8 1 0
BITMAP
C0
C0
00
A0
A0
A0
A0
E0
ENDCHAR
STARTCHAR 0170
ENCODING 368
SWIDTH 600 0
DWIDTH 5 0
BBX 4 9 1 0
BITMAP
A0
00
90
90
90
90
90
A0
E0
ENDCHAR
STARTCHAR 0171
ENCODING 369
SWIDTH 600 0
DWIDTH 5 0
BBX 3 7 1 0
BITMAP
A0
00
A0
A0
A0
A0
E0
ENDCHAR
STARTCHAR 0172
ENCODING 370
SWIDTH 600 0
DWIDTH 5 0
BBX 4 9 1 -2
BITMAP
90
90
90
90
90
A0
E0
40
40
ENDCHAR
STARTCHAR 0173
ENCODING 371
SWIDTH 600 0
DWIDTH 5 0
BBX 3 7 1 -2
BITMAP
A0
A0
A0
A0
E0
20
20
ENDCHAR
STARTCHAR 0174
ENCODING 372
SWIDTH 600 0
DWIDTH 5 0
BBX 5 9 0 0
BITMAP
70
00
88
A8
A8
E8
F0
50
50
ENDCHAR
STARTCHAR 0175
ENCODING 373
SWIDTH 600 0
DWIDTH 5 0
BBX 5 7 0 0
BITMAP
70
00
88
A8
E8
D0
50
ENDCHAR
STARTCHAR 0176
ENCODING 374
SWIDTH 600 0
DWIDTH 5 0
BBX 5 9 0 0
BITMAP
70
00
88
50
50
20
20
20
20
ENDCHAR
STARTCHAR 0177
ENCODING 375
SWIDTH 600 0
DWIDTH 5 0
BBX 5 9 0 -2
BITMAP
70
00
88
50
50
50
20
20
40
ENDCHAR
STARTCHAR 0178
ENCODING 376
SWIDTH 600 0
DWIDTH 5 0
BBX 5 9 0 0
BITMAP
50
00
88
50
50
20
20
20
20
ENDCHAR
STARTCHAR 0179
ENCODING 377
SWIDTH 600 0
DWIDTH 5 0
BBX 4 9 1 0
BITMAP
20
00
E0
20
40
40
80
80
F0
ENDCHAR
STARTCHAR 017A
ENCODING 378
SWIDTH 600 0
DWIDTH 5 0
BBX 3 5 1 2
BITMAP
E0
20
40
80
E0
ENDCHAR
STARTCHAR 017B
ENCODING 379
SWIDTH 600 0
DWIDTH 5 0
BBX 4 9 1 0
BITMAP
40
00
E0
20
40
40
80
80
F0
ENDCHAR
STARTCHAR 017C
ENCODING 380
SWIDTH 600 0
DWIDTH 5 0
BBX 3 7 1 0
BITMAP
40
00
E0
20
40
80
E0
ENDCHAR
STARTCHAR 017D
ENCODING 381
SWIDTH 600 0
DWIDTH 5 0
BBX 4 9 1 0
BITMAP
A0
40
E0
20
40
40
80
80
F0
ENDCHAR
STARTCHAR 017E
ENCODING 382
SWIDTH 600 0
DWIDTH 5 0
BBX 3 7 1 0
BITMAP
E0
00
E0
20
40
80
E0
ENDCHAR
STARTCHAR 018F
ENCODING 399
SWIDTH 600 0
DWIDTH 5 0
BBX 5 7 0 0
BITMAP
70
90
08
F8
88
90
70
ENDCHAR
STARTCHAR 0192
ENCODING 402
SWIDTH 600 0
DWIDTH 5 0
BBX 3 9 1 -2
BITMAP
20
40
40
E0
40
40
40
40
80
ENDCHAR
STARTCHAR 019D
ENCODING 413
SWIDTH 600 0
DWIDTH 5 0
BBX 4 9 0 -2
BITMAP
50
50
B0
B0
B0
90
90
80
80
ENDCHAR
STARTCHAR 01E6
ENCODING 486
SWIDTH 600 0
DWIDTH 5 0
BBX 5 9 0 0
BITMAP
50
20
70
48
80
98
88
48
70
ENDCHAR
STARTCHAR 01E7
ENCODING 487
SWIDTH 600 0
DWIDTH 5 0
BBX 4 9 0 -2
BITMAP
70
00
70
90
90
50
70
10
70
ENDCHAR
STARTCHAR 01EA
ENCODING 490
SWIDTH 600 0
DWIDTH 5 0
BBX 5 9 0 -2
BITMAP
70
50
88
88
88
50
70
20
20
ENDCHAR
STARTCHAR 01EB
ENCODING 491
SWIDTH 600 0
DWIDTH 5 0
BBX 5 7 0 -2
BITMAP
70
88
88
88
70
20
20
ENDCHAR
STARTCHAR 01FC
ENCODING 508
SWIDTH 600 0
DWIDTH 5 0
BBX 5 9 0 0
BITMAP
10
00
38
60
60
50
60
A0
98
ENDCHAR
STARTCHAR 01FD
ENCODING 509
SWIDTH 600 0
DWIDTH 5 0
BBX 5 7 0 0
BITMAP
20
00
78
A8
78
A0
D8
ENDCHAR
STARTCHAR 01FE
ENCODING 510
SWIDTH 600 0
DWIDTH 5 0
BBX 5 10 0 -1
BITMAP
10
08
70
90
A8
A8
A8
D0
70
80
ENDCHAR
STARTCHAR 01FF
ENCODING 511
SWIDTH 600 0
DWIDTH 5 0
BBX 5 7 0 -1
BITMAP
20
08
70
A8
A8
C8
70
ENDCHAR
STARTCHAR 0218
ENCODING 536
SWIDTH 600 0
DWIDTH 5 0
BBX 5 10 0 -3
BITMAP
70
48
40
30
08
88
70
00
20
20
ENDCHAR
STARTCHAR 0219
ENCODING 537
SWIDTH 600 0
DWIDTH 5 0
BBX 3 8 1 -3
BITMAP
E0
80
E0
20
E0
00
40
40
ENDCHAR
STARTCHAR 021A
ENCODING 538
SWIDTH 600 0
DWIDTH 5 0
BBX 5 10 0 -3
BITMAP
F8
20
20
20
20
20
20
00
20
20
ENDCHAR
STARTCHAR 021B
ENCODING 539
SWIDTH 600 0
DWIDTH 5 0
BBX 5 9 0 -3
BITMAP
40
F0
40
40
40
38
00
30
20
ENDCHAR
STARTCHAR 0232
ENCODING 562
SWIDTH 600 0
DWIDTH 5 0
BBX 5 9 0 0
BITMAP
70
00
88
50
50
20
20
20
20
ENDCHAR
STARTCHAR 0233
ENCODING 563
SWIDTH 600 0
DWIDTH 5 0
BBX 5 9 0 -2
BITMAP
70
00
88
50
50
50
20
20
40
ENDCHAR
STARTCHAR 0237
ENCODING 567
SWIDTH 600 0
DWIDTH 5 0
BBX 3 7 1 -2
BITMAP
E0
20
20
20
20
20
C0
ENDCHAR
STARTCHAR 0259
ENCODING 601
SWIDTH 600 0
DWIDTH 5 0
BBX 4 5 1 0
BITMAP
E0
10
F0
90
E0
ENDCHAR
STARTCHAR 0272
ENCODING 626
SWIDTH 600 0
DWIDTH 5 0
BBX 4 7 0 -2
BITMAP
B0
50
50
50
50
40
80
ENDCHAR
STARTCHAR 02B0
ENCODING 688
SWIDTH 600 0
DWIDTH 5 0
BBX 2 3 2 5
BITMAP
80
C0
C0
ENDCHAR
STARTCHAR 02B2
ENCODING 690
SWIDTH 600 0
DWIDTH 5 0
BBX 1 3 2 6
BITMAP
80
80
80
ENDCHAR
STARTCHAR 02B3
ENCODING 691
SWIDTH 600 0
DWIDTH 5 0
BBX 2 2 2 5
BITMAP
C0
80
ENDCHAR
STARTCHAR 02B7
ENCODING 695
SWIDTH 600 0
DWIDTH 5 0
BBX 3 2 1 4
BITMAP
E0
A0
ENDCHAR
STARTCHAR 02B8
ENCODING 696
SWIDTH 600 0
DWIDTH 5 0
BBX 3 3 1 4
BITMAP
A0
C0
40
ENDCHAR
STARTCHAR 02C6
ENCODING 710
SWIDTH 600 0
DWIDTH 5 0
BBX 3 1 1 6
BITMAP
E0
ENDCHAR
STARTCHAR 02C7
ENCODING 711
SWIDTH 600 0
DWIDTH 5 0
BBX 3 1 1 6
BITMAP
E0
ENDCHAR
STARTCHAR 02D8
ENCODING 728
SWIDTH 600 0
DWIDTH 5 0
BBX 3 2 1 5
BITMAP
A0
40
ENDCHAR
STARTCHAR 02D9
ENCODING 729
SWIDTH 600 0
DWIDTH 5 0
BBX 1 1 2 6
BITMAP
80
ENDCHAR
STARTCHAR 02DA
ENCODING 730
SWIDTH 600 0
DWIDTH 5 0
BBX 1 2 2 5
BITMAP
80
80
ENDCHAR
STARTCHAR 02DB
ENCODING 731
SWIDTH 600 0
DWIDTH 5 0
BBX 2 2 1 -2
BITMAP
80
C0
ENDCHAR
STARTCHAR 02DC
ENCODING 732
SWIDTH 600 0
DWIDTH 5 0
BBX 3 3 1 5
BITMAP
80
E0
A0
ENDCHAR
STARTCHAR 02DD
ENCODING 733
SWIDTH 600 0
DWIDTH 5 0
BBX 2 1 2 6
BITMAP
C0
ENDCHAR
STARTCHAR 02E1
ENCODING 737
SWIDTH 600 0
DWIDTH 5 0
BBX 1 3 2 5
BITMAP
80
80
80
ENDCHAR
STARTCHAR 02E2
ENCODING 738
SWIDTH 600 0
DWIDTH 5 0
BBX 3 2 1 5
BITMAP
E0
60
ENDCHAR
STARTCHAR 02E3
ENCODING 739
SWIDTH 600 0
DWIDTH 5 0
BBX 2 2 1 5
BITMAP
C0
40
ENDCHAR
STARTCHAR 0300
ENCODING 768
SWIDTH 600 0
DWIDTH 5 0
BBX 1 1 1 6
BITMAP
80
ENDCHAR
STARTCHAR 0301
ENCODING 769
SWIDTH 600 0
DWIDTH 5 0
BBX 1 1 3 6
BITMAP
80
ENDCHAR
STARTCHAR 0302
ENCODING 770
SWIDTH 600 0
DWIDTH 5 0
BBX 3 1 1 6
BITMAP
E0
ENDCHAR
STARTCHAR 0303
ENCODING 771
SWIDTH 600 0
DWIDTH 5 0
BBX 3 3 1 5
BITMAP
80
E0
A0
ENDCHAR
STARTCHAR 0304
ENCODING 772
SWIDTH 600 0
DWIDTH 5 0
BBX 3 1 1 5
BITMAP
E0
ENDCHAR
STARTCHAR 0306
ENCODING 774
SWIDTH 600 0
DWIDTH 5 0
BBX 3 2 1 5
BITMAP
A0
40
ENDCHAR
STARTCHAR 0307
ENCODING 775
SWIDTH 600 0
DWIDTH 5 0
BBX 1 1 2 6
BITMAP
80
ENDCHAR
STARTCHAR 0308
ENCODING 776
SWIDTH 600 0
DWIDTH 5 0
BBX 3 1 1 6
BITMAP
A0
ENDCHAR
STARTCHAR 030A
ENCODING 778
SWIDTH 600 0
DWIDTH 5 0
BBX 1 2 2 5
BITMAP
80
80
ENDCHAR
STARTCHAR 030B
ENCODING 779
SWIDTH 600 0
DWIDTH 5 0
BBX 2 1 2 6
BITMAP
C0
ENDCHAR
STARTCHAR 030C
ENCODING 780
SWIDTH 600 0
DWIDTH 5 0
BBX 3 1 1 6
BITMAP
E0
ENDCHAR
STARTCHAR 0323
ENCODING 803
SWIDTH 600 0
DWIDTH 5 0
BBX 1 1 2 -2
BITMAP
80
ENDCHAR
STARTCHAR 0326
ENCODING 806
SWIDTH 600 0
DWIDTH 5 0
BBX 1 2 2 -3
BITMAP
80
80
ENDCHAR
STARTCHAR 0327
ENCODING 807
SWIDTH 600 0
DWIDTH 5 0
BBX 2 2 2 -2
BITMAP
80
40
ENDCHAR
STARTCHAR 0328
ENCODING 808
SWIDTH 600 0
DWIDTH 5 0
BBX 2 2 1 -2
BITMAP
80
C0
ENDCHAR
STARTCHAR 03A9
ENCODING 937
SWIDTH 600 0
DWIDTH 5 0
BBX 5 7 0 0
BITMAP
70
88
88
88
88
50
D8
ENDCHAR
STARTCHAR 0E3F
ENCODING 3647
SWIDTH 600 0
DWIDTH 5 0
BBX 4 9 1 -1
BITMAP
40
E0
E0
E0
E0
D0
D0
E0
40
ENDCHAR
STARTCHAR 1D2C
ENCODING 7468
SWIDTH 600 0
DWIDTH 5 0
BBX 3 3 1 4
BITMAP
40
C0
A0
ENDCHAR
STARTCHAR 1D2E
ENCODING 7470
SWIDTH 600 0
DWIDTH 5 0
BBX 2 2 2 5
BITMAP
80
C0
ENDCHAR
STARTCHAR 1D30
ENCODING 7472
SWIDTH 600 0
DWIDTH 5 0
BBX 2 2 2 5
BITMAP
80
C0
ENDCHAR
STARTCHAR 1D31
ENCODING 7473
SWIDTH 600 0
DWIDTH 5 0
BBX 1 2 2 5
BITMAP
80
80
ENDCHAR
STARTCHAR 1D33
ENCODING 7475
SWIDTH 600 0
DWIDTH 5 0
BBX 2 2 2 5
BITMAP
C0
C0
ENDCHAR
STARTCHAR 1D34
ENCODING 7476
SWIDTH 600 0
DWIDTH 5 0
BBX 1 1 2 6
BITMAP
80
ENDCHAR
STARTCHAR 1D35
ENCODING 7477
SWIDTH 600 0
DWIDTH 5 0
BBX 1 2 2 5
BITMAP
80
80
ENDCHAR
STARTCHAR 1D36
ENCODING 7478
SWIDTH 600 0
DWIDTH 5 0
BBX 1 2 2 5
BITMAP
80
80
ENDCHAR
STARTCHAR 1D37
ENCODING 7479
SWIDTH 600 0
DWIDTH 5 0
BBX 1 1 2 6
BITMAP
80
ENDCHAR
STARTCHAR 1D38
ENCODING 7480
SWIDTH 600 0
DWIDTH 5 0
BBX 1 1 2 6
BITMAP
80
ENDCHAR
STARTCHAR 1D39
ENCODING 7481
SWIDTH 600 0
DWIDTH 5 0
BBX 2 2 2 5
BITMAP
C0
C0
ENDCHAR
STARTCHAR 1D3A
ENCODING 7482
SWIDTH 600 0
DWIDTH 5 0
BBX 1 2 2 4
BITMAP
80
80
ENDCHAR
STARTCHAR 1D3C
ENCODING 7484
SWIDTH 600 0
DWIDTH 5 0
BBX 2 2 2 5
BITMAP
80
C0
ENDCHAR
STARTCHAR 1D3E
ENCODING 7486
SWIDTH 600 0
DWIDTH 5 0
BBX 2 2 2 5
BITMAP
C0
80
ENDCHAR
STARTCHAR 1D3F
ENCODING 7487
SWIDTH 600 0
DWIDTH 5 0
BBX 2 2 2 5
BITMAP
C0
80
ENDCHAR
STARTCHAR 1D40
ENCODING 7488
SWIDTH 600 0
DWIDTH 5 0
BBX 1 2 2 5
BITMAP
80
80
ENDCHAR
STARTCHAR 1D41
ENCODING 7489
SWIDTH 600 0
DWIDTH 5 0
BBX 2 2 2 5
BITMAP
40
C0
ENDCHAR
STARTCHAR 1D42
ENCODING 7490
SWIDTH 600 0
DWIDTH 5 0
BBX 3 2 1 4
BITMAP
60
A0
ENDCHAR
STARTCHAR 1D43
ENCODING 7491
SWIDTH 600 0
DWIDTH 5 0
BBX 2 2 1 5
BITMAP
40
C0
ENDCHAR
STARTCHAR 1D47
ENCODING 7495
SWIDTH 600 0
DWIDTH 5 0
BBX 2 3 2 5
BITMAP
80
C0
C0
ENDCHAR
STARTCHAR 1D48
ENCODING 7496
SWIDTH 600 0
DWIDTH 5 0
BBX 3 3 1 5
BITMAP
20
E0
E0
ENDCHAR
STARTCHAR 1D49
ENCODING 7497
SWIDTH 600 0
DWIDTH 5 0
BBX 3 2 1 5
BITMAP
E0
C0
ENDCHAR
STARTCHAR 1D4D
ENCODING 7501
SWIDTH 600 0
DWIDTH 5 0
BBX 3 3 1 4
BITMAP
E0
A0
60
ENDCHAR
STARTCHAR 1D4F
ENCODING 7503
SWIDTH 600 0
DWIDTH 5 0
BBX 2 2 2 6
BITMAP
C0
80
ENDCHAR
STARTCHAR 1D50
ENCODING 7504
SWIDTH 600 0
DWIDTH 5 0
BBX 3 2 1 5
BITMAP
E0
E0
ENDCHAR
STARTCHAR 1D52
ENCODING 7506
SWIDTH 600 0
DWIDTH 5 0
BBX 3 2 1 5
BITMAP
E0
E0
ENDCHAR
STARTCHAR 1D56
ENCODING 7510
SWIDTH 600 0
DWIDTH 5 0
BBX 2 3 2 4
BITMAP
C0
C0
80
ENDCHAR
STARTCHAR 1D57
ENCODING 7511
SWIDTH 600 0
DWIDTH 5 0
BBX 1 3 2 5
BITMAP
80
80
80
ENDCHAR
STARTCHAR 1D58
ENCODING 7512
SWIDTH 600 0
DWIDTH 5 0
BBX 2 2 2 5
BITMAP
40
C0
ENDCHAR
STARTCHAR 1D5B
ENCODING 7515
SWIDTH 600 0
DWIDTH 5 0
BBX 3 3 1 4
BITMAP
A0
C0
40
ENDCHAR
STARTCHAR 1D62
ENCODING 7522
SWIDTH 600 0
DWIDTH 5 0
BBX 1 4 2 -1
BITMAP
80
00
80
80
ENDCHAR
STARTCHAR 1D63
ENCODING 7523
SWIDTH 600 0
DWIDTH 5 0
BBX 2 2 2 -1
BITMAP
C0
80
ENDCHAR
STARTCHAR 1D64
ENCODING 7524
SWIDTH 600 0
DWIDTH 5 0
BBX 2 2 2 -1
BITMAP
40
C0
ENDCHAR
STARTCHAR 1D65
ENCODING 7525
SWIDTH 600 0
DWIDTH 5 0
BBX 2 2 1 -1
BITMAP
80
40
ENDCHAR
STARTCHAR 1D9C
ENCODING 7580
SWIDTH 600 0
DWIDTH 5 0
BBX 3 2 1 5
BITMAP
E0
C0
ENDCHAR
STARTCHAR 1DA0
ENCODING 7584
SWIDTH 600 0
DWIDTH 5 0
BBX 1 3 2 5
BITMAP
80
80
80
ENDCHAR
STARTCHAR 1DBB
ENCODING 7611
SWIDTH 600 0
DWIDTH 5 0
BBX 1 2 2 5
BITMAP
80
80
ENDCHAR
STARTCHAR 1E80
ENCODING 7808
SWIDTH 600 0
DWIDTH 5 0
BBX 5 9 0 0
BITMAP
20
00
88
A8
A8
E8
F0
50
50
ENDCHAR
STARTCHAR 1E81
ENCODING 7809
SWIDTH 600 0
DWIDTH 5 0
BBX 5 7 0 0
BITMAP
20
00
88
A8
E8
D0
50
ENDCHAR
STARTCHAR 1E82
ENCODING 7810
SWIDTH 600 0
DWIDTH 5 0
BBX 5 9 0 0
BITMAP
10
00
88
A8
A8
E8
F0
50
50
ENDCHAR
STARTCHAR 1E83
ENCODING 7811
SWIDTH 600 0
DWIDTH 5 0
BBX 5 5 0 2
BITMAP
88
A8
E8
D0
50
ENDCHAR
STARTCHAR 1E84
ENCODING 7812
SWIDTH 600 0
DWIDTH 5 0
BBX 5 9 0 0
BITMAP
50
00
88
A8
A8
E8
F0
50
50
ENDCHAR
STARTCHAR 1E85
ENCODING 7813
SWIDTH 600 0
DWIDTH 5 0
BBX 5 7 0 0
BITMAP
50
00
88
A8
E8
D0
50
ENDCHAR
STARTCHAR 1E9E
ENCODING 7838
SWIDTH 600 0
DWIDTH 5 0
BBX 4 7 1 0
BITMAP
E0
A0
A0
A0
90
90
E0
ENDCHAR
STARTCHAR 1EA0
ENCODING 7840
SWIDTH 600 0
DWIDTH 5 0
BBX 5 9 0 -2
BITMAP
20
60
50
50
70
88
88
00
20
ENDCHAR
STARTCHAR 1EB8
ENCODING 7864
SWIDTH 600 0
DWIDTH 5 0
BBX 3 9 1 -2
BITMAP
E0
80
80
E0
80
80
E0
00
40
ENDCHAR
STARTCHAR 1EB9
ENCODING 7865
SWIDTH 600 0
DWIDTH 5 0
BBX 5 7 0 -2
BITMAP
70
88
F8
80
70
00
20
ENDCHAR
STARTCHAR 1EBC
ENCODING 7868
SWIDTH 600 0
DWIDTH 5 0
BBX 3 9 1 0
BITMAP
E0
00
E0
80
80
E0
80
80
E0
ENDCHAR
STARTCHAR 1EBD
ENCODING 7869
SWIDTH 600 0
DWIDTH 5 0
BBX 5 8 0 0
BITMAP
40
70
00
70
88
F8
80
70
ENDCHAR
STARTCHAR 1ECA
ENCODING 7882
SWIDTH 600 0
DWIDTH 5 0
BBX 3 9 1 -2
BITMAP
E0
40
40
40
40
40
E0
00
40
ENDCHAR
STARTCHAR 1ECB
ENCODING 7883
SWIDTH 600 0
DWIDTH 5 0
BBX 3 9 1 -2
BITMAP
40
00
C0
40
40
40
E0
00
40
ENDCHAR
STARTCHAR 1ECC
ENCODING 7884
SWIDTH 600 0
DWIDTH 5 0
BBX 5 9 0 -2
BITMAP
70
50
88
88
88
50
70
00
20
ENDCHAR
STARTCHAR 1ECD
ENCODING 7885
SWIDTH 600 0
DWIDTH 5 0
BBX 5 7 0 -2
BITMAP
70
88
88
88
70
00
20
ENDCHAR
STARTCHAR 1EE4
ENCODING 7908
SWIDTH 600 0
DWIDTH 5 0
BBX 4 9 1 -2
BITMAP
90
90
90
90
90
A0
E0
00
40
ENDCHAR
STARTCHAR 1EE5
ENCODING 7909
SWIDTH 600 0
DWIDTH 5 0
BBX 3 7 1 -2
BITMAP
A0
A0
A0
A0
E0
00
40
ENDCHAR
STARTCHAR 1EF2
ENCODING 7922
SWIDTH 600 0
DWIDTH 5 0
BBX 5 9 0 0
BITMAP
20
00
88
50
50
20
20
20
20
ENDCHAR
STARTCHAR 1EF3
ENCODING 7923
SWIDTH 600 0
DWIDTH 5 0
BBX 5 9 0 -2
BITMAP
20
00
88
50
50
50
20
20
40
ENDCHAR
STARTCHAR 1EF8
ENCODING 7928
SWIDTH 600 0
DWIDTH 5 0
BBX 5 9 0 0
BITMAP
70
00
88
50
50
20
20
20
20
ENDCHAR
STARTCHAR 1EF9
ENCODING 7929
SWIDTH 600 0
DWIDTH 5 0
BBX 5 10 0 -2
BITMAP
40
70
00
88
50
50
50
20
20
40
ENDCHAR
STARTCHAR 2010
ENCODING 8208
SWIDTH 600 0
DWIDTH 5 0
BBX 3 1 1 2
BITMAP
E0
ENDCHAR
STARTCHAR 2012
ENCODING 8210
SWIDTH 600 0
DWIDTH 5 0
BBX 3 1 1 2
BITMAP
E0
ENDCHAR
STARTCHAR 2013
ENCODING 8211
SWIDTH 600 0
DWIDTH 5 0
BBX 3 1 1 2
BITMAP
E0
ENDCHAR
STARTCHAR 2014
ENCODING 8212
SWIDTH 600 0
DWIDTH 5 0
BBX 5 1 0 2
BITMAP
F8
ENDCHAR
STARTCHAR 2015
ENCODING 8213
SWIDTH 600 0
DWIDTH 5 0
BBX 5 1 0 2
BITMAP
F8
ENDCHAR
STARTCHAR 2016
ENCODING 8214
SWIDTH 600 0
DWIDTH 5 0
BBX 3 8 1 -2
BITMAP
A0
A0
A0
A0
A0
A0
A0
A0
ENDCHAR
STARTCHAR 2017
ENCODING 8215
SWIDTH 600 0
DWIDTH 5 0
BBX 5 2 0 -3
BITMAP
F8
F8
ENDCHAR
STARTCHAR 2018
ENCODING 8216
SWIDTH 600 0
DWIDTH 5 0
BBX 1 3 2 3
BITMAP
80
80
80
ENDCHAR
STARTCHAR 2019
ENCODING 8217
SWIDTH 600 0
DWIDTH 5 0
BBX 1 3 2 4
BITMAP
80
80
80
ENDCHAR
STARTCHAR 201A
ENCODING 8218
SWIDTH 600 0
DWIDTH 5 0
BBX 1 3 2 -2
BITMAP
80
80
80
ENDCHAR
STARTCHAR 201B
ENCODING 8219
SWIDTH 600 0
DWIDTH 5 0
BBX 1 3 2 4
BITMAP
80
80
80
ENDCHAR
STARTCHAR 201C
ENCODING 8220
SWIDTH 600 0
DWIDTH 5 0
BBX 3 3 1 3
BITMAP
A0
C0
A0
ENDCHAR
STARTCHAR 201D
ENCODING 8221
SWIDTH 600 0
DWIDTH 5 0
BBX 3 3 1 4
BITMAP
A0
A0
A0
ENDCHAR
STARTCHAR 201E
ENCODING 8222
SWIDTH 600 0
DWIDTH 5 0
BBX 4 2 1 -2
BITMAP
B0
A0
ENDCHAR
STARTCHAR 201F
ENCODING 8223
SWIDTH 600 0
DWIDTH 5 0
BBX 3 3 1 4
BITMAP
A0
C0
A0
ENDCHAR
STARTCHAR 2020
ENCODING 8224
SWIDTH 600 0
DWIDTH 5 0
BBX 4 7 1 0
BITMAP
40
40
F0
40
40
40
40
ENDCHAR
STARTCHAR 2021
ENCODING 8225
SWIDTH 600 0
DWIDTH 5 0
BBX 4 8 1 -1
BITMAP
40
40
F0
40
40
F0
40
40
ENDCHAR
STARTCHAR 2022
ENCODING 8226
SWIDTH 600 0
DWIDTH 5 0
BBX 2 2 2 2
BITMAP
C0
C0
ENDCHAR
STARTCHAR 2023
ENCODING 8227
SWIDTH 600 0
DWIDTH 5 0
BBX 2 2 2 1
BITMAP
80
C0
ENDCHAR
STARTCHAR 2024
ENCODING 8228
SWIDTH 600 0
DWIDTH 5 0
BBX 1 1 2 0
BITMAP
80
ENDCHAR
STARTCHAR 2026
ENCODING 8230
SWIDTH 600 0
DWIDTH 5 0
BBX 5 1 0 0
BITMAP
A8
ENDCHAR
STARTCHAR 2030
ENCODING 8240
SWIDTH 600 0
DWIDTH 5 0
BBX 5 7 0 0
BITMAP
C0
C0
10
60
00
F8
D8
ENDCHAR
STARTCHAR 2032
ENCODING 8242
SWIDTH 600 0
DWIDTH 5 0
BBX 1 2 2 4
BITMAP
80
80
ENDCHAR
STARTCHAR 2033
ENCODING 8243
SWIDTH 600 0
DWIDTH 5 0
BBX 3 3 1 4
BITMAP
A0
A0
20
ENDCHAR
STARTCHAR 2034
ENCODING 8244
SWIDTH 600 0
DWIDTH 5 0
BBX 5 3 0 4
BITMAP
A8
A8
28
ENDCHAR
STARTCHAR 2035
ENCODING 8245
SWIDTH 600 0
DWIDTH 5 0
BBX 1 2 2 4
BITMAP
80
80
ENDCHAR
STARTCHAR 2039
ENCODING 8249
SWIDTH 600 0
DWIDTH 5 0
BBX 3 5 1 0
BITMAP
20
40
80
40
20
ENDCHAR
STARTCHAR 203A
ENCODING 8250
SWIDTH 600 0
DWIDTH 5 0
BBX 2 5 2 0
BITMAP
80
80
40
80
80
ENDCHAR
STARTCHAR 203C
ENCODING 8252
SWIDTH 600 0
DWIDTH 5 0
BBX 3 7 1 0
BITMAP
A0
A0
A0
A0
00
00
A0
ENDCHAR
STARTCHAR 203D
ENCODING 8253
SWIDTH 600 0
DWIDTH 5 0
BBX 3 7 1 0
BITMAP
E0
20
60
40
00
00
40
ENDCHAR
STARTCHAR 203E
ENCODING 8254
SWIDTH 600 0
DWIDTH 5 0
BBX 5 1 0 7
BITMAP
F8
ENDCHAR
STARTCHAR 203F
ENCODING 8255
SWIDTH 600 0
DWIDTH 5 0
BBX 5 1 0 -1
BITMAP
F8
ENDCHAR
STARTCHAR 2040
ENCODING 8256
SWIDTH 600 0
DWIDTH 5 0
BBX 5 2 0 6
BITMAP
78
80
ENDCHAR
STARTCHAR 2044
ENCODING 8260
SWIDTH 600 0
DWIDTH 5 0
BBX 3 3 1 1
BITMAP
20
40
80
ENDCHAR
STARTCHAR 2045
ENCODING 8261
SWIDTH 600 0
DWIDTH 5 0
BBX 3 9 1 -2
BITMAP
E0
80
80
80
E0
80
80
80
E0
ENDCHAR
STARTCHAR 2046
ENCODING 8262
SWIDTH 600 0
DWIDTH 5 0
BBX 3 8 1 -2
BITMAP
E0
20
20
20
E0
20
20
E0
ENDCHAR
STARTCHAR 2047
ENCODING 8263
SWIDTH 600 0
DWIDTH 5 0
BBX 5 7 0 0
BITMAP
D8
C8
48
50
00
00
50
ENDCHAR
STARTCHAR 2048
ENCODING 8264
SWIDTH 600 0
DWIDTH 5 0
BBX 5 7 0 0
BITMAP
68
A8
28
48
00
00
48
ENDCHAR
STARTCHAR 2049
ENCODING 8265
SWIDTH 600 0
DWIDTH 5 0
BBX 5 7 0 0
BITMAP
B8
A8
88
90
00
00
90
ENDCHAR
STARTCHAR 205F
ENCODING 8287
SWIDTH 600 0
DWIDTH 5 0
BBX 0 0 0 0
BITMAP
ENDCHAR
STARTCHAR 2062
ENCODING 8290
SWIDTH 600 0
DWIDTH 5 0
BBX 0 0 0 0
BITMAP
ENDCHAR
STARTCHAR 2063
ENCODING 8291
SWIDTH 600 0
DWIDTH 5 0
BBX 0 0 0 0
BITMAP
ENDCHAR
STARTCHAR 2064
ENCODING 8292
SWIDTH 600 0
DWIDTH 5 0
BBX 0 0 0 0
BITMAP
ENDCHAR
STARTCHAR 2070
ENCODING 8304
SWIDTH 600 0
DWIDTH 5 0
BBX 2 2 2 5
BITMAP
80
C0
ENDCHAR
STARTCHAR 2071
ENCODING 8305
SWIDTH 600 0
DWIDTH 5 0
BBX 1 4 2 5
BITMAP
80
00
80
80
ENDCHAR
STARTCHAR 2074
ENCODING 8308
SWIDTH 600 0
DWIDTH 5 0
BBX 1 1 2 5
BITMAP
80
ENDCHAR
STARTCHAR 2075
ENCODING 8309
SWIDTH 600 0
DWIDTH 5 0
BBX 2 1 2 6
BITMAP
C0
ENDCHAR
STARTCHAR 2076
ENCODING 8310
SWIDTH 600 0
DWIDTH 5 0
BBX 2 2 2 5
BITMAP
C0
C0
ENDCHAR
STARTCHAR 2077
ENCODING 8311
SWIDTH 600 0
DWIDTH 5 0
BBX 1 2 2 5
BITMAP
80
80
ENDCHAR
STARTCHAR 2078
ENCODING 8312
SWIDTH 600 0
DWIDTH 5 0
BBX 2 2 2 5
BITMAP
C0
C0
ENDCHAR
STARTCHAR 2079
ENCODING 8313
SWIDTH 600 0
DWIDTH 5 0
BBX 2 2 2 5
BITMAP
80
40
ENDCHAR
STARTCHAR 207A
ENCODING 8314
SWIDTH 600 0
DWIDTH 5 0
BBX 2 2 2 5
BITMAP
80
C0
ENDCHAR
STARTCHAR 207B
ENCODING 8315
SWIDTH 600 0
DWIDTH 5 0
BBX 2 1 2 5
BITMAP
C0
ENDCHAR
STARTCHAR 207C
ENCODING 8316
SWIDTH 600 0
DWIDTH 5 0
BBX 0 0 2 5
BITMAP
ENDCHAR
STARTCHAR 207D
ENCODING 8317
SWIDTH 600 0
DWIDTH 5 0
BBX 1 3 2 4
BITMAP
80
80
80
ENDCHAR
STARTCHAR 207E
ENCODING 8318
SWIDTH 600 0
DWIDTH 5 0
BBX 1 3 2 4
BITMAP
80
80
80
ENDCHAR
STARTCHAR 207F
ENCODING 8319
SWIDTH 600 0
DWIDTH 5 0
BBX 2 2 2 5
BITMAP
C0
C0
ENDCHAR
STARTCHAR 2080
ENCODING 8320
SWIDTH 600 0
DWIDTH 5 0
BBX 2 2 2 -1
BITMAP
C0
C0
ENDCHAR
STARTCHAR 2081
ENCODING 8321
SWIDTH 600 0
DWIDTH 5 0
BBX 1 2 2 -1
BITMAP
80
80
ENDCHAR
STARTCHAR 2082
ENCODING 8322
SWIDTH 600 0
DWIDTH 5 0
BBX 1 2 2 -1
BITMAP
80
80
ENDCHAR
STARTCHAR 2083
ENCODING 8323
SWIDTH 600 0
DWIDTH 5 0
BBX 1 2 2 -1
BITMAP
80
80
ENDCHAR
STARTCHAR 2084
ENCODING 8324
SWIDTH 600 0
DWIDTH 5 0
BBX 1 1 2 -1
BITMAP
80
ENDCHAR
STARTCHAR 2085
ENCODING 8325
SWIDTH 600 0
DWIDTH 5 0
BBX 2 1 2 0
BITMAP
C0
ENDCHAR
STARTCHAR 2086
ENCODING 8326
SWIDTH 600 0
DWIDTH 5 0
BBX 2 2 2 -1
BITMAP
80
C0
ENDCHAR
STARTCHAR 2087
ENCODING 8327
SWIDTH 600 0
DWIDTH 5 0
BBX 1 2 2 -1
BITMAP
80
80
ENDCHAR
STARTCHAR 2088
ENCODING 8328
SWIDTH 600 0
DWIDTH 5 0
BBX 2 2 2 -1
BITMAP
C0
C0
ENDCHAR
STARTCHAR 2089
ENCODING 8329
SWIDTH 600 0
DWIDTH 5 0
BBX 1 2 2 -1
BITMAP
80
80
ENDCHAR
STARTCHAR 208A
ENCODING 8330
SWIDTH 600 0
DWIDTH 5 0
BBX 1 2 2 -1
BITMAP
80
80
ENDCHAR
STARTCHAR 208B
ENCODING 8331
SWIDTH 600 0
DWIDTH 5 0
BBX 0 0 2 0
BITMAP
ENDCHAR
STARTCHAR 208C
ENCODING 8332
SWIDTH 600 0
DWIDTH 5 0
BBX 2 1 2 -1
BITMAP
C0
ENDCHAR
STARTCHAR 208D
ENCODING 8333
SWIDTH 600 0
DWIDTH 5 0
BBX 1 3 2 -2
BITMAP
80
80
80
ENDCHAR
STARTCHAR 208E
ENCODING 8334
SWIDTH 600 0
DWIDTH 5 0
BBX 1 3 2 -2
BITMAP
80
80
80
ENDCHAR
STARTCHAR 2090
ENCODING 8336
SWIDTH 600 0
DWIDTH 5 0
BBX 2 2 1 -1
BITMAP
C0
C0
ENDCHAR
STARTCHAR 2091
ENCODING 8337
SWIDTH 600 0
DWIDTH 5 0
BBX 3 2 1 -1
BITMAP
E0
E0
ENDCHAR
STARTCHAR 2092
ENCODING 8338
SWIDTH 600 0
DWIDTH 5 0
BBX 3 2 1 -1
BITMAP
E0
E0
ENDCHAR
STARTCHAR 2093
ENCODING 8339
SWIDTH 600 0
DWIDTH 5 0
BBX 2 2 1 -1
BITMAP
C0
C0
ENDCHAR
STARTCHAR 2094
ENCODING 8340
SWIDTH 600 0
DWIDTH 5 0
BBX 3 2 1 -1
BITMAP
60
E0
ENDCHAR
STARTCHAR 2095
ENCODING 8341
SWIDTH 600 0
DWIDTH 5 0
BBX 2 3 2 -1
BITMAP
80
C0
C0
ENDCHAR
STARTCHAR 2096
ENCODING 8342
SWIDTH 600 0
DWIDTH 5 0
BBX 1 3 2 -1
BITMAP
80
80
80
ENDCHAR
STARTCHAR 2097
ENCODING 8343
SWIDTH 600 0
DWIDTH 5 0
BBX 1 3 2 -1
BITMAP
80
80
80
ENDCHAR
STARTCHAR 2098
ENCODING 8344
SWIDTH 600 0
DWIDTH 5 0
BBX 3 2 1 -1
BITMAP
E0
E0
ENDCHAR
STARTCHAR 2099
ENCODING 8345
SWIDTH 600 0
DWIDTH 5 0
BBX 2 2 2 -1
BITMAP
C0
C0
ENDCHAR
STARTCHAR 209A
ENCODING 8346
SWIDTH 600 0
DWIDTH 5 0
BBX 2 3 2 -2
BITMAP
C0
C0
80
ENDCHAR
STARTCHAR 209B
ENCODING 8347
SWIDTH 600 0
DWIDTH 5 0
BBX 3 2 1 -1
BITMAP
C0
60
ENDCHAR
STARTCHAR 209C
ENCODING 8348
SWIDTH 600 0
DWIDTH 5 0
BBX 1 3 2 -1
BITMAP
80
80
80
ENDCHAR
STARTCHAR 209D
ENCODING 8349
SWIDTH 600 0
DWIDTH 5 0
BBX 3 2 1 -1
BITMAP
E0
A0
ENDCHAR
STARTCHAR 209E
ENCODING 8350
SWIDTH 600 0
DWIDTH 5 0
BBX 3 3 1 -2
BITMAP
A0
40
40
ENDCHAR
STARTCHAR 209F
ENCODING 8351
SWIDTH 600 0
DWIDTH 5 0
BBX 2 2 1 -1
BITMAP
40
C0
ENDCHAR
STARTCHAR 20A1
ENCODING 8353
SWIDTH 600 0
DWIDTH 5 0
BBX 5 7 0 0
BITMAP
70
50
90
B0
B0
60
78
ENDCHAR
STARTCHAR 20A3
ENCODING 8355
SWIDTH 600 0
DWIDTH 5 0
BBX 5 7 0 0
BITMAP
78
40
40
70
40
E0
40
ENDCHAR
STARTCHAR 20A4
ENCODING 8356
SWIDTH 600 0
DWIDTH 5 0
BBX 4 7 1 0
BITMAP
E0
90
80
C0
80
80
F0
ENDCHAR
STARTCHAR 20A6
ENCODING 8358
SWIDTH 600 0
DWIDTH 5 0
BBX 5 7 0 0
BITMAP
50
50
70
70
F8
50
50
ENDCHAR
STARTCHAR 20A7
ENCODING 8359
SWIDTH 600 0
DWIDTH 5 0
BBX 5 7 0 0
BITMAP
70
50
F8
50
60
40
40
ENDCHAR
STARTCHAR 20A9
ENCODING 8361
SWIDTH 600 0
DWIDTH 5 0
BBX 5 7 0 0
BITMAP
88
A8
B0
F8
70
50
50
ENDCHAR
STARTCHAR 20AA
ENCODING 8362
SWIDTH 600 0
DWIDTH 5 0
BBX 5 7 0 0
BITMAP
E8
98
D8
D8
D8
D8
B0
ENDCHAR
STARTCHAR 20AB
ENCODING 8363
SWIDTH 600 0
DWIDTH 5 0
BBX 4 7 1 0
BITMAP
30
20
E0
A0
A0
C0
E0
ENDCHAR
STARTCHAR 20AC
ENCODING 8364
SWIDTH 600 0
DWIDTH 5 0
BBX 4 7 0 0
BITMAP
30
40
F0
40
E0
40
30
ENDCHAR
STARTCHAR 20AE
ENCODING 8366
SWIDTH 600 0
DWIDTH 5 0
BBX 5 7 0 0
BITMAP
F8
20
30
60
70
20
20
ENDCHAR
STARTCHAR 20B1
ENCODING 8369
SWIDTH 600 0
DWIDTH 5 0
BBX 5 7 0 0
BITMAP
70
50
70
F8
60
40
40
ENDCHAR
STARTCHAR 20B2
ENCODING 8370
SWIDTH 600 0
DWIDTH 5 0
BBX 5 7 0 0
BITMAP
70
68
A0
B8
A8
68
70
ENDCHAR
STARTCHAR 20B4
ENCODING 8372
SWIDTH 600 0
DWIDTH 5 0
BBX 5 7 0 0
BITMAP
70
10
10
60
F8
88
70
ENDCHAR
STARTCHAR 20B5
ENCODING 8373
SWIDTH 600 0
DWIDTH 5 0
BBX 5 9 0 -1
BITMAP
20
70
68
A0
A0
A0
68
70
20
ENDCHAR
STARTCHAR 20B8
ENCODING 8376
SWIDTH 600 0
DWIDTH 5 0
BBX 5 7 0 0
BITMAP
F8
00
F8
20
20
20
20
ENDCHAR
STARTCHAR 20B9
ENCODING 8377
SWIDTH 600 0
DWIDTH 5 0
BBX 5 7 0 0
BITMAP
F8
F8
10
E0
40
20
10
ENDCHAR
STARTCHAR 20BA
ENCODING 8378
SWIDTH 600 0
DWIDTH 5 0
BBX 5 7 0 0
BITMAP
40
60
C0
60
48
50
70
ENDCHAR
STARTCHAR 20BD
ENCODING 8381
SWIDTH 600 0
DWIDTH 5 0
BBX 5 7 0 0
BITMAP
70
48
48
F0
40
F0
40
ENDCHAR
STARTCHAR 20BF
ENCODING 8383
SWIDTH 600 0
DWIDTH 5 0
BBX 4 9 1 -1
BITMAP
A0
E0
A0
A0
E0
90
90
E0
A0
ENDCHAR
STARTCHAR 2100
ENCODING 8448
SWIDTH 600 0
DWIDTH 5 0
BBX 5 7 0 0
BITMAP
C0
C0
D0
20
40
38
38
ENDCHAR
STARTCHAR 2101
ENCODING 8449
SWIDTH 600 0
DWIDTH 5 0
BBX 5 7 0 0
BITMAP
C0
C0
D0
20
40
30
18
ENDCHAR
STARTCHAR 2102
ENCODING 8450
SWIDTH 600 0
DWIDTH 5 0
BBX 5 7 0 0
BITMAP
70
C8
C0
C0
C0
C8
70
ENDCHAR
STARTCHAR 2103
ENCODING 8451
SWIDTH 600 0
DWIDTH 5 0
BBX 5 7 0 0
BITMAP
D8
E8
20
20
20
28
18
ENDCHAR
STARTCHAR 2104
ENCODING 8452
SWIDTH 600 0
DWIDTH 5 0
BBX 3 8 1 -1
BITMAP
40
40
E0
C0
C0
E0
40
60
ENDCHAR
STARTCHAR 2105
ENCODING 8453
SWIDTH 600 0
DWIDTH 5 0
BBX 5 7 0 0
BITMAP
80
80
10
20
40
38
18
ENDCHAR
STARTCHAR 2106
ENCODING 8454
SWIDTH 600 0
DWIDTH 5 0
BBX 5 6 0 0
BITMAP
80
80
30
40
28
28
ENDCHAR
STARTCHAR 2109
ENCODING 8457
SWIDTH 600 0
DWIDTH 5 0
BBX 5 7 0 0
BITMAP
F8
E0
20
30
20
20
20
ENDCHAR
STARTCHAR 2113
ENCODING 8467
SWIDTH 600 0
DWIDTH 5 0
BBX 4 7 0 0
BITMAP
30
50
50
50
60
C0
30
ENDCHAR
STARTCHAR 2115
ENCODING 8469
SWIDTH 600 0
DWIDTH 5 0
BBX 3 7 1 0
BITMAP
A0
A0
E0
E0
E0
E0
A0
ENDCHAR
STARTCHAR 2116
ENCODING 8470
SWIDTH 600 0
DWIDTH 5 0
BBX 5 7 0 0
BITMAP
B8
B8
F8
E8
A0
A8
A0
ENDCHAR
STARTCHAR 2117
ENCODING 8471
SWIDTH 600 0
DWIDTH 5 0
BBX 5 4 0 1
BITMAP
F8
F8
E8
F8
ENDCHAR
STARTCHAR 211A
ENCODING 8474
SWIDTH 600 0
DWIDTH 5 0
BBX 5 8 0 -1
BITMAP
70
D0
C8
C8
C8
D0
50
20
ENDCHAR
STARTCHAR 211D
ENCODING 8477
SWIDTH 600 0
DWIDTH 5 0
BBX 4 7 1 0
BITMAP
E0
90
90
A0
E0
A0
90
ENDCHAR
STARTCHAR 2120
ENCODING 8480
SWIDTH 600 0
DWIDTH 5 0
BBX 5 3 0 4
BITMAP
E8
78
E8
ENDCHAR
STARTCHAR 2122
ENCODING 8482
SWIDTH 600 0
DWIDTH 5 0
BBX 5 3 0 4
BITMAP
A8
B8
28
ENDCHAR
STARTCHAR 2124
ENCODING 8484
SWIDTH 600 0
DWIDTH 5 0
BBX 4 7 1 0
BITMAP
F0
60
60
C0
C0
C0
E0
ENDCHAR
STARTCHAR 2126
ENCODING 8486
SWIDTH 600 0
DWIDTH 5 0
BBX 5 7 0 0
BITMAP
70
88
88
88
88
50
D8
ENDCHAR
STARTCHAR 2127
ENCODING 8487
SWIDTH 600 0
DWIDTH 5 0
BBX 5 7 0 0
BITMAP
D8
50
90
88
88
88
70
ENDCHAR
STARTCHAR 212A
ENCODING 8490
SWIDTH 600 0
DWIDTH 5 0
BBX 5 7 0 0
BITMAP
E8
E8
30
30
30
28
28
ENDCHAR
STARTCHAR 212E
ENCODING 8494
SWIDTH 600 0
DWIDTH 5 0
BBX 5 7 0 0
BITMAP
70
48
C8
F0
C0
48
70
ENDCHAR
STARTCHAR 2139
ENCODING 8505
SWIDTH 600 0
DWIDTH 5 0
BBX 3 7 1 0
BITMAP
40
00
C0
40
40
40
E0
ENDCHAR
STARTCHAR 2140
ENCODING 8512
SWIDTH 600 0
DWIDTH 5 0
BBX 3 9 1 -2
BITMAP
E0
C0
C0
A0
60
A0
C0
C0
E0
ENDCHAR
STARTCHAR 2141
ENCODING 8513
SWIDTH 600 0
DWIDTH 5 0
BBX 5 7 0 0
BITMAP
70
90
88
C8
08
90
70
ENDCHAR
STARTCHAR 2142
ENCODING 8514
SWIDTH 600 0
DWIDTH 5 0
BBX 3 7 1 0
BITMAP
E0
20
20
20
20
20
20
ENDCHAR
STARTCHAR 2143
ENCODING 8515
SWIDTH 600 0
DWIDTH 5 0
BBX 3 7 1 0
BITMAP
20
20
20
20
20
20
E0
ENDCHAR
STARTCHAR 2144
ENCODING 8516
SWIDTH 600 0
DWIDTH 5 0
BBX 5 7 0 0
BITMAP
20
20
20
20
50
50
88
ENDCHAR
STARTCHAR 214B
ENCODING 8523
SWIDTH 600 0
DWIDTH 5 0
BBX 5 7 0 0
BITMAP
B0
48
68
B0
10
10
70
ENDCHAR
STARTCHAR 214D
ENCODING 8525
SWIDTH 600 0
DWIDTH 5 0
BBX 5 7 0 0
BITMAP
40
C0
90
20
40
10
08
ENDCHAR
STARTCHAR 2153
ENCODING 8531
SWIDTH 600 0
DWIDTH 5 0
BBX 4 7 1 0
BITMAP
80
80
20
40
80
30
10
ENDCHAR
STARTCHAR 2154
ENCODING 8532
SWIDTH 600 0
DWIDTH 5 0
BBX 5 7 0 0
BITMAP
C0
40
10
20
40
18
08
ENDCHAR
STARTCHAR 215B
ENCODING 8539
SWIDTH 600 0
DWIDTH 5 0
BBX 4 7 1 0
BITMAP
80
80
20
40
80
30
70
ENDCHAR
STARTCHAR 215C
ENCODING 8540
SWIDTH 600 0
DWIDTH 5 0
BBX 5 7 0 0
BITMAP
C0
40
10
20
40
18
38
ENDCHAR
STARTCHAR 215D
ENCODING 8541
SWIDTH 600 0
DWIDTH 5 0
BBX 4 6 1 1
BITMAP
80
20
40
B0
30
70
ENDCHAR
STARTCHAR 215E
ENCODING 8542
SWIDTH 600 0
DWIDTH 5 0
BBX 4 6 1 0
BITMAP
80
80
20
C0
30
70
ENDCHAR
STARTCHAR 2190
ENCODING 8592
SWIDTH 600 0
DWIDTH 5 0
BBX 4 4 1 1
BITMAP
40
F0
80
40
ENDCHAR
STARTCHAR 2191
ENCODING 8593
SWIDTH 600 0
DWIDTH 5 0
BBX 3 4 1 1
BITMAP
40
E0
40
40
ENDCHAR
STARTCHAR 2192
ENCODING 8594
SWIDTH 600 0
DWIDTH 5 0
BBX 4 4 1 1
BITMAP
20
F0
20
40
ENDCHAR
STARTCHAR 2193
ENCODING 8595
SWIDTH 600 0
DWIDTH 5 0
BBX 3 4 1 1
BITMAP
40
40
E0
40
ENDCHAR
STARTCHAR 2194
ENCODING 8596
SWIDTH 600 0
DWIDTH 5 0
BBX 5 3 0 2
BITMAP
50
F8
50
ENDCHAR
STARTCHAR 2195
ENCODING 8597
SWIDTH 600 0
DWIDTH 5 0
BBX 3 5 1 1
BITMAP
40
E0
40
E0
40
ENDCHAR
STARTCHAR 2196
ENCODING 8598
SWIDTH 600 0
DWIDTH 5 0
BBX 3 3 1 1
BITMAP
E0
C0
A0
ENDCHAR
STARTCHAR 2197
ENCODING 8599
SWIDTH 600 0
DWIDTH 5 0
BBX 3 3 1 1
BITMAP
E0
60
A0
ENDCHAR
STARTCHAR 2198
ENCODING 8600
SWIDTH 600 0
DWIDTH 5 0
BBX 3 3 1 2
BITMAP
A0
60
E0
ENDCHAR
STARTCHAR 2199
ENCODING 8601
SWIDTH 600 0
DWIDTH 5 0
BBX 3 3 1 2
BITMAP
A0
C0
E0
ENDCHAR
STARTCHAR 219C
ENCODING 8604
SWIDTH 600 0
DWIDTH 5 0
BBX 5 3 0 1
BITMAP
F8
E8
80
ENDCHAR
STARTCHAR 219D
ENCODING 8605
SWIDTH 600 0
DWIDTH 5 0
BBX 5 3 0 1
BITMAP
58
D8
A8
ENDCHAR
STARTCHAR 219E
ENCODING 8606
SWIDTH 600 0
DWIDTH 5 0
BBX 5 3 0 2
BITMAP
50
F8
60
ENDCHAR
STARTCHAR 219F
ENCODING 8607
SWIDTH 600 0
DWIDTH 5 0
BBX 3 5 1 1
BITMAP
40
E0
40
E0
40
ENDCHAR
STARTCHAR 21A0
ENCODING 8608
SWIDTH 600 0
DWIDTH 5 0
BBX 5 3 0 2
BITMAP
10
F8
30
ENDCHAR
STARTCHAR 21A1
ENCODING 8609
SWIDTH 600 0
DWIDTH 5 0
BBX 3 5 1 0
BITMAP
40
E0
40
E0
40
ENDCHAR
STARTCHAR 21A2
ENCODING 8610
SWIDTH 600 0
DWIDTH 5 0
BBX 5 3 0 1
BITMAP
48
F0
48
ENDCHAR
STARTCHAR 21A3
ENCODING 8611
SWIDTH 600 0
DWIDTH 5 0
BBX 5 3 0 2
BITMAP
90
78
90
ENDCHAR
STARTCHAR 21A4
ENCODING 8612
SWIDTH 600 0
DWIDTH 5 0
BBX 5 3 0 2
BITMAP
48
F8
48
ENDCHAR
STARTCHAR 21A5
ENCODING 8613
SWIDTH 600 0
DWIDTH 5 0
BBX 3 4 1 1
BITMAP
40
E0
40
E0
ENDCHAR
STARTCHAR 21A6
ENCODING 8614
SWIDTH 600 0
DWIDTH 5 0
BBX 4 3 1 2
BITMAP
20
F0
A0
ENDCHAR
STARTCHAR 21A7
ENCODING 8615
SWIDTH 600 0
DWIDTH 5 0
BBX 3 4 1 1
BITMAP
E0
40
C0
60
ENDCHAR
STARTCHAR 21A9
ENCODING 8617
SWIDTH 600 0
DWIDTH 5 0
BBX 4 6 1 0
BITMAP
E0
10
50
90
E0
40
ENDCHAR
STARTCHAR 21AA
ENCODING 8618
SWIDTH 600 0
DWIDTH 5 0
BBX 4 6 1 0
BITMAP
E0
80
80
A0
F0
40
ENDCHAR
STARTCHAR 21B0
ENCODING 8624
SWIDTH 600 0
DWIDTH 5 0
BBX 5 4 0 1
BITMAP
40
F8
48
08
ENDCHAR
STARTCHAR 21B1
ENCODING 8625
SWIDTH 600 0
DWIDTH 5 0
BBX 5 4 0 1
BITMAP
10
F8
90
80
ENDCHAR
STARTCHAR 21B2
ENCODING 8626
SWIDTH 600 0
DWIDTH 5 0
BBX 5 4 0 1
BITMAP
08
48
F8
40
ENDCHAR
STARTCHAR 21B3
ENCODING 8627
SWIDTH 600 0
DWIDTH 5 0
BBX 5 4 0 0
BITMAP
80
90
F8
10
ENDCHAR
STARTCHAR 21B4
ENCODING 8628
SWIDTH 600 0
DWIDTH 5 0
BBX 5 4 0 1
BITMAP
E0
20
68
30
ENDCHAR
STARTCHAR 21B5
ENCODING 8629
SWIDTH 600 0
DWIDTH 5 0
BBX 5 5 0 1
BITMAP
08
08
48
F8
40
ENDCHAR
STARTCHAR 21BA
ENCODING 8634
SWIDTH 600 0
DWIDTH 5 0
BBX 5 6 0 0
BITMAP
38
30
A8
88
88
70
ENDCHAR
STARTCHAR 21BB
ENCODING 8635
SWIDTH 600 0
DWIDTH 5 0
BBX 5 6 0 0
BITMAP
E0
60
A8
88
88
70
ENDCHAR
STARTCHAR 21C4
ENCODING 8644
SWIDTH 600 0
DWIDTH 5 0
BBX 5 6 0 1
BITMAP
F0
10
10
40
F8
40
ENDCHAR
STARTCHAR 21C5
ENCODING 8645
SWIDTH 600 0
DWIDTH 5 0
BBX 5 5 0 1
BITMAP
50
F0
50
58
50
ENDCHAR
STARTCHAR 21C6
ENCODING 8646
SWIDTH 600 0
DWIDTH 5 0
BBX 5 7 0 0
BITMAP
40
78
40
50
10
F8
10
ENDCHAR
STARTCHAR 21D0
ENCODING 8656
SWIDTH 600 0
DWIDTH 5 0
BBX 4 4 1 1
BITMAP
40
F0
F0
40
ENDCHAR
STARTCHAR 21D1
ENCODING 8657
SWIDTH 600 0
DWIDTH 5 0
BBX 3 4 1 1
BITMAP
40
A0
A0
A0
ENDCHAR
STARTCHAR 21D2
ENCODING 8658
SWIDTH 600 0
DWIDTH 5 0
BBX 3 4 1 1
BITMAP
40
E0
E0
40
ENDCHAR
STARTCHAR 21D3
ENCODING 8659
SWIDTH 600 0
DWIDTH 5 0
BBX 3 4 1 1
BITMAP
A0
A0
A0
40
ENDCHAR
STARTCHAR 21D4
ENCODING 8660
SWIDTH 600 0
DWIDTH 5 0
BBX 5 4 0 1
BITMAP
50
F8
F8
50
ENDCHAR
STARTCHAR 21D5
ENCODING 8661
SWIDTH 600 0
DWIDTH 5 0
BBX 3 5 1 1
BITMAP
40
A0
C0
C0
60
ENDCHAR
STARTCHAR 21D6
ENCODING 8662
SWIDTH 600 0
DWIDTH 5 0
BBX 3 4 1 1
BITMAP
E0
C0
E0
20
ENDCHAR
STARTCHAR 21D7
ENCODING 8663
SWIDTH 600 0
DWIDTH 5 0
BBX 4 4 0 1
BITMAP
70
50
B0
40
ENDCHAR
STARTCHAR 21D8
ENCODING 8664
SWIDTH 600 0
DWIDTH 5 0
BBX 4 4 0 1
BITMAP
40
B0
50
70
ENDCHAR
STARTCHAR 21D9
ENCODING 8665
SWIDTH 600 0
DWIDTH 5 0
BBX 3 4 1 1
BITMAP
20
E0
C0
E0
ENDCHAR
STARTCHAR 21DA
ENCODING 8666
SWIDTH 600 0
DWIDTH 5 0
BBX 4 5 1 0
BITMAP
40
F0
F0
F0
40
ENDCHAR
STARTCHAR 21DB
ENCODING 8667
SWIDTH 600 0
DWIDTH 5 0
BBX 2 4 2 1
BITMAP
80
40
C0
80
ENDCHAR
STARTCHAR 21E6
ENCODING 8678
SWIDTH 600 0
DWIDTH 5 0
BBX 5 4 0 1
BITMAP
20
D8
88
70
ENDCHAR
STARTCHAR 21E7
ENCODING 8679
SWIDTH 600 0
DWIDTH 5 0
BBX 5 5 0 1
BITMAP
20
50
88
50
70
ENDCHAR
STARTCHAR 21E8
ENCODING 8680
SWIDTH 600 0
DWIDTH 5 0
BBX 5 6 0 0
BITMAP
20
30
C8
88
70
20
ENDCHAR
STARTCHAR 21E9
ENCODING 8681
SWIDTH 600 0
DWIDTH 5 0
BBX 5 5 0 0
BITMAP
70
50
88
50
20
ENDCHAR
STARTCHAR 21F3
ENCODING 8691
SWIDTH 600 0
DWIDTH 5 0
BBX 3 6 1 1
BITMAP
E0
C0
C0
C0
A0
40
ENDCHAR
STARTCHAR 21F5
ENCODING 8693
SWIDTH 600 0
DWIDTH 5 0
BBX 5 5 0 1
BITMAP
50
78
50
F0
50
ENDCHAR
STARTCHAR 2200
ENCODING 8704
SWIDTH 600 0
DWIDTH 5 0
BBX 5 7 0 0
BITMAP
88
88
70
50
50
60
20
ENDCHAR
STARTCHAR 2201
ENCODING 8705
SWIDTH 600 0
DWIDTH 5 0
BBX 3 5 1 0
BITMAP
E0
80
80
80
E0
ENDCHAR
STARTCHAR 2202
ENCODING 8706
SWIDTH 600 0
DWIDTH 5 0
BBX 4 7 1 0
BITMAP
E0
10
50
B0
90
A0
E0
ENDCHAR
STARTCHAR 2203
ENCODING 8707
SWIDTH 600 0
DWIDTH 5 0
BBX 3 7 1 0
BITMAP
E0
20
20
E0
20
20
E0
ENDCHAR
STARTCHAR 2204
ENCODING 8708
SWIDTH 600 0
DWIDTH 5 0
BBX 3 9 1 -1
BITMAP
20
E0
60
60
E0
A0
A0
E0
80
ENDCHAR
STARTCHAR 2205
ENCODING 8709
SWIDTH 600 0
DWIDTH 5 0
BBX 5 4 0 1
BITMAP
70
A8
C8
70
ENDCHAR
STARTCHAR 2206
ENCODING 8710
SWIDTH 600 0
DWIDTH 5 0
BBX 4 7 1 0
BITMAP
40
40
A0
A0
A0
A0
F0
ENDCHAR
STARTCHAR 2207
ENCODING 8711
SWIDTH 600 0
DWIDTH 5 0
BBX 4 7 1 0
BITMAP
F0
A0
A0
A0
A0
40
40
ENDCHAR
STARTCHAR 2208
ENCODING 8712
SWIDTH 600 0
DWIDTH 5 0
BBX 3 5 1 0
BITMAP
E0
80
E0
80
E0
ENDCHAR
STARTCHAR 2209
ENCODING 8713
SWIDTH 600 0
DWIDTH 5 0
BBX 3 6 1 -1
BITMAP
20
E0
C0
E0
C0
E0
ENDCHAR
STARTCHAR 220A
ENCODING 8714
SWIDTH 600 0
DWIDTH 5 0
BBX 3 3 1 1
BITMAP
C0
E0
C0
ENDCHAR
STARTCHAR 220B
ENCODING 8715
SWIDTH 600 0
DWIDTH 5 0
BBX 3 5 1 0
BITMAP
C0
20
E0
20
E0
ENDCHAR
STARTCHAR 220C
ENCODING 8716
SWIDTH 600 0
DWIDTH 5 0
BBX 3 7 1 -1
BITMAP
20
E0
60
E0
A0
E0
80
ENDCHAR
STARTCHAR 220D
ENCODING 8717
SWIDTH 600 0
DWIDTH 5 0
BBX 3 4 1 1
BITMAP
E0
E0
20
C0
ENDCHAR
STARTCHAR 220E
ENCODING 8718
SWIDTH 600 0
DWIDTH 5 0
BBX 3 4 1 0
BITMAP
E0
E0
E0
E0
ENDCHAR
STARTCHAR 220F
ENCODING 8719
SWIDTH 600 0
DWIDTH 5 0
BBX 5 9 0 -2
BITMAP
F8
50
50
50
50
50
50
50
50
ENDCHAR
STARTCHAR 2210
ENCODING 8720
SWIDTH 600 0
DWIDTH 5 0
BBX 5 9 0 -2
BITMAP
50
50
50
50
50
50
50
50
F8
ENDCHAR
STARTCHAR 2211
ENCODING 8721
SWIDTH 600 0
DWIDTH 5 0
BBX 3 9 1 -2
BITMAP
E0
80
80
40
40
40
80
80
E0
ENDCHAR
STARTCHAR 2212
ENCODING 8722
SWIDTH 600 0
DWIDTH 5 0
BBX 3 1 1 2
BITMAP
E0
ENDCHAR
STARTCHAR 2213
ENCODING 8723
SWIDTH 600 0
DWIDTH 5 0
BBX 3 6 1 0
BITMAP
E0
00
40
E0
40
40
ENDCHAR
STARTCHAR 2214
ENCODING 8724
SWIDTH 600 0
DWIDTH 5 0
BBX 3 5 1 1
BITMAP
40
00
40
E0
40
ENDCHAR
STARTCHAR 2217
ENCODING 8727
SWIDTH 600 0
DWIDTH 5 0
BBX 4 4 1 1
BITMAP
40
D0
60
A0
ENDCHAR
STARTCHAR 2218
ENCODING 8728
SWIDTH 600 0
DWIDTH 5 0
BBX 1 2 2 2
BITMAP
80
80
ENDCHAR
STARTCHAR 2219
ENCODING 8729
SWIDTH 600 0
DWIDTH 5 0
BBX 2 2 2 2
BITMAP
C0
C0
ENDCHAR
STARTCHAR 221A
ENCODING 8730
SWIDTH 600 0
DWIDTH 5 0
BBX 5 9 0 -2
BITMAP
18
10
20
20
20
A0
A0
C0
40
ENDCHAR
STARTCHAR 221B
ENCODING 8731
SWIDTH 600 0
DWIDTH 5 0
BBX 5 9 0 -2
BITMAP
D8
50
20
20
20
A0
A0
C0
40
ENDCHAR
STARTCHAR 221C
ENCODING 8732
SWIDTH 600 0
DWIDTH 5 0
BBX 5 9 0 -2
BITMAP
58
D0
20
20
20
A0
A0
C0
40
ENDCHAR
STARTCHAR 221E
ENCODING 8734
SWIDTH 600 0
DWIDTH 5 0
BBX 5 3 0 1
BITMAP
D8
A8
50
ENDCHAR
STARTCHAR 2220
ENCODING 8736
SWIDTH 600 0
DWIDTH 5 0
BBX 3 5 1 0
BITMAP
40
40
80
80
E0
ENDCHAR
STARTCHAR 2223
ENCODING 8739
SWIDTH 600 0
DWIDTH 5 0
BBX 1 8 2 -2
BITMAP
80
80
80
80
80
80
80
80
ENDCHAR
STARTCHAR 2225
ENCODING 8741
SWIDTH 600 0
DWIDTH 5 0
BBX 3 8 1 -2
BITMAP
A0
A0
A0
A0
A0
A0
A0
A0
ENDCHAR
STARTCHAR 2227
ENCODING 8743
SWIDTH 600 0
DWIDTH 5 0
BBX 4 4 0 1
BITMAP
20
60
50
90
ENDCHAR
STARTCHAR 2228
ENCODING 8744
SWIDTH 600 0
DWIDTH 5 0
BBX 4 4 0 1
BITMAP
90
50
50
20
ENDCHAR
STARTCHAR 2229
ENCODING 8745
SWIDTH 600 0
DWIDTH 5 0
BBX 4 5 1 0
BITMAP
E0
A0
90
90
90
ENDCHAR
STARTCHAR 222A
ENCODING 8746
SWIDTH 600 0
DWIDTH 5 0
BBX 4 4 1 0
BITMAP
90
90
A0
E0
ENDCHAR
STARTCHAR 222B
ENCODING 8747
SWIDTH 600 0
DWIDTH 5 0
BBX 3 8 1 -1
BITMAP
20
40
40
40
40
40
40
80
ENDCHAR
STARTCHAR 2234
ENCODING 8756
SWIDTH 600 0
DWIDTH 5 0
BBX 4 4 1 1
BITMAP
40
00
00
B0
ENDCHAR
STARTCHAR 2235
ENCODING 8757
SWIDTH 600 0
DWIDTH 5 0
BBX 4 4 1 1
BITMAP
B0
00
00
40
ENDCHAR
STARTCHAR 2236
ENCODING 8758
SWIDTH 600 0
DWIDTH 5 0
BBX 1 5 2 0
BITMAP
80
80
00
00
80
ENDCHAR
STARTCHAR 2237
ENCODING 8759
SWIDTH 600 0
DWIDTH 5 0
BBX 4 4 1 1
BITMAP
B0
00
00
B0
ENDCHAR
STARTCHAR 2238
ENCODING 8760
SWIDTH 600 0
DWIDTH 5 0
BBX 3 3 1 1
BITMAP
40
00
E0
ENDCHAR
STARTCHAR 2239
ENCODING 8761
SWIDTH 600 0
DWIDTH 5 0
BBX 5 5 0 0
BITMAP
18
00
E0
18
08
ENDCHAR
STARTCHAR 223A
ENCODING 8762
SWIDTH 600 0
DWIDTH 5 0
BBX 4 5 1 0
BITMAP
B0
00
E0
00
B0
ENDCHAR
STARTCHAR 223B
ENCODING 8763
SWIDTH 600 0
DWIDTH 5 0
BBX 3 5 1 0
BITMAP
40
80
E0
00
40
ENDCHAR
STARTCHAR 223C
ENCODING 8764
SWIDTH 600 0
DWIDTH 5 0
BBX 4 3 1 1
BITMAP
90
E0
20
ENDCHAR
STARTCHAR 223D
ENCODING 8765
SWIDTH 600 0
DWIDTH 5 0
BBX 4 2 1 2
BITMAP
20
D0
ENDCHAR
STARTCHAR 2241
ENCODING 8769
SWIDTH 600 0
DWIDTH 5 0
BBX 4 7 1 -1
BITMAP
20
40
D0
E0
60
80
80
ENDCHAR
STARTCHAR 2242
ENCODING 8770
SWIDTH 600 0
DWIDTH 5 0
BBX 4 4 1 0
BITMAP
E0
90
E0
20
ENDCHAR
STARTCHAR 2243
ENCODING 8771
SWIDTH 600 0
DWIDTH 5 0
BBX 4 4 1 1
BITMAP
D0
20
00
E0
ENDCHAR
STARTCHAR 2244
ENCODING 8772
SWIDTH 600 0
DWIDTH 5 0
BBX 3 6 1 0
BITMAP
C0
E0
60
40
E0
80
ENDCHAR
STARTCHAR 2245
ENCODING 8773
SWIDTH 600 0
DWIDTH 5 0
BBX 3 5 1 1
BITMAP
80
E0
00
E0
E0
ENDCHAR
STARTCHAR 2246
ENCODING 8774
SWIDTH 600 0
DWIDTH 5 0
BBX 3 6 1 0
BITMAP
80
E0
00
E0
E0
80
ENDCHAR
STARTCHAR 2247
ENCODING 8775
SWIDTH 600 0
DWIDTH 5 0
BBX 3 6 1 0
BITMAP
A0
E0
40
E0
E0
80
ENDCHAR
STARTCHAR 2248
ENCODING 8776
SWIDTH 600 0
DWIDTH 5 0
BBX 4 5 1 0
BITMAP
D0
20
00
D0
20
ENDCHAR
STARTCHAR 2249
ENCODING 8777
SWIDTH 600 0
DWIDTH 5 0
BBX 4 7 1 -1
BITMAP
20
D0
20
40
D0
A0
80
ENDCHAR
STARTCHAR 224A
ENCODING 8778
SWIDTH 600 0
DWIDTH 5 0
BBX 3 6 1 0
BITMAP
80
60
80
60
00
E0
ENDCHAR
STARTCHAR 224B
ENCODING 8779
SWIDTH 600 0
DWIDTH 5 0
BBX 4 6 1 0
BITMAP
80
60
80
60
90
60
ENDCHAR
STARTCHAR 2250
ENCODING 8784
SWIDTH 600 0
DWIDTH 5 0
BBX 3 5 1 1
BITMAP
40
00
E0
00
E0
ENDCHAR
STARTCHAR 2251
ENCODING 8785
SWIDTH 600 0
DWIDTH 5 0
BBX 3 6 1 0
BITMAP
40
00
E0
E0
00
40
ENDCHAR
STARTCHAR 2252
ENCODING 8786
SWIDTH 600 0
DWIDTH 5 0
BBX 3 6 1 0
BITMAP
80
00
E0
E0
00
20
ENDCHAR
STARTCHAR 2253
ENCODING 8787
SWIDTH 600 0
DWIDTH 5 0
BBX 3 4 1 2
BITMAP
E0
00
E0
80
ENDCHAR
STARTCHAR 2254
ENCODING 8788
SWIDTH 600 0
DWIDTH 5 0
BBX 5 4 0 0
BITMAP
C0
78
00
F8
ENDCHAR
STARTCHAR 2255
ENCODING 8789
SWIDTH 600 0
DWIDTH 5 0
BBX 5 4 0 0
BITMAP
18
40
00
F8
ENDCHAR
STARTCHAR 2256
ENCODING 8790
SWIDTH 600 0
DWIDTH 5 0
BBX 3 3 1 1
BITMAP
E0
A0
E0
ENDCHAR
STARTCHAR 2257
ENCODING 8791
SWIDTH 600 0
DWIDTH 5 0
BBX 3 4 1 1
BITMAP
E0
40
E0
E0
ENDCHAR
STARTCHAR 225F
ENCODING 8799
SWIDTH 600 0
DWIDTH 5 0
BBX 3 5 1 1
BITMAP
40
40
00
E0
E0
ENDCHAR
STARTCHAR 2260
ENCODING 8800
SWIDTH 600 0
DWIDTH 5 0
BBX 3 6 1 0
BITMAP
20
20
E0
40
E0
80
ENDCHAR
STARTCHAR 2261
ENCODING 8801
SWIDTH 600 0
DWIDTH 5 0
BBX 3 4 1 1
BITMAP
E0
00
E0
E0
ENDCHAR
STARTCHAR 2262
ENCODING 8802
SWIDTH 600 0
DWIDTH 5 0
BBX 3 6 1 0
BITMAP
20
E0
40
E0
E0
80
ENDCHAR
STARTCHAR 2264
ENCODING 8804
SWIDTH 600 0
DWIDTH 5 0
BBX 4 5 1 1
BITMAP
E0
80
70
00
E0
ENDCHAR
STARTCHAR 2265
ENCODING 8805
SWIDTH 600 0
DWIDTH 5 0
BBX 3 5 1 1
BITMAP
E0
20
C0
00
E0
ENDCHAR
STARTCHAR 2266
ENCODING 8806
SWIDTH 600 0
DWIDTH 5 0
BBX 3 6 1 0
BITMAP
E0
C0
20
E0
00
E0
ENDCHAR
STARTCHAR 2267
ENCODING 8807
SWIDTH 600 0
DWIDTH 5 0
BBX 3 5 1 1
BITMAP
E0
60
80
E0
E0
ENDCHAR
STARTCHAR 226A
ENCODING 8810
SWIDTH 600 0
DWIDTH 5 0
BBX 5 4 0 1
BITMAP
58
A0
50
28
ENDCHAR
STARTCHAR 226B
ENCODING 8811
SWIDTH 600 0
DWIDTH 5 0
BBX 5 4 0 1
BITMAP
50
28
50
A0
ENDCHAR
STARTCHAR 226C
ENCODING 8812
SWIDTH 600 0
DWIDTH 5 0
BBX 3 8 1 -2
BITMAP
40
A0
A0
A0
A0
A0
40
40
ENDCHAR
STARTCHAR 226E
ENCODING 8814
SWIDTH 600 0
DWIDTH 5 0
BBX 3 6 1 0
BITMAP
20
60
C0
60
80
80
ENDCHAR
STARTCHAR 226F
ENCODING 8815
SWIDTH 600 0
DWIDTH 5 0
BBX 3 6 1 0
BITMAP
20
C0
60
60
80
80
ENDCHAR
STARTCHAR 2270
ENCODING 8816
SWIDTH 600 0
DWIDTH 5 0
BBX 4 7 1 -1
BITMAP
40
E0
C0
70
80
E0
80
ENDCHAR
STARTCHAR 2271
ENCODING 8817
SWIDTH 600 0
DWIDTH 5 0
BBX 3 7 1 -1
BITMAP
20
E0
60
C0
80
E0
80
ENDCHAR
STARTCHAR 2272
ENCODING 8818
SWIDTH 600 0
DWIDTH 5 0
BBX 4 5 1 0
BITMAP
60
C0
20
90
60
ENDCHAR
STARTCHAR 2273
ENCODING 8819
SWIDTH 600 0
DWIDTH 5 0
BBX 4 5 1 0
BITMAP
E0
30
C0
D0
20
ENDCHAR
STARTCHAR 2274
ENCODING 8820
SWIDTH 600 0
DWIDTH 5 0
BBX 4 7 1 -1
BITMAP
20
60
C0
60
D0
60
80
ENDCHAR
STARTCHAR 2275
ENCODING 8821
SWIDTH 600 0
DWIDTH 5 0
BBX 4 7 1 -1
BITMAP
20
E0
30
C0
D0
A0
80
ENDCHAR
STARTCHAR 2276
ENCODING 8822
SWIDTH 600 0
DWIDTH 5 0
BBX 4 6 1 0
BITMAP
30
C0
60
80
60
C0
ENDCHAR
STARTCHAR 2277
ENCODING 8823
SWIDTH 600 0
DWIDTH 5 0
BBX 4 6 1 0
BITMAP
80
60
C0
30
C0
70
ENDCHAR
STARTCHAR 2278
ENCODING 8824
SWIDTH 600 0
DWIDTH 5 0
BBX 3 7 1 -1
BITMAP
20
C0
60
C0
A0
C0
80
ENDCHAR
STARTCHAR 227A
ENCODING 8826
SWIDTH 600 0
DWIDTH 5 0
BBX 3 5 1 0
BITMAP
20
40
80
40
20
ENDCHAR
STARTCHAR 227B
ENCODING 8827
SWIDTH 600 0
DWIDTH 5 0
BBX 3 5 1 0
BITMAP
80
40
20
40
80
ENDCHAR
STARTCHAR 227C
ENCODING 8828
SWIDTH 600 0
DWIDTH 5 0
BBX 4 6 1 0
BITMAP
30
C0
C0
30
C0
30
ENDCHAR
STARTCHAR 227D
ENCODING 8829
SWIDTH 600 0
DWIDTH 5 0
BBX 3 6 1 0
BITMAP
80
60
60
80
60
80
ENDCHAR
STARTCHAR 2280
ENCODING 8832
SWIDTH 600 0
DWIDTH 5 0
BBX 4 6 1 0
BITMAP
20
50
E0
C0
B0
80
ENDCHAR
STARTCHAR 2281
ENCODING 8833
SWIDTH 600 0
DWIDTH 5 0
BBX 3 6 1 0
BITMAP
20
C0
60
60
80
80
ENDCHAR
STARTCHAR 2282
ENCODING 8834
SWIDTH 600 0
DWIDTH 5 0
BBX 3 5 1 0
BITMAP
E0
80
80
80
E0
ENDCHAR
STARTCHAR 2283
ENCODING 8835
SWIDTH 600 0
DWIDTH 5 0
BBX 3 4 1 0
BITMAP
E0
20
20
E0
ENDCHAR
STARTCHAR 2284
ENCODING 8836
SWIDTH 600 0
DWIDTH 5 0
BBX 3 6 1 -1
BITMAP
20
E0
C0
C0
C0
E0
ENDCHAR
STARTCHAR 2285
ENCODING 8837
SWIDTH 600 0
DWIDTH 5 0
BBX 3 7 1 -1
BITMAP
20
E0
60
60
A0
E0
80
ENDCHAR
STARTCHAR 2286
ENCODING 8838
SWIDTH 600 0
DWIDTH 5 0
BBX 3 6 1 -1
BITMAP
60
80
80
E0
00
E0
ENDCHAR
STARTCHAR 2287
ENCODING 8839
SWIDTH 600 0
DWIDTH 5 0
BBX 3 6 1 -1
BITMAP
C0
20
20
20
C0
E0
ENDCHAR
STARTCHAR 2288
ENCODING 8840
SWIDTH 600 0
DWIDTH 5 0
BBX 3 8 1 -2
BITMAP
20
60
C0
C0
E0
80
E0
80
ENDCHAR
STARTCHAR 2289
ENCODING 8841
SWIDTH 600 0
DWIDTH 5 0
BBX 3 7 1 -2
BITMAP
20
C0
60
60
E0
80
E0
ENDCHAR
STARTCHAR 228A
ENCODING 8842
SWIDTH 600 0
DWIDTH 5 0
BBX 3 6 1 -1
BITMAP
60
80
80
E0
00
E0
ENDCHAR
STARTCHAR 228B
ENCODING 8843
SWIDTH 600 0
DWIDTH 5 0
BBX 3 6 1 -1
BITMAP
C0
20
20
E0
00
E0
ENDCHAR
STARTCHAR 228E
ENCODING 8846
SWIDTH 600 0
DWIDTH 5 0
BBX 4 7 1 -1
BITMAP
90
90
D0
D0
90
90
E0
ENDCHAR
STARTCHAR 228F
ENCODING 8847
SWIDTH 600 0
DWIDTH 5 0
BBX 3 5 1 0
BITMAP
E0
80
80
80
E0
ENDCHAR
STARTCHAR 2290
ENCODING 8848
SWIDTH 600 0
DWIDTH 5 0
BBX 3 4 1 0
BITMAP
E0
20
20
E0
ENDCHAR
STARTCHAR 2291
ENCODING 8849
SWIDTH 600 0
DWIDTH 5 0
BBX 3 6 1 -1
BITMAP
E0
80
80
E0
00
E0
ENDCHAR
STARTCHAR 2292
ENCODING 8850
SWIDTH 600 0
DWIDTH 5 0
BBX 3 6 1 -1
BITMAP
E0
20
20
20
C0
E0
ENDCHAR
STARTCHAR 2293
ENCODING 8851
SWIDTH 600 0
DWIDTH 5 0
BBX 4 5 1 0
BITMAP
F0
90
90
90
90
ENDCHAR
STARTCHAR 2294
ENCODING 8852
SWIDTH 600 0
DWIDTH 5 0
BBX 4 4 1 0
BITMAP
90
90
90
F0
ENDCHAR
STARTCHAR 2295
ENCODING 8853
SWIDTH 600 0
DWIDTH 5 0
BBX 5 6 0 1
BITMAP
20
50
A8
F8
A8
70
ENDCHAR
STARTCHAR 2296
ENCODING 8854
SWIDTH 600 0
DWIDTH 5 0
BBX 5 6 0 0
BITMAP
20
D8
F8
88
90
60
ENDCHAR
STARTCHAR 2297
ENCODING 8855
SWIDTH 600 0
DWIDTH 5 0
BBX 5 6 0 0
BITMAP
20
D0
A8
A8
90
60
ENDCHAR
STARTCHAR 2298
ENCODING 8856
SWIDTH 600 0
DWIDTH 5 0
BBX 5 5 0 1
BITMAP
20
D8
A8
C8
70
ENDCHAR
STARTCHAR 2299
ENCODING 8857
SWIDTH 600 0
DWIDTH 5 0
BBX 5 6 0 0
BITMAP
20
D8
A8
88
50
20
ENDCHAR
STARTCHAR 229A
ENCODING 8858
SWIDTH 600 0
DWIDTH 5 0
BBX 5 6 0 0
BITMAP
20
D0
A8
A8
90
60
ENDCHAR
STARTCHAR 229B
ENCODING 8859
SWIDTH 600 0
DWIDTH 5 0
BBX 5 6 0 0
BITMAP
20
D0
B8
A8
90
60
ENDCHAR
STARTCHAR 229C
ENCODING 8860
SWIDTH 600 0
DWIDTH 5 0
BBX 5 6 0 0
BITMAP
20
D0
B8
B8
90
60
ENDCHAR
STARTCHAR 229D
ENCODING 8861
SWIDTH 600 0
DWIDTH 5 0
BBX 5 6 0 0
BITMAP
20
D8
F8
88
90
60
ENDCHAR
STARTCHAR 229E
ENCODING 8862
SWIDTH 600 0
DWIDTH 5 0
BBX 5 5 0 1
BITMAP
F8
A8
F8
A8
F8
ENDCHAR
STARTCHAR 229F
ENCODING 8863
SWIDTH 600 0
DWIDTH 5 0
BBX 5 4 0 1
BITMAP
F8
F8
88
F8
ENDCHAR
STARTCHAR 22A0
ENCODING 8864
SWIDTH 600 0
DWIDTH 5 0
BBX 5 4 0 1
BITMAP
F8
D8
F8
F8
ENDCHAR
STARTCHAR 22A1
ENCODING 8865
SWIDTH 600 0
DWIDTH 5 0
BBX 5 4 0 1
BITMAP
F8
A8
A8
F8
ENDCHAR
STARTCHAR 22A2
ENCODING 8866
SWIDTH 600 0
DWIDTH 5 0
BBX 4 5 1 0
BITMAP
80
80
F0
80
80
ENDCHAR
STARTCHAR 22A3
ENCODING 8867
SWIDTH 600 0
DWIDTH 5 0
BBX 4 5 1 0
BITMAP
10
10
F0
10
10
ENDCHAR
STARTCHAR 22A4
ENCODING 8868
SWIDTH 600 0
DWIDTH 5 0
BBX 4 5 1 0
BITMAP
F0
40
40
40
40
ENDCHAR
STARTCHAR 22A5
ENCODING 8869
SWIDTH 600 0
DWIDTH 5 0
BBX 4 5 1 0
BITMAP
40
40
40
40
F0
ENDCHAR
STARTCHAR 22A6
ENCODING 8870
SWIDTH 600 0
DWIDTH 5 0
BBX 3 7 1 0
BITMAP
80
80
80
E0
80
80
80
ENDCHAR
STARTCHAR 22A7
ENCODING 8871
SWIDTH 600 0
DWIDTH 5 0
BBX 3 5 1 0
BITMAP
80
E0
80
E0
80
ENDCHAR
STARTCHAR 22A8
ENCODING 8872
SWIDTH 600 0
DWIDTH 5 0
BBX 4 5 1 0
BITMAP
80
F0
80
F0
80
ENDCHAR
STARTCHAR 22A9
ENCODING 8873
SWIDTH 600 0
DWIDTH 5 0
BBX 4 5 1 0
BITMAP
C0
C0
F0
C0
C0
ENDCHAR
STARTCHAR 22AA
ENCODING 8874
SWIDTH 600 0
DWIDTH 5 0
BBX 4 5 1 0
BITMAP
C0
C0
B0
C0
C0
ENDCHAR
STARTCHAR 22AB
ENCODING 8875
SWIDTH 600 0
DWIDTH 5 0
BBX 4 5 1 0
BITMAP
C0
F0
C0
F0
C0
ENDCHAR
STARTCHAR 22AC
ENCODING 8876
SWIDTH 600 0
DWIDTH 5 0
BBX 4 7 1 -1
BITMAP
20
A0
C0
F0
C0
80
80
ENDCHAR
STARTCHAR 22AD
ENCODING 8877
SWIDTH 600 0
DWIDTH 5 0
BBX 4 6 1 -1
BITMAP
20
A0
F0
C0
F0
80
ENDCHAR
STARTCHAR 22AE
ENCODING 8878
SWIDTH 600 0
DWIDTH 5 0
BBX 4 6 1 -1
BITMAP
20
E0
C0
F0
C0
C0
ENDCHAR
STARTCHAR 22AF
ENCODING 8879
SWIDTH 600 0
DWIDTH 5 0
BBX 4 5 1 0
BITMAP
E0
F0
C0
F0
C0
ENDCHAR
STARTCHAR 22B2
ENCODING 8882
SWIDTH 600 0
DWIDTH 5 0
BBX 5 3 0 2
BITMAP
18
E8
38
ENDCHAR
STARTCHAR 22B3
ENCODING 8883
SWIDTH 600 0
DWIDTH 5 0
BBX 4 3 1 2
BITMAP
80
F0
C0
ENDCHAR
STARTCHAR 22B4
ENCODING 8884
SWIDTH 600 0
DWIDTH 5 0
BBX 4 5 1 0
BITMAP
10
F0
70
00
F0
ENDCHAR
STARTCHAR 22B5
ENCODING 8885
SWIDTH 600 0
DWIDTH 5 0
BBX 4 5 1 0
BITMAP
80
E0
C0
00
F0
ENDCHAR
STARTCHAR 22B8
ENCODING 8888
SWIDTH 600 0
DWIDTH 5 0
BBX 4 3 1 1
BITMAP
30
D0
20
ENDCHAR
STARTCHAR 22BC
ENCODING 8892
SWIDTH 600 0
DWIDTH 5 0
BBX 4 5 1 1
BITMAP
F0
40
40
A0
A0
ENDCHAR
STARTCHAR 22BF
ENCODING 8895
SWIDTH 600 0
DWIDTH 5 0
BBX 4 4 1 1
BITMAP
10
30
50
F0
ENDCHAR
STARTCHAR 22C0
ENCODING 8896
SWIDTH 600 0
DWIDTH 5 0
BBX 5 9 0 -2
BITMAP
20
20
60
50
50
50
88
88
88
ENDCHAR
STARTCHAR 22C1
ENCODING 8897
SWIDTH 600 0
DWIDTH 5 0
BBX 5 8 0 -1
BITMAP
88
88
90
50
50
60
20
20
ENDCHAR
STARTCHAR 22C2
ENCODING 8898
SWIDTH 600 0
DWIDTH 5 0
BBX 4 8 1 -1
BITMAP
E0
A0
90
90
90
90
90
10
ENDCHAR
STARTCHAR 22C3
ENCODING 8899
SWIDTH 600 0
DWIDTH 5 0
BBX 4 8 1 -1
BITMAP
90
90
90
90
90
90
A0
E0
ENDCHAR
STARTCHAR 22C4
ENCODING 8900
SWIDTH 600 0
DWIDTH 5 0
BBX 5 4 0 2
BITMAP
70
88
50
20
ENDCHAR
STARTCHAR 22C5
ENCODING 8901
SWIDTH 600 0
DWIDTH 5 0
BBX 1 1 2 2
BITMAP
80
ENDCHAR
STARTCHAR 22C6
ENCODING 8902
SWIDTH 600 0
DWIDTH 5 0
BBX 3 2 1 2
BITMAP
E0
C0
ENDCHAR
STARTCHAR 22C7
ENCODING 8903
SWIDTH 600 0
DWIDTH 5 0
BBX 4 5 1 0
BITMAP
40
A0
F0
A0
40
ENDCHAR
STARTCHAR 22C8
ENCODING 8904
SWIDTH 600 0
DWIDTH 5 0
BBX 5 5 0 1
BITMAP
88
D8
A8
D8
88
ENDCHAR
STARTCHAR 22C9
ENCODING 8905
SWIDTH 600 0
DWIDTH 5 0
BBX 5 5 0 1
BITMAP
88
D0
A0
D0
88
ENDCHAR
STARTCHAR 22CA
ENCODING 8906
SWIDTH 600 0
DWIDTH 5 0
BBX 5 5 0 1
BITMAP
88
58
28
58
88
ENDCHAR
STARTCHAR 22CD
ENCODING 8909
SWIDTH 600 0
DWIDTH 5 0
BBX 4 4 1 1
BITMAP
20
D0
00
E0
ENDCHAR
STARTCHAR 22D0
ENCODING 8912
SWIDTH 600 0
DWIDTH 5 0
BBX 3 5 1 0
BITMAP
E0
A0
C0
A0
E0
ENDCHAR
STARTCHAR 22D1
ENCODING 8913
SWIDTH 600 0
DWIDTH 5 0
BBX 3 5 1 0
BITMAP
C0
20
E0
E0
E0
ENDCHAR
STARTCHAR 22D4
ENCODING 8916
SWIDTH 600 0
DWIDTH 5 0
BBX 4 8 1 -1
BITMAP
40
40
E0
E0
D0
D0
D0
40
ENDCHAR
STARTCHAR 22D6
ENCODING 8918
SWIDTH 600 0
DWIDTH 5 0
BBX 3 5 1 0
BITMAP
20
40
A0
40
20
ENDCHAR
STARTCHAR 22D7
ENCODING 8919
SWIDTH 600 0
DWIDTH 5 0
BBX 3 5 1 0
BITMAP
80
40
A0
40
80
ENDCHAR
STARTCHAR 22D8
ENCODING 8920
SWIDTH 600 0
DWIDTH 5 0
BBX 5 3 0 2
BITMAP
E8
B0
68
ENDCHAR
STARTCHAR 22D9
ENCODING 8921
SWIDTH 600 0
DWIDTH 5 0
BBX 5 3 0 2
BITMAP
B0
68
D0
ENDCHAR
STARTCHAR 22DA
ENCODING 8922
SWIDTH 600 0
DWIDTH 5 0
BBX 4 7 1 0
BITMAP
30
C0
70
E0
00
E0
E0
ENDCHAR
STARTCHAR 22DB
ENCODING 8923
SWIDTH 600 0
DWIDTH 5 0
BBX 3 7 1 0
BITMAP
80
60
C0
E0
00
E0
60
ENDCHAR
STARTCHAR 22DC
ENCODING 8924
SWIDTH 600 0
DWIDTH 5 0
BBX 3 6 1 0
BITMAP
E0
00
20
C0
C0
20
ENDCHAR
STARTCHAR 22DD
ENCODING 8925
SWIDTH 600 0
DWIDTH 5 0
BBX 3 6 1 0
BITMAP
E0
00
80
60
60
80
ENDCHAR
STARTCHAR 22DE
ENCODING 8926
SWIDTH 600 0
DWIDTH 5 0
BBX 4 6 1 0
BITMAP
10
E0
10
E0
C0
30
ENDCHAR
STARTCHAR 22DF
ENCODING 8927
SWIDTH 600 0
DWIDTH 5 0
BBX 3 6 1 0
BITMAP
80
60
80
60
60
80
ENDCHAR
STARTCHAR 22E0
ENCODING 8928
SWIDTH 600 0
DWIDTH 5 0
BBX 3 7 1 -1
BITMAP
20
20
C0
60
80
E0
80
ENDCHAR
STARTCHAR 22E1
ENCODING 8929
SWIDTH 600 0
DWIDTH 5 0
BBX 3 7 1 -1
BITMAP
20
A0
60
C0
60
C0
80
ENDCHAR
STARTCHAR 22E2
ENCODING 8930
SWIDTH 600 0
DWIDTH 5 0
BBX 3 8 1 -2
BITMAP
20
E0
C0
C0
E0
80
E0
80
ENDCHAR
STARTCHAR 22E3
ENCODING 8931
SWIDTH 600 0
DWIDTH 5 0
BBX 3 7 1 -2
BITMAP
20
E0
60
60
E0
80
E0
ENDCHAR
STARTCHAR 22E4
ENCODING 8932
SWIDTH 600 0
DWIDTH 5 0
BBX 3 6 1 -1
BITMAP
E0
80
80
E0
00
E0
ENDCHAR
STARTCHAR 22E5
ENCODING 8933
SWIDTH 600 0
DWIDTH 5 0
BBX 3 6 1 -1
BITMAP
E0
20
20
E0
00
E0
ENDCHAR
STARTCHAR 22E6
ENCODING 8934
SWIDTH 600 0
DWIDTH 5 0
BBX 4 5 1 -1
BITMAP
60
C0
20
D0
60
ENDCHAR
STARTCHAR 22E7
ENCODING 8935
SWIDTH 600 0
DWIDTH 5 0
BBX 4 5 1 -1
BITMAP
E0
30
C0
D0
60
ENDCHAR
STARTCHAR 22EA
ENCODING 8938
SWIDTH 600 0
DWIDTH 5 0
BBX 4 6 1 0
BITMAP
20
30
D0
50
B0
80
ENDCHAR
STARTCHAR 22EB
ENCODING 8939
SWIDTH 600 0
DWIDTH 5 0
BBX 3 5 1 1
BITMAP
C0
E0
E0
80
80
ENDCHAR
STARTCHAR 22EC
ENCODING 8940
SWIDTH 600 0
DWIDTH 5 0
BBX 5 6 0 0
BITMAP
38
E8
38
40
78
40
ENDCHAR
STARTCHAR 22ED
ENCODING 8941
SWIDTH 600 0
DWIDTH 5 0
BBX 4 6 1 -1
BITMAP
C0
E0
C0
80
F0
80
ENDCHAR
STARTCHAR 22EE
ENCODING 8942
SWIDTH 600 0
DWIDTH 5 0
BBX 1 7 2 0
BITMAP
80
00
00
80
00
00
80
ENDCHAR
STARTCHAR 22EF
ENCODING 8943
SWIDTH 600 0
DWIDTH 5 0
BBX 5 1 0 3
BITMAP
A8
ENDCHAR
STARTCHAR 22F0
ENCODING 8944
SWIDTH 600 0
DWIDTH 5 0
BBX 5 7 0 0
BITMAP
08
00
00
20
00
00
80
ENDCHAR
STARTCHAR 22F1
ENCODING 8945
SWIDTH 600 0
DWIDTH 5 0
BBX 5 7 0 0
BITMAP
80
00
00
20
00
00
08
ENDCHAR
STARTCHAR 22F2
ENCODING 8946
SWIDTH 600 0
DWIDTH 5 0
BBX 5 5 0 0
BITMAP
38
40
F8
40
38
ENDCHAR
STARTCHAR 22F5
ENCODING 8949
SWIDTH 600 0
DWIDTH 5 0
BBX 3 7 1 0
BITMAP
40
00
E0
80
E0
80
E0
ENDCHAR
STARTCHAR 22F6
ENCODING 8950
SWIDTH 600 0
DWIDTH 5 0
BBX 3 6 1 -1
BITMAP
E0
E0
80
E0
80
60
ENDCHAR
STARTCHAR 22F8
ENCODING 8952
SWIDTH 600 0
DWIDTH 5 0
BBX 3 6 1 -1
BITMAP
60
80
E0
E0
00
E0
ENDCHAR
STARTCHAR 22FA
ENCODING 8954
SWIDTH 600 0
DWIDTH 5 0
BBX 5 5 0 0
BITMAP
E0
10
F8
10
E0
ENDCHAR
STARTCHAR 22FD
ENCODING 8957
SWIDTH 600 0
DWIDTH 5 0
BBX 3 6 1 0
BITMAP
E0
00
E0
20
E0
E0
ENDCHAR
STARTCHAR 22FF
ENCODING 8959
SWIDTH 600 0
DWIDTH 5 0
BBX 3 5 1 0
BITMAP
E0
80
E0
80
E0
ENDCHAR
STARTCHAR 2308
ENCODING 8968
SWIDTH 600 0
DWIDTH 5 0
BBX 3 9 1 -2
BITMAP
E0
80
80
80
80
80
80
80
80
ENDCHAR
STARTCHAR 2309
ENCODING 8969
SWIDTH 600 0
DWIDTH 5 0
BBX 3 8 1 -2
BITMAP
E0
20
20
20
20
20
20
20
ENDCHAR
STARTCHAR 230A
ENCODING 8970
SWIDTH 600 0
DWIDTH 5 0
BBX 3 8 1 -2
BITMAP
80
80
80
80
80
80
80
E0
ENDCHAR
STARTCHAR 230B
ENCODING 8971
SWIDTH 600 0
DWIDTH 5 0
BBX 3 8 1 -2
BITMAP
20
20
20
20
20
20
20
E0
ENDCHAR
STARTCHAR 2310
ENCODING 8976
SWIDTH 600 0
DWIDTH 5 0
BBX 3 2 1 1
BITMAP
E0
80
ENDCHAR
STARTCHAR 2311
ENCODING 8977
SWIDTH 600 0
DWIDTH 5 0
BBX 3 3 1 2
BITMAP
E0
A0
E0
ENDCHAR
STARTCHAR 2319
ENCODING 8985
SWIDTH 600 0
DWIDTH 5 0
BBX 3 2 1 2
BITMAP
80
E0
ENDCHAR
STARTCHAR 2329
ENCODING 9001
SWIDTH 600 0
DWIDTH 5 0
BBX 3 9 2 -2
BITMAP
20
40
40
80
80
80
40
40
20
ENDCHAR
STARTCHAR 232A
ENCODING 9002
SWIDTH 600 0
DWIDTH 5 0
BBX 3 8 0 -1
BITMAP
80
40
40
20
20
40
40
80
ENDCHAR
STARTCHAR 2332
ENCODING 9010
SWIDTH 600 0
DWIDTH 5 0
BBX 4 4 1 2
BITMAP
C0
F0
C0
80
ENDCHAR
STARTCHAR 2336
ENCODING 9014
SWIDTH 600 0
DWIDTH 5 0
BBX 4 5 1 0
BITMAP
F0
40
40
40
F0
ENDCHAR
STARTCHAR 2337
ENCODING 9015
SWIDTH 600 0
DWIDTH 5 0
BBX 3 8 1 -1
BITMAP
E0
A0
A0
A0
A0
A0
A0
E0
ENDCHAR
STARTCHAR 2338
ENCODING 9016
SWIDTH 600 0
DWIDTH 5 0
BBX 5 9 0 -1
BITMAP
F8
88
88
F8
88
F8
88
88
F8
ENDCHAR
STARTCHAR 2339
ENCODING 9017
SWIDTH 600 0
DWIDTH 5 0
BBX 5 8 0 -1
BITMAP
F8
88
A8
88
F8
A8
88
F8
ENDCHAR
STARTCHAR 233A
ENCODING 9018
SWIDTH 600 0
DWIDTH 5 0
BBX 5 8 0 -1
BITMAP
F8
88
A8
D8
C8
B8
88
F8
ENDCHAR
STARTCHAR 233B
ENCODING 9019
SWIDTH 600 0
DWIDTH 5 0
BBX 5 8 0 -1
BITMAP
F8
88
88
A8
A8
88
88
F8
ENDCHAR
STARTCHAR 233C
ENCODING 9020
SWIDTH 600 0
DWIDTH 5 0
BBX 5 8 0 -1
BITMAP
F8
A8
D8
88
88
F8
88
F8
ENDCHAR
STARTCHAR 233D
ENCODING 9021
SWIDTH 600 0
DWIDTH 5 0
BBX 5 7 0 0
BITMAP
20
30
E8
A8
A8
70
20
ENDCHAR
STARTCHAR 233E
ENCODING 9022
SWIDTH 600 0
DWIDTH 5 0
BBX 5 6 0 0
BITMAP
20
D0
A8
A8
90
60
ENDCHAR
STARTCHAR 233F
ENCODING 9023
SWIDTH 600 0
DWIDTH 5 0
BBX 3 7 1 0
BITMAP
20
20
40
E0
80
80
80
ENDCHAR
STARTCHAR 2340
ENCODING 9024
SWIDTH 600 0
DWIDTH 5 0
BBX 3 7 1 0
BITMAP
80
80
40
E0
40
20
20
ENDCHAR
STARTCHAR 2341
ENCODING 9025
SWIDTH 600 0
DWIDTH 5 0
BBX 5 9 0 -1
BITMAP
F8
98
98
A8
A8
A8
C8
C8
F8
ENDCHAR
STARTCHAR 2342
ENCODING 9026
SWIDTH 600 0
DWIDTH 5 0
BBX 5 8 0 -1
BITMAP
F8
C8
C8
A8
A8
98
98
F8
ENDCHAR
STARTCHAR 2343
ENCODING 9027
SWIDTH 600 0
DWIDTH 5 0
BBX 5 9 0 -1
BITMAP
F8
88
88
88
88
88
88
88
F8
ENDCHAR
STARTCHAR 2344
ENCODING 9028
SWIDTH 600 0
DWIDTH 5 0
BBX 5 8 0 -1
BITMAP
F8
88
88
88
88
88
88
F8
ENDCHAR
STARTCHAR 2345
ENCODING 9029
SWIDTH 600 0
DWIDTH 5 0
BBX 5 4 0 1
BITMAP
60
F8
60
20
ENDCHAR
STARTCHAR 2346
ENCODING 9030
SWIDTH 600 0
DWIDTH 5 0
BBX 4 5 1 0
BITMAP
40
60
F0
60
40
ENDCHAR
STARTCHAR 2347
ENCODING 9031
SWIDTH 600 0
DWIDTH 5 0
BBX 5 8 0 -1
BITMAP
F8
88
88
F8
C8
88
88
F8
ENDCHAR
STARTCHAR 2348
ENCODING 9032
SWIDTH 600 0
DWIDTH 5 0
BBX 5 9 0 -1
BITMAP
F8
88
88
98
F8
98
88
88
F8
ENDCHAR
STARTCHAR 2349
ENCODING 9033
SWIDTH 600 0
DWIDTH 5 0
BBX 5 6 0 0
BITMAP
20
50
A8
A8
90
60
ENDCHAR
STARTCHAR 234A
ENCODING 9034
SWIDTH 600 0
DWIDTH 5 0
BBX 4 5 1 0
BITMAP
40
40
40
F0
F0
ENDCHAR
STARTCHAR 234B
ENCODING 9035
SWIDTH 600 0
DWIDTH 5 0
BBX 5 9 0 -2
BITMAP
20
20
20
30
70
70
F8
20
20
ENDCHAR
STARTCHAR 234C
ENCODING 9036
SWIDTH 600 0
DWIDTH 5 0
BBX 5 8 0 -1
BITMAP
F8
88
88
D8
D8
A8
88
F8
ENDCHAR
STARTCHAR 234D
ENCODING 9037
SWIDTH 600 0
DWIDTH 5 0
BBX 5 8 0 -1
BITMAP
F8
A8
E8
D8
D8
F8
88
F8
ENDCHAR
STARTCHAR 234E
ENCODING 9038
SWIDTH 600 0
DWIDTH 5 0
BBX 4 5 1 0
BITMAP
40
E0
E0
40
F0
ENDCHAR
STARTCHAR 234F
ENCODING 9039
SWIDTH 600 0
DWIDTH 5 0
BBX 3 5 1 1
BITMAP
40
E0
40
E0
40
ENDCHAR
STARTCHAR 2350
ENCODING 9040
SWIDTH 600 0
DWIDTH 5 0
BBX 5 8 0 -1
BITMAP
F8
A8
A8
A8
A8
A8
A8
F8
ENDCHAR
STARTCHAR 2351
ENCODING 9041
SWIDTH 600 0
DWIDTH 5 0
BBX 4 5 1 0
BITMAP
F0
F0
40
40
40
ENDCHAR
STARTCHAR 2352
ENCODING 9042
SWIDTH 600 0
DWIDTH 5 0
BBX 5 8 0 -2
BITMAP
20
F8
70
70
30
20
20
20
ENDCHAR
STARTCHAR 2353
ENCODING 9043
SWIDTH 600 0
DWIDTH 5 0
BBX 5 8 0 -1
BITMAP
F8
88
A8
D8
D8
88
88
F8
ENDCHAR
STARTCHAR 2354
ENCODING 9044
SWIDTH 600 0
DWIDTH 5 0
BBX 5 8 0 -1
BITMAP
F8
88
F8
D8
D8
E8
A8
F8
ENDCHAR
STARTCHAR 2355
ENCODING 9045
SWIDTH 600 0
DWIDTH 5 0
BBX 4 5 1 0
BITMAP
F0
40
E0
E0
40
ENDCHAR
STARTCHAR 2356
ENCODING 9046
SWIDTH 600 0
DWIDTH 5 0
BBX 3 5 1 0
BITMAP
40
E0
40
E0
40
ENDCHAR
STARTCHAR 2357
ENCODING 9047
SWIDTH 600 0
DWIDTH 5 0
BBX 5 9 0 -1
BITMAP
F8
A8
A8
A8
A8
A8
B8
A8
F8
ENDCHAR
STARTCHAR 2358
ENCODING 9048
SWIDTH 600 0
DWIDTH 5 0
BBX 3 8 1 -1
BITMAP
40
40
40
00
00
00
00
E0
ENDCHAR
STARTCHAR 2359
ENCODING 9049
SWIDTH 600 0
DWIDTH 5 0
BBX 5 8 0 -1
BITMAP
20
20
50
50
50
78
00
F8
ENDCHAR
STARTCHAR 235A
ENCODING 9050
SWIDTH 600 0
DWIDTH 5 0
BBX 5 6 0 -1
BITMAP
20
50
50
20
00
F8
ENDCHAR
STARTCHAR 235B
ENCODING 9051
SWIDTH 600 0
DWIDTH 5 0
BBX 3 5 1 -1
BITMAP
40
40
00
00
E0
ENDCHAR
STARTCHAR 235C
ENCODING 9052
SWIDTH 600 0
DWIDTH 5 0
BBX 5 7 0 -1
BITMAP
20
D8
88
88
70
00
F8
ENDCHAR
STARTCHAR 235D
ENCODING 9053
SWIDTH 600 0
DWIDTH 5 0
BBX 4 5 1 0
BITMAP
E0
A0
D0
90
90
ENDCHAR
STARTCHAR 235E
ENCODING 9054
SWIDTH 600 0
DWIDTH 5 0
BBX 5 8 0 -1
BITMAP
F8
A8
A8
A8
88
88
88
F8
ENDCHAR
STARTCHAR 235F
ENCODING 9055
SWIDTH 600 0
DWIDTH 5 0
BBX 5 6 0 0
BITMAP
20
D0
B8
A8
90
60
ENDCHAR
STARTCHAR 2360
ENCODING 9056
SWIDTH 600 0
DWIDTH 5 0
BBX 5 8 0 -1
BITMAP
F8
88
A8
88
88
A8
88
F8
ENDCHAR
STARTCHAR 2361
ENCODING 9057
SWIDTH 600 0
DWIDTH 5 0
BBX 4 7 1 0
BITMAP
A0
00
F0
40
40
40
40
ENDCHAR
STARTCHAR 2362
ENCODING 9058
SWIDTH 600 0
DWIDTH 5 0
BBX 4 7 1 0
BITMAP
A0
00
F0
A0
A0
C0
40
ENDCHAR
STARTCHAR 2363
ENCODING 9059
SWIDTH 600 0
DWIDTH 5 0
BBX 5 6 0 1
BITMAP
50
00
20
F8
20
50
ENDCHAR
STARTCHAR 2364
ENCODING 9060
SWIDTH 600 0
DWIDTH 5 0
BBX 3 4 1 2
BITMAP
A0
00
40
40
ENDCHAR
STARTCHAR 2365
ENCODING 9061
SWIDTH 600 0
DWIDTH 5 0
BBX 5 8 0 0
BITMAP
50
00
20
D0
88
88
90
60
ENDCHAR
STARTCHAR 2366
ENCODING 9062
SWIDTH 600 0
DWIDTH 5 0
BBX 4 8 1 -2
BITMAP
40
D0
D0
D0
E0
E0
40
40
ENDCHAR
STARTCHAR 2367
ENCODING 9063
SWIDTH 600 0
DWIDTH 5 0
BBX 3 8 1 -2
BITMAP
40
40
E0
C0
C0
C0
E0
40
ENDCHAR
STARTCHAR 2368
ENCODING 9064
SWIDTH 600 0
DWIDTH 5 0
BBX 4 5 1 1
BITMAP
A0
00
90
E0
20
ENDCHAR
STARTCHAR 2369
ENCODING 9065
SWIDTH 600 0
DWIDTH 5 0
BBX 3 7 1 0
BITMAP
A0
00
80
60
20
40
80
ENDCHAR
STARTCHAR 236A
ENCODING 9066
SWIDTH 600 0
DWIDTH 5 0
BBX 3 5 1 -2
BITMAP
E0
00
40
40
40
ENDCHAR
STARTCHAR 236B
ENCODING 9067
SWIDTH 600 0
DWIDTH 5 0
BBX 4 9 1 0
BITMAP
80
E0
00
F0
A0
A0
A0
40
40
ENDCHAR
STARTCHAR 236C
ENCODING 9068
SWIDTH 600 0
DWIDTH 5 0
BBX 5 6 0 0
BITMAP
70
88
E8
98
88
70
ENDCHAR
STARTCHAR 236D
ENCODING 9069
SWIDTH 600 0
DWIDTH 5 0
BBX 4 9 1 -2
BITMAP
40
40
40
90
E0
20
40
40
40
ENDCHAR
STARTCHAR 236E
ENCODING 9070
SWIDTH 600 0
DWIDTH 5 0
BBX 3 6 1 -2
BITMAP
40
40
00
00
40
E0
ENDCHAR
STARTCHAR 236F
ENCODING 9071
SWIDTH 600 0
DWIDTH 5 0
BBX 5 9 0 -1
BITMAP
F8
88
A8
F8
A8
F8
A8
88
F8
ENDCHAR
STARTCHAR 2370
ENCODING 9072
SWIDTH 600 0
DWIDTH 5 0
BBX 5 8 0 -1
BITMAP
F8
A8
D8
98
A8
A8
88
F8
ENDCHAR
STARTCHAR 2371
ENCODING 9073
SWIDTH 600 0
DWIDTH 5 0
BBX 5 4 0 1
BITMAP
88
F0
58
20
ENDCHAR
STARTCHAR 2372
ENCODING 9074
SWIDTH 600 0
DWIDTH 5 0
BBX 5 4 0 1
BITMAP
20
20
F8
50
ENDCHAR
STARTCHAR 2377
ENCODING 9079
SWIDTH 600 0
DWIDTH 5 0
BBX 3 7 1 -2
BITMAP
E0
80
E0
80
E0
00
E0
ENDCHAR
STARTCHAR 2384
ENCODING 9092
SWIDTH 600 0
DWIDTH 5 0
BBX 5 3 0 2
BITMAP
F8
D8
F8
ENDCHAR
STARTCHAR 2385
ENCODING 9093
SWIDTH 600 0
DWIDTH 5 0
BBX 4 7 1 0
BITMAP
40
F0
D0
D0
D0
D0
60
ENDCHAR
STARTCHAR 238F
ENCODING 9103
SWIDTH 600 0
DWIDTH 5 0
BBX 5 4 0 1
BITMAP
70
90
88
70
ENDCHAR
STARTCHAR 2390
ENCODING 9104
SWIDTH 600 0
DWIDTH 5 0
BBX 5 5 0 1
BITMAP
20
50
88
50
30
ENDCHAR
STARTCHAR 2391
ENCODING 9105
SWIDTH 600 0
DWIDTH 5 0
BBX 5 5 0 1
BITMAP
20
50
F8
50
30
ENDCHAR
STARTCHAR 2392
ENCODING 9106
SWIDTH 600 0
DWIDTH 5 0
BBX 5 4 0 1
BITMAP
70
98
F0
60
ENDCHAR
STARTCHAR 2394
ENCODING 9108
SWIDTH 600 0
DWIDTH 5 0
BBX 5 4 0 1
BITMAP
F0
88
88
F0
ENDCHAR
STARTCHAR 2395
ENCODING 9109
SWIDTH 600 0
DWIDTH 5 0
BBX 5 8 0 -1
BITMAP
F8
88
88
88
88
88
88
F8
ENDCHAR
STARTCHAR 23BA
ENCODING 9146
SWIDTH 600 0
DWIDTH 5 0
BBX 5 1 0 6
BITMAP
F8
ENDCHAR
STARTCHAR 23BB
ENCODING 9147
SWIDTH 600 0
DWIDTH 5 0
BBX 5 1 0 4
BITMAP
F8
ENDCHAR
STARTCHAR 23BC
ENCODING 9148
SWIDTH 600 0
DWIDTH 5 0
BBX 5 1 0 2
BITMAP
F8
ENDCHAR
STARTCHAR 23BD
ENCODING 9149
SWIDTH 600 0
DWIDTH 5 0
BBX 5 1 0 0
BITMAP
F8
ENDCHAR
STARTCHAR 23CD
ENCODING 9165
SWIDTH 600 0
DWIDTH 5 0
BBX 5 6 0 1
BITMAP
20
F8
A8
88
88
F8
ENDCHAR
STARTCHAR 23E8
ENCODING 9192
SWIDTH 600 0
DWIDTH 5 0
BBX 4 2 1 -1
BITMAP
F0
F0
ENDCHAR
STARTCHAR 23F4
ENCODING 9204
SWIDTH 600 0
DWIDTH 5 0
BBX 3 3 1 2
BITMAP
20
E0
60
ENDCHAR
STARTCHAR 23F5
ENCODING 9205
SWIDTH 600 0
DWIDTH 5 0
BBX 3 3 1 2
BITMAP
80
E0
C0
ENDCHAR
STARTCHAR 23F6
ENCODING 9206
SWIDTH 600 0
DWIDTH 5 0
BBX 3 3 1 2
BITMAP
40
40
E0
ENDCHAR
STARTCHAR 23F7
ENCODING 9207
SWIDTH 600 0
DWIDTH 5 0
BBX 3 3 1 1
BITMAP
E0
40
40
ENDCHAR
STARTCHAR 244A
ENCODING 9290
SWIDTH 600 0
DWIDTH 5 0
BBX 5 7 0 0
BITMAP
A0
60
60
50
50
30
28
ENDCHAR
STARTCHAR 2460
ENCODING 9312
SWIDTH 600 0
DWIDTH 5 0
BBX 5 4 0 1
BITMAP
F8
A8
A8
F8
ENDCHAR
STARTCHAR 2461
ENCODING 9313
SWIDTH 600 0
DWIDTH 5 0
BBX 5 4 0 1
BITMAP
F8
A8
88
F8
ENDCHAR
STARTCHAR 2462
ENCODING 9314
SWIDTH 600 0
DWIDTH 5 0
BBX 5 4 0 1
BITMAP
F8
A8
98
F8
ENDCHAR
STARTCHAR 2463
ENCODING 9315
SWIDTH 600 0
DWIDTH 5 0
BBX 5 4 0 1
BITMAP
F8
A8
88
F8
ENDCHAR
STARTCHAR 2464
ENCODING 9316
SWIDTH 600 0
DWIDTH 5 0
BBX 5 4 0 1
BITMAP
F8
88
B8
F8
ENDCHAR
STARTCHAR 2465
ENCODING 9317
SWIDTH 600 0
DWIDTH 5 0
BBX 5 4 0 1
BITMAP
F8
E8
F8
F8
ENDCHAR
STARTCHAR 2466
ENCODING 9318
SWIDTH 600 0
DWIDTH 5 0
BBX 5 4 0 1
BITMAP
F8
A8
A8
F8
ENDCHAR
STARTCHAR 2467
ENCODING 9319
SWIDTH 600 0
DWIDTH 5 0
BBX 5 4 0 1
BITMAP
F8
E8
D8
F8
ENDCHAR
STARTCHAR 2468
ENCODING 9320
SWIDTH 600 0
DWIDTH 5 0
BBX 5 4 0 1
BITMAP
F8
F8
B8
F8
ENDCHAR
STARTCHAR 2474
ENCODING 9332
SWIDTH 600 0
DWIDTH 5 0
BBX 5 4 0 1
BITMAP
88
A8
A8
08
ENDCHAR
STARTCHAR 2475
ENCODING 9333
SWIDTH 600 0
DWIDTH 5 0
BBX 5 4 0 1
BITMAP
88
A8
88
28
ENDCHAR
STARTCHAR 2476
ENCODING 9334
SWIDTH 600 0
DWIDTH 5 0
BBX 5 3 0 1
BITMAP
88
A8
98
ENDCHAR
STARTCHAR 2477
ENCODING 9335
SWIDTH 600 0
DWIDTH 5 0
BBX 5 3 0 1
BITMAP
88
E8
88
ENDCHAR
STARTCHAR 2478
ENCODING 9336
SWIDTH 600 0
DWIDTH 5 0
BBX 5 3 0 1
BITMAP
88
88
B8
ENDCHAR
STARTCHAR 2479
ENCODING 9337
SWIDTH 600 0
DWIDTH 5 0
BBX 5 4 0 1
BITMAP
88
E8
F8
20
ENDCHAR
STARTCHAR 247A
ENCODING 9338
SWIDTH 600 0
DWIDTH 5 0
BBX 5 4 0 1
BITMAP
08
A8
A8
88
ENDCHAR
STARTCHAR 247B
ENCODING 9339
SWIDTH 600 0
DWIDTH 5 0
BBX 5 4 0 1
BITMAP
88
E8
D8
20
ENDCHAR
STARTCHAR 247C
ENCODING 9340
SWIDTH 600 0
DWIDTH 5 0
BBX 5 4 0 1
BITMAP
88
F8
B8
88
ENDCHAR
STARTCHAR 24EA
ENCODING 9450
SWIDTH 600 0
DWIDTH 5 0
BBX 5 4 0 1
BITMAP
F8
F8
E8
F8
ENDCHAR
STARTCHAR 24FF
ENCODING 9471
SWIDTH 600 0
DWIDTH 5 0
BBX 5 5 0 1
BITMAP
70
F8
E8
F8
70
ENDCHAR
STARTCHAR 2500
ENCODING 9472
SWIDTH 600 0
DWIDTH 5 0
BBX 5 1 0 2
BITMAP
F8
ENDCHAR
STARTCHAR 2501
ENCODING 9473
SWIDTH 600 0
DWIDTH 5 0
BBX 5 2 0 2
BITMAP
F8
F8
ENDCHAR
STARTCHAR 2502
ENCODING 9474
SWIDTH 600 0
DWIDTH 5 0
BBX 1 10 2 -2
BITMAP
80
80
80
80
80
80
80
80
80
80
ENDCHAR
STARTCHAR 2503
ENCODING 9475
SWIDTH 600 0
DWIDTH 5 0
BBX 1 10 2 -2
BITMAP
80
80
80
80
80
80
80
80
80
80
ENDCHAR
STARTCHAR 2504
ENCODING 9476
SWIDTH 600 0
DWIDTH 5 0
BBX 5 1 0 2
BITMAP
A8
ENDCHAR
STARTCHAR 2505
ENCODING 9477
SWIDTH 600 0
DWIDTH 5 0
BBX 5 2 0 2
BITMAP
A8
A8
ENDCHAR
STARTCHAR 2506
ENCODING 9478
SWIDTH 600 0
DWIDTH 5 0
BBX 1 9 2 -2
BITMAP
80
80
00
80
80
80
00
80
80
ENDCHAR
STARTCHAR 2507
ENCODING 9479
SWIDTH 600 0
DWIDTH 5 0
BBX 1 9 2 -2
BITMAP
80
80
00
80
80
80
00
80
80
ENDCHAR
STARTCHAR 2508
ENCODING 9480
SWIDTH 600 0
DWIDTH 5 0
BBX 5 1 0 2
BITMAP
98
ENDCHAR
STARTCHAR 2509
ENCODING 9481
SWIDTH 600 0
DWIDTH 5 0
BBX 5 2 0 2
BITMAP
98
D8
ENDCHAR
STARTCHAR 250A
ENCODING 9482
SWIDTH 600 0
DWIDTH 5 0
BBX 1 9 2 -2
BITMAP
80
00
00
80
00
80
00
00
80
ENDCHAR
STARTCHAR 250B
ENCODING 9483
SWIDTH 600 0
DWIDTH 5 0
BBX 1 9 2 -2
BITMAP
80
00
00
80
00
80
00
00
80
ENDCHAR
STARTCHAR 250C
ENCODING 9484
SWIDTH 600 0
DWIDTH 5 0
BBX 3 6 2 -3
BITMAP
E0
80
80
80
80
80
ENDCHAR
STARTCHAR 250D
ENCODING 9485
SWIDTH 600 0
DWIDTH 5 0
BBX 3 6 2 -2
BITMAP
E0
E0
80
80
80
80
ENDCHAR
STARTCHAR 250E
ENCODING 9486
SWIDTH 600 0
DWIDTH 5 0
BBX 3 6 2 -3
BITMAP
E0
80
80
80
80
80
ENDCHAR
STARTCHAR 250F
ENCODING 9487
SWIDTH 600 0
DWIDTH 5 0
BBX 3 6 2 -2
BITMAP
E0
E0
80
80
80
80
ENDCHAR
STARTCHAR 2510
ENCODING 9488
SWIDTH 600 0
DWIDTH 5 0
BBX 3 6 0 -3
BITMAP
E0
20
20
20
20
20
ENDCHAR
STARTCHAR 2511
ENCODING 9489
SWIDTH 600 0
DWIDTH 5 0
BBX 3 6 0 -2
BITMAP
E0
E0
20
20
20
20
ENDCHAR
STARTCHAR 2512
ENCODING 9490
SWIDTH 600 0
DWIDTH 5 0
BBX 3 6 0 -3
BITMAP
E0
20
20
20
20
20
ENDCHAR
STARTCHAR 2513
ENCODING 9491
SWIDTH 600 0
DWIDTH 5 0
BBX 3 6 0 -2
BITMAP
E0
E0
20
20
20
20
ENDCHAR
STARTCHAR 2514
ENCODING 9492
SWIDTH 600 0
DWIDTH 5 0
BBX 3 6 2 2
BITMAP
80
80
80
80
80
E0
ENDCHAR
STARTCHAR 2515
ENCODING 9493
SWIDTH 600 0
DWIDTH 5 0
BBX 3 6 2 2
BITMAP
80
80
80
80
E0
E0
ENDCHAR
STARTCHAR 2516
ENCODING 9494
SWIDTH 600 0
DWIDTH 5 0
BBX 3 6 2 2
BITMAP
80
80
80
80
80
E0
ENDCHAR
STARTCHAR 2517
ENCODING 9495
SWIDTH 600 0
DWIDTH 5 0
BBX 3 6 2 2
BITMAP
80
80
80
80
E0
E0
ENDCHAR
STARTCHAR 2518
ENCODING 9496
SWIDTH 600 0
DWIDTH 5 0
BBX 3 6 0 2
BITMAP
20
20
20
20
20
E0
ENDCHAR
STARTCHAR 2519
ENCODING 9497
SWIDTH 600 0
DWIDTH 5 0
BBX 3 6 0 2
BITMAP
20
20
20
20
E0
E0
ENDCHAR
STARTCHAR 251A
ENCODING 9498
SWIDTH 600 0
DWIDTH 5 0
BBX 3 6 0 2
BITMAP
20
20
20
20
20
E0
ENDCHAR
STARTCHAR 251B
ENCODING 9499
SWIDTH 600 0
DWIDTH 5 0
BBX 3 6 0 2
BITMAP
20
20
20
20
E0
E0
ENDCHAR
STARTCHAR 251C
ENCODING 9500
SWIDTH 600 0
DWIDTH 5 0
BBX 3 11 2 -3
BITMAP
80
80
80
80
80
E0
80
80
80
80
80
ENDCHAR
STARTCHAR 251D
ENCODING 9501
SWIDTH 600 0
DWIDTH 5 0
BBX 3 10 2 -2
BITMAP
80
80
80
80
E0
E0
80
80
80
80
ENDCHAR
STARTCHAR 251E
ENCODING 9502
SWIDTH 600 0
DWIDTH 5 0
BBX 3 11 2 -3
BITMAP
80
80
80
80
80
E0
80
80
80
80
80
ENDCHAR
STARTCHAR 251F
ENCODING 9503
SWIDTH 600 0
DWIDTH 5 0
BBX 3 11 2 -3
BITMAP
80
80
80
80
80
E0
80
80
80
80
80
ENDCHAR
STARTCHAR 2520
ENCODING 9504
SWIDTH 600 0
DWIDTH 5 0
BBX 3 11 2 -3
BITMAP
80
80
80
80
80
E0
80
80
80
80
80
ENDCHAR
STARTCHAR 2521
ENCODING 9505
SWIDTH 600 0
DWIDTH 5 0
BBX 3 10 2 -2
BITMAP
80
80
80
80
E0
E0
80
80
80
80
ENDCHAR
STARTCHAR 2522
ENCODING 9506
SWIDTH 600 0
DWIDTH 5 0
BBX 3 10 2 -2
BITMAP
80
80
80
80
E0
E0
80
80
80
80
ENDCHAR
STARTCHAR 2523
ENCODING 9507
SWIDTH 600 0
DWIDTH 5 0
BBX 3 10 2 -2
BITMAP
80
80
80
80
E0
E0
80
80
80
80
ENDCHAR
STARTCHAR 2524
ENCODING 9508
SWIDTH 600 0
DWIDTH 5 0
BBX 3 11 0 -3
BITMAP
20
20
20
20
20
E0
20
20
20
20
20
ENDCHAR
STARTCHAR 2525
ENCODING 9509
SWIDTH 600 0
DWIDTH 5 0
BBX 3 10 0 -2
BITMAP
20
20
20
20
E0
E0
20
20
20
20
ENDCHAR
STARTCHAR 2526
ENCODING 9510
SWIDTH 600 0
DWIDTH 5 0
BBX 3 11 0 -3
BITMAP
20
20
20
20
20
E0
20
20
20
20
20
ENDCHAR
STARTCHAR 2527
ENCODING 9511
SWIDTH 600 0
DWIDTH 5 0
BBX 3 11 0 -3
BITMAP
20
20
20
20
20
E0
20
20
20
20
20
ENDCHAR
STARTCHAR 2528
ENCODING 9512
SWIDTH 600 0
DWIDTH 5 0
BBX 3 11 0 -3
BITMAP
20
20
20
20
20
E0
20
20
20
20
20
ENDCHAR
STARTCHAR 2529
ENCODING 9513
SWIDTH 600 0
DWIDTH 5 0
BBX 3 10 0 -2
BITMAP
20
20
20
20
E0
E0
20
20
20
20
ENDCHAR
STARTCHAR 252A
ENCODING 9514
SWIDTH 600 0
DWIDTH 5 0
BBX 3 10 0 -2
BITMAP
20
20
20
20
E0
E0
20
20
20
20
ENDCHAR
STARTCHAR 252B
ENCODING 9515
SWIDTH 600 0
DWIDTH 5 0
BBX 3 10 0 -2
BITMAP
20
20
20
20
E0
E0
20
20
20
20
ENDCHAR
STARTCHAR 252C
ENCODING 9516
SWIDTH 600 0
DWIDTH 5 0
BBX 5 6 0 -3
BITMAP
F8
20
20
20
20
20
ENDCHAR
STARTCHAR 252D
ENCODING 9517
SWIDTH 600 0
DWIDTH 5 0
BBX 5 5 0 -2
BITMAP
F8
20
20
20
20
ENDCHAR
STARTCHAR 252E
ENCODING 9518
SWIDTH 600 0
DWIDTH 5 0
BBX 5 6 0 -3
BITMAP
F8
20
20
20
20
20
ENDCHAR
STARTCHAR 252F
ENCODING 9519
SWIDTH 600 0
DWIDTH 5 0
BBX 5 6 0 -2
BITMAP
F8
F8
20
20
20
20
ENDCHAR
STARTCHAR 2530
ENCODING 9520
SWIDTH 600 0
DWIDTH 5 0
BBX 5 6 0 -3
BITMAP
F8
20
20
20
20
20
ENDCHAR
STARTCHAR 2531
ENCODING 9521
SWIDTH 600 0
DWIDTH 5 0
BBX 5 6 0 -2
BITMAP
E0
F8
20
20
20
20
ENDCHAR
STARTCHAR 2532
ENCODING 9522
SWIDTH 600 0
DWIDTH 5 0
BBX 5 7 0 -3
BITMAP
38
F8
20
20
20
20
20
ENDCHAR
STARTCHAR 2533
ENCODING 9523
SWIDTH 600 0
DWIDTH 5 0
BBX 5 6 0 -2
BITMAP
F8
F8
20
20
20
20
ENDCHAR
STARTCHAR 2534
ENCODING 9524
SWIDTH 600 0
DWIDTH 5 0
BBX 5 6 0 2
BITMAP
20
20
20
20
20
F8
ENDCHAR
STARTCHAR 2535
ENCODING 9525
SWIDTH 600 0
DWIDTH 5 0
BBX 5 6 0 2
BITMAP
20
20
20
20
E0
F8
ENDCHAR
STARTCHAR 2536
ENCODING 9526
SWIDTH 600 0
DWIDTH 5 0
BBX 5 6 0 2
BITMAP
20
20
20
20
38
F8
ENDCHAR
STARTCHAR 2537
ENCODING 9527
SWIDTH 600 0
DWIDTH 5 0
BBX 5 6 0 2
BITMAP
20
20
20
20
F8
F8
ENDCHAR
STARTCHAR 2538
ENCODING 9528
SWIDTH 600 0
DWIDTH 5 0
BBX 5 6 0 2
BITMAP
20
20
20
20
20
F8
ENDCHAR
STARTCHAR 2539
ENCODING 9529
SWIDTH 600 0
DWIDTH 5 0
BBX 5 6 0 2
BITMAP
20
20
20
20
E0
F8
ENDCHAR
STARTCHAR 253A
ENCODING 9530
SWIDTH 600 0
DWIDTH 5 0
BBX 5 6 0 2
BITMAP
20
20
20
20
38
F8
ENDCHAR
STARTCHAR 253B
ENCODING 9531
SWIDTH 600 0
DWIDTH 5 0
BBX 5 6 0 2
BITMAP
20
20
20
20
F8
F8
ENDCHAR
STARTCHAR 253C
ENCODING 9532
SWIDTH 600 0
DWIDTH 5 0
BBX 5 11 0 -3
BITMAP
20
20
20
20
20
F8
20
20
20
20
20
ENDCHAR
STARTCHAR 253D
ENCODING 9533
SWIDTH 600 0
DWIDTH 5 0
BBX 5 10 0 -2
BITMAP
20
20
20
20
E0
F8
20
20
20
20
ENDCHAR
STARTCHAR 253E
ENCODING 9534
SWIDTH 600 0
DWIDTH 5 0
BBX 5 11 0 -3
BITMAP
20
20
20
20
38
F8
20
20
20
20
20
ENDCHAR
STARTCHAR 253F
ENCODING 9535
SWIDTH 600 0
DWIDTH 5 0
BBX 5 10 0 -2
BITMAP
20
20
20
20
F8
F8
20
20
20
20
ENDCHAR
STARTCHAR 2540
ENCODING 9536
SWIDTH 600 0
DWIDTH 5 0
BBX 5 11 0 -3
BITMAP
20
20
20
20
20
F8
20
20
20
20
20
ENDCHAR
STARTCHAR 2541
ENCODING 9537
SWIDTH 600 0
DWIDTH 5 0
BBX 5 11 0 -3
BITMAP
20
20
20
20
20
F8
20
20
20
20
20
ENDCHAR
STARTCHAR 2542
ENCODING 9538
SWIDTH 600 0
DWIDTH 5 0
BBX 5 11 0 -3
BITMAP
20
20
20
20
20
F8
20
20
20
20
20
ENDCHAR
STARTCHAR 2543
ENCODING 9539
SWIDTH 600 0
DWIDTH 5 0
BBX 5 10 0 -2
BITMAP
20
20
20
20
E0
F8
20
20
20
20
ENDCHAR
STARTCHAR 2544
ENCODING 9540
SWIDTH 600 0
DWIDTH 5 0
BBX 5 11 0 -3
BITMAP
20
20
20
20
38
F8
20
20
20
20
20
ENDCHAR
STARTCHAR 2545
ENCODING 9541
SWIDTH 600 0
DWIDTH 5 0
BBX 5 10 0 -2
BITMAP
20
20
20
20
E0
F8
20
20
20
20
ENDCHAR
STARTCHAR 2546
ENCODING 9542
SWIDTH 600 0
DWIDTH 5 0
BBX 5 11 0 -3
BITMAP
20
20
20
20
38
F8
20
20
20
20
20
ENDCHAR
STARTCHAR 2547
ENCODING 9543
SWIDTH 600 0
DWIDTH 5 0
BBX 5 10 0 -2
BITMAP
20
20
20
20
F8
F8
20
20
20
20
ENDCHAR
STARTCHAR 2548
ENCODING 9544
SWIDTH 600 0
DWIDTH 5 0
BBX 5 10 0 -2
BITMAP
20
20
20
20
F8
F8
20
20
20
20
ENDCHAR
STARTCHAR 2549
ENCODING 9545
SWIDTH 600 0
DWIDTH 5 0
BBX 5 10 0 -2
BITMAP
20
20
20
20
E0
F8
20
20
20
20
ENDCHAR
STARTCHAR 254A
ENCODING 9546
SWIDTH 600 0
DWIDTH 5 0
BBX 5 11 0 -3
BITMAP
20
20
20
20
38
F8
20
20
20
20
20
ENDCHAR
STARTCHAR 254B
ENCODING 9547
SWIDTH 600 0
DWIDTH 5 0
BBX 5 10 0 -2
BITMAP
20
20
20
20
F8
F8
20
20
20
20
ENDCHAR
STARTCHAR 254C
ENCODING 9548
SWIDTH 600 0
DWIDTH 5 0
BBX 5 1 0 2
BITMAP
D8
ENDCHAR
STARTCHAR 254D
ENCODING 9549
SWIDTH 600 0
DWIDTH 5 0
BBX 5 2 0 2
BITMAP
D8
D8
ENDCHAR
STARTCHAR 254E
ENCODING 9550
SWIDTH 600 0
DWIDTH 5 0
BBX 1 9 2 -2
BITMAP
80
80
80
80
00
80
80
80
80
ENDCHAR
STARTCHAR 254F
ENCODING 9551
SWIDTH 600 0
DWIDTH 5 0
BBX 1 9 2 -2
BITMAP
80
80
80
80
00
80
80
80
80
ENDCHAR
STARTCHAR 2550
ENCODING 9552
SWIDTH 600 0
DWIDTH 5 0
BBX 5 3 0 1
BITMAP
F8
00
F8
ENDCHAR
STARTCHAR 2551
ENCODING 9553
SWIDTH 600 0
DWIDTH 5 0
BBX 2 10 2 -2
BITMAP
C0
C0
C0
C0
C0
C0
C0
C0
C0
C0
ENDCHAR
STARTCHAR 2552
ENCODING 9554
SWIDTH 600 0
DWIDTH 5 0
BBX 3 7 2 -3
BITMAP
E0
80
E0
80
80
80
80
ENDCHAR
STARTCHAR 2553
ENCODING 9555
SWIDTH 600 0
DWIDTH 5 0
BBX 3 6 2 -3
BITMAP
E0
C0
C0
C0
C0
40
ENDCHAR
STARTCHAR 2554
ENCODING 9556
SWIDTH 600 0
DWIDTH 5 0
BBX 3 7 2 -3
BITMAP
E0
80
E0
C0
C0
C0
40
ENDCHAR
STARTCHAR 2555
ENCODING 9557
SWIDTH 600 0
DWIDTH 5 0
BBX 3 7 0 -3
BITMAP
E0
20
E0
20
20
20
20
ENDCHAR
STARTCHAR 2556
ENCODING 9558
SWIDTH 600 0
DWIDTH 5 0
BBX 4 6 0 -3
BITMAP
F0
50
50
50
50
10
ENDCHAR
STARTCHAR 2557
ENCODING 9559
SWIDTH 600 0
DWIDTH 5 0
BBX 4 7 0 -3
BITMAP
F0
10
D0
50
50
50
10
ENDCHAR
STARTCHAR 2558
ENCODING 9560
SWIDTH 600 0
DWIDTH 5 0
BBX 3 7 2 1
BITMAP
80
80
80
80
E0
80
E0
ENDCHAR
STARTCHAR 2559
ENCODING 9561
SWIDTH 600 0
DWIDTH 5 0
BBX 3 6 2 2
BITMAP
40
C0
C0
C0
C0
E0
ENDCHAR
STARTCHAR 255A
ENCODING 9562
SWIDTH 600 0
DWIDTH 5 0
BBX 3 7 2 1
BITMAP
40
C0
C0
C0
E0
80
E0
ENDCHAR
STARTCHAR 255B
ENCODING 9563
SWIDTH 600 0
DWIDTH 5 0
BBX 3 7 0 1
BITMAP
20
20
20
20
E0
20
E0
ENDCHAR
STARTCHAR 255C
ENCODING 9564
SWIDTH 600 0
DWIDTH 5 0
BBX 4 6 0 2
BITMAP
10
50
50
50
50
F0
ENDCHAR
STARTCHAR 255D
ENCODING 9565
SWIDTH 600 0
DWIDTH 5 0
BBX 4 7 0 1
BITMAP
10
50
50
50
D0
10
F0
ENDCHAR
STARTCHAR 255E
ENCODING 9566
SWIDTH 600 0
DWIDTH 5 0
BBX 3 11 2 -3
BITMAP
80
80
80
80
E0
80
E0
80
80
80
80
ENDCHAR
STARTCHAR 255F
ENCODING 9567
SWIDTH 600 0
DWIDTH 5 0
BBX 3 11 2 -3
BITMAP
40
C0
C0
C0
C0
E0
C0
C0
C0
C0
40
ENDCHAR
STARTCHAR 2560
ENCODING 9568
SWIDTH 600 0
DWIDTH 5 0
BBX 3 11 2 -3
BITMAP
40
C0
C0
C0
E0
80
E0
C0
C0
C0
40
ENDCHAR
STARTCHAR 2561
ENCODING 9569
SWIDTH 600 0
DWIDTH 5 0
BBX 3 11 0 -3
BITMAP
20
20
20
20
E0
20
E0
20
20
20
20
ENDCHAR
STARTCHAR 2562
ENCODING 9570
SWIDTH 600 0
DWIDTH 5 0
BBX 4 11 0 -3
BITMAP
10
50
50
50
50
D0
50
50
50
50
10
ENDCHAR
STARTCHAR 2563
ENCODING 9571
SWIDTH 600 0
DWIDTH 5 0
BBX 4 11 0 -3
BITMAP
10
50
50
50
D0
10
D0
50
50
50
10
ENDCHAR
STARTCHAR 2564
ENCODING 9572
SWIDTH 600 0
DWIDTH 5 0
BBX 5 7 0 -3
BITMAP
F8
00
F8
20
20
20
20
ENDCHAR
STARTCHAR 2565
ENCODING 9573
SWIDTH 600 0
DWIDTH 5 0
BBX 5 6 0 -3
BITMAP
F8
50
50
50
50
10
ENDCHAR
STARTCHAR 2566
ENCODING 9574
SWIDTH 600 0
DWIDTH 5 0
BBX 5 7 0 -3
BITMAP
F8
00
D8
50
50
50
10
ENDCHAR
STARTCHAR 2567
ENCODING 9575
SWIDTH 600 0
DWIDTH 5 0
BBX 5 7 0 1
BITMAP
20
20
20
20
F8
00
F8
ENDCHAR
STARTCHAR 2568
ENCODING 9576
SWIDTH 600 0
DWIDTH 5 0
BBX 5 6 0 2
BITMAP
10
50
50
50
50
F8
ENDCHAR
STARTCHAR 2569
ENCODING 9577
SWIDTH 600 0
DWIDTH 5 0
BBX 5 7 0 1
BITMAP
10
50
50
50
D8
00
F8
ENDCHAR
STARTCHAR 256A
ENCODING 9578
SWIDTH 600 0
DWIDTH 5 0
BBX 5 11 0 -3
BITMAP
20
20
20
20
F8
00
F8
20
20
20
20
ENDCHAR
STARTCHAR 256B
ENCODING 9579
SWIDTH 600 0
DWIDTH 5 0
BBX 5 11 0 -3
BITMAP
10
50
50
50
50
D8
50
50
50
50
10
ENDCHAR
STARTCHAR 256C
ENCODING 9580
SWIDTH 600 0
DWIDTH 5 0
BBX 5 11 0 -3
BITMAP
10
50
50
50
D8
00
D8
50
50
50
10
ENDCHAR
STARTCHAR 256D
ENCODING 9581
SWIDTH 600 0
DWIDTH 5 0
BBX 3 6 2 -3
BITMAP
E0
80
80
80
80
80
ENDCHAR
STARTCHAR 256E
ENCODING 9582
SWIDTH 600 0
DWIDTH 5 0
BBX 3 6 0 -3
BITMAP
E0
20
20
20
20
20
ENDCHAR
STARTCHAR 256F
ENCODING 9583
SWIDTH 600 0
DWIDTH 5 0
BBX 3 6 0 2
BITMAP
20
20
20
20
20
C0
ENDCHAR
STARTCHAR 2570
ENCODING 9584
SWIDTH 600 0
DWIDTH 5 0
BBX 3 6 2 2
BITMAP
80
80
80
80
80
60
ENDCHAR
STARTCHAR 2571
ENCODING 9585
SWIDTH 600 0
DWIDTH 5 0
BBX 5 10 0 -2
BITMAP
08
08
10
10
20
20
40
40
80
80
ENDCHAR
STARTCHAR 2572
ENCODING 9586
SWIDTH 600 0
DWIDTH 5 0
BBX 5 10 0 -2
BITMAP
80
80
40
40
20
20
10
10
08
08
ENDCHAR
STARTCHAR 2573
ENCODING 9587
SWIDTH 600 0
DWIDTH 5 0
BBX 5 10 0 -2
BITMAP
88
88
50
50
20
20
50
50
88
88
ENDCHAR
STARTCHAR 2574
ENCODING 9588
SWIDTH 600 0
DWIDTH 5 0
BBX 3 1 0 2
BITMAP
E0
ENDCHAR
STARTCHAR 2575
ENCODING 9589
SWIDTH 600 0
DWIDTH 5 0
BBX 1 5 2 3
BITMAP
80
80
80
80
80
ENDCHAR
STARTCHAR 2576
ENCODING 9590
SWIDTH 600 0
DWIDTH 5 0
BBX 2 1 3 2
BITMAP
C0
ENDCHAR
STARTCHAR 2577
ENCODING 9591
SWIDTH 600 0
DWIDTH 5 0
BBX 1 5 2 -2
BITMAP
80
80
80
80
80
ENDCHAR
STARTCHAR 2578
ENCODING 9592
SWIDTH 600 0
DWIDTH 5 0
BBX 3 2 0 2
BITMAP
E0
E0
ENDCHAR
STARTCHAR 2579
ENCODING 9593
SWIDTH 600 0
DWIDTH 5 0
BBX 1 5 2 3
BITMAP
80
80
80
80
80
ENDCHAR
STARTCHAR 257A
ENCODING 9594
SWIDTH 600 0
DWIDTH 5 0
BBX 2 2 3 2
BITMAP
C0
C0
ENDCHAR
STARTCHAR 257B
ENCODING 9595
SWIDTH 600 0
DWIDTH 5 0
BBX 1 5 2 -2
BITMAP
80
80
80
80
80
ENDCHAR
STARTCHAR 257C
ENCODING 9596
SWIDTH 600 0
DWIDTH 5 0
BBX 5 1 0 2
BITMAP
F8
ENDCHAR
STARTCHAR 257D
ENCODING 9597
SWIDTH 600 0
DWIDTH 5 0
BBX 1 10 2 -2
BITMAP
80
80
80
80
80
80
80
80
80
80
ENDCHAR
STARTCHAR 257E
ENCODING 9598
SWIDTH 600 0
DWIDTH 5 0
BBX 5 1 0 2
BITMAP
F8
ENDCHAR
STARTCHAR 257F
ENCODING 9599
SWIDTH 600 0
DWIDTH 5 0
BBX 1 10 2 -2
BITMAP
80
80
80
80
80
80
80
80
80
80
ENDCHAR
STARTCHAR 2580
ENCODING 9600
SWIDTH 600 0
DWIDTH 5 0
BBX 5 5 0 3
BITMAP
F8
F8
F8
F8
F8
ENDCHAR
STARTCHAR 2581
ENCODING 9601
SWIDTH 600 0
DWIDTH 5 0
BBX 5 1 0 -2
BITMAP
F8
ENDCHAR
STARTCHAR 2582
ENCODING 9602
SWIDTH 600 0
DWIDTH 5 0
BBX 5 3 0 -3
BITMAP
F8
F8
F8
ENDCHAR
STARTCHAR 2583
ENCODING 9603
SWIDTH 600 0
DWIDTH 5 0
BBX 5 4 0 -3
BITMAP
F8
F8
F8
F8
ENDCHAR
STARTCHAR 2584
ENCODING 9604
SWIDTH 600 0
DWIDTH 5 0
BBX 5 5 0 -2
BITMAP
F8
F8
F8
F8
F8
ENDCHAR
STARTCHAR 2585
ENCODING 9605
SWIDTH 600 0
DWIDTH 5 0
BBX 5 7 0 -3
BITMAP
F8
F8
F8
F8
F8
F8
F8
ENDCHAR
STARTCHAR 2586
ENCODING 9606
SWIDTH 600 0
DWIDTH 5 0
BBX 5 8 0 -3
BITMAP
F8
F8
F8
F8
F8
F8
F8
F8
ENDCHAR
STARTCHAR 2587
ENCODING 9607
SWIDTH 600 0
DWIDTH 5 0
BBX 5 9 0 -2
BITMAP
F8
F8
F8
F8
F8
F8
F8
F8
F8
ENDCHAR
STARTCHAR 2588
ENCODING 9608
SWIDTH 600 0
DWIDTH 5 0
BBX 5 10 0 -2
BITMAP
F8
F8
F8
F8
F8
F8
F8
F8
F8
F8
ENDCHAR
STARTCHAR 2589
ENCODING 9609
SWIDTH 600 0
DWIDTH 5 0
BBX 5 10 0 -2
BITMAP
F8
F8
F8
F8
F8
F8
F8
F8
F8
F8
ENDCHAR
STARTCHAR 258A
ENCODING 9610
SWIDTH 600 0
DWIDTH 5 0
BBX 4 10 0 -2
BITMAP
F0
F0
F0
F0
F0
F0
F0
F0
F0
F0
ENDCHAR
STARTCHAR 258B
ENCODING 9611
SWIDTH 600 0
DWIDTH 5 0
BBX 3 10 0 -2
BITMAP
E0
E0
E0
E0
E0
E0
E0
E0
E0
E0
ENDCHAR
STARTCHAR 258C
ENCODING 9612
SWIDTH 600 0
DWIDTH 5 0
BBX 3 10 0 -2
BITMAP
E0
E0
E0
E0
E0
E0
E0
E0
E0
E0
ENDCHAR
STARTCHAR 258D
ENCODING 9613
SWIDTH 600 0
DWIDTH 5 0
BBX 2 10 0 -2
BITMAP
C0
C0
C0
C0
C0
C0
C0
C0
C0
C0
ENDCHAR
STARTCHAR 258E
ENCODING 9614
SWIDTH 600 0
DWIDTH 5 0
BBX 1 10 0 -2
BITMAP
80
80
80
80
80
80
80
80
80
80
ENDCHAR
STARTCHAR 258F
ENCODING 9615
SWIDTH 600 0
DWIDTH 5 0
BBX 1 10 0 -2
BITMAP
80
80
80
80
80
80
80
80
80
80
ENDCHAR
STARTCHAR 2590
ENCODING 9616
SWIDTH 600 0
DWIDTH 5 0
BBX 2 10 3 -2
BITMAP
C0
C0
C0
C0
C0
C0
C0
C0
C0
C0
ENDCHAR
STARTCHAR 2591
ENCODING 9617
SWIDTH 600 0
DWIDTH 5 0
BBX 5 11 0 -3
BITMAP
80
00
48
80
00
00
80
48
00
00
48
ENDCHAR
STARTCHAR 2592
ENCODING 9618
SWIDTH 600 0
DWIDTH 5 0
BBX 4 11 0 -3
BITMAP
30
C0
F0
30
F0
C0
30
F0
C0
30
C0
ENDCHAR
STARTCHAR 2593
ENCODING 9619
SWIDTH 600 0
DWIDTH 5 0
BBX 5 12 0 -3
BITMAP
F8
F8
B8
F8
F8
F8
F8
F8
F8
F8
F8
F8
ENDCHAR
STARTCHAR 2594
ENCODING 9620
SWIDTH 600 0
DWIDTH 5 0
BBX 5 1 0 7
BITMAP
F8
ENDCHAR
STARTCHAR 2595
ENCODING 9621
SWIDTH 600 0
DWIDTH 5 0
BBX 1 10 4 -2
BITMAP
80
80
80
80
80
80
80
80
80
80
ENDCHAR
STARTCHAR 2596
ENCODING 9622
SWIDTH 600 0
DWIDTH 5 0
BBX 3 5 0 -2
BITMAP
E0
E0
E0
E0
E0
ENDCHAR
STARTCHAR 2597
ENCODING 9623
SWIDTH 600 0
DWIDTH 5 0
BBX 2 5 3 -2
BITMAP
C0
C0
C0
C0
C0
ENDCHAR
STARTCHAR 2598
ENCODING 9624
SWIDTH 600 0
DWIDTH 5 0
BBX 3 5 0 3
BITMAP
E0
E0
E0
E0
E0
ENDCHAR
STARTCHAR 2599
ENCODING 9625
SWIDTH 600 0
DWIDTH 5 0
BBX 5 10 0 -2
BITMAP
E0
E0
E0
E0
E0
F8
F8
F8
F8
F8
ENDCHAR
STARTCHAR 259A
ENCODING 9626
SWIDTH 600 0
DWIDTH 5 0
BBX 5 10 0 -2
BITMAP
E0
E0
E0
E0
E0
18
18
18
18
18
ENDCHAR
STARTCHAR 259B
ENCODING 9627
SWIDTH 600 0
DWIDTH 5 0
BBX 5 10 0 -2
BITMAP
F8
F8
F8
F8
F8
E0
E0
E0
E0
E0
ENDCHAR
STARTCHAR 259C
ENCODING 9628
SWIDTH 600 0
DWIDTH 5 0
BBX 5 10 0 -2
BITMAP
F8
F8
F8
F8
F8
18
18
18
18
18
ENDCHAR
STARTCHAR 259D
ENCODING 9629
SWIDTH 600 0
DWIDTH 5 0
BBX 2 5 3 3
BITMAP
C0
C0
C0
C0
C0
ENDCHAR
STARTCHAR 259E
ENCODING 9630
SWIDTH 600 0
DWIDTH 5 0
BBX 5 10 0 -2
BITMAP
18
18
18
18
18
E0
E0
E0
E0
E0
ENDCHAR
STARTCHAR 259F
ENCODING 9631
SWIDTH 600 0
DWIDTH 5 0
BBX 5 10 0 -2
BITMAP
18
18
18
18
18
F8
F8
F8
F8
F8
ENDCHAR
STARTCHAR 25A0
ENCODING 9632
SWIDTH 600 0
DWIDTH 5 0
BBX 4 4 1 1
BITMAP
F0
F0
F0
F0
ENDCHAR
STARTCHAR 25A1
ENCODING 9633
SWIDTH 600 0
DWIDTH 5 0
BBX 4 4 1 1
BITMAP
F0
90
90
F0
ENDCHAR
STARTCHAR 25A2
ENCODING 9634
SWIDTH 600 0
DWIDTH 5 0
BBX 4 4 1 1
BITMAP
E0
90
90
E0
ENDCHAR
STARTCHAR 25A3
ENCODING 9635
SWIDTH 600 0
DWIDTH 5 0
BBX 4 4 1 1
BITMAP
F0
F0
F0
F0
ENDCHAR
STARTCHAR 25A4
ENCODING 9636
SWIDTH 600 0
DWIDTH 5 0
BBX 4 4 1 1
BITMAP
F0
F0
F0
F0
ENDCHAR
STARTCHAR 25A5
ENCODING 9637
SWIDTH 600 0
DWIDTH 5 0
BBX 4 4 1 1
BITMAP
F0
F0
F0
F0
ENDCHAR
STARTCHAR 25A6
ENCODING 9638
SWIDTH 600 0
DWIDTH 5 0
BBX 4 4 1 1
BITMAP
F0
F0
F0
F0
ENDCHAR
STARTCHAR 25A7
ENCODING 9639
SWIDTH 600 0
DWIDTH 5 0
BBX 4 4 1 1
BITMAP
F0
F0
F0
F0
ENDCHAR
STARTCHAR 25A8
ENCODING 9640
SWIDTH 600 0
DWIDTH 5 0
BBX 4 5 1 1
BITMAP
F0
B0
D0
F0
F0
ENDCHAR
STARTCHAR 25A9
ENCODING 9641
SWIDTH 600 0
DWIDTH 5 0
BBX 4 5 1 1
BITMAP
F0
F0
D0
F0
F0
ENDCHAR
STARTCHAR 25AA
ENCODING 9642
SWIDTH 600 0
DWIDTH 5 0
BBX 2 2 2 2
BITMAP
C0
C0
ENDCHAR
STARTCHAR 25AB
ENCODING 9643
SWIDTH 600 0
DWIDTH 5 0
BBX 2 2 2 2
BITMAP
C0
C0
ENDCHAR
STARTCHAR 25AC
ENCODING 9644
SWIDTH 600 0
DWIDTH 5 0
BBX 4 3 1 2
BITMAP
F0
F0
F0
ENDCHAR
STARTCHAR 25AD
ENCODING 9645
SWIDTH 600 0
DWIDTH 5 0
BBX 4 3 1 2
BITMAP
F0
90
F0
ENDCHAR
STARTCHAR 25AE
ENCODING 9646
SWIDTH 600 0
DWIDTH 5 0
BBX 3 4 1 1
BITMAP
E0
E0
E0
E0
ENDCHAR
STARTCHAR 25AF
ENCODING 9647
SWIDTH 600 0
DWIDTH 5 0
BBX 3 4 1 1
BITMAP
E0
A0
A0
E0
ENDCHAR
STARTCHAR 25B0
ENCODING 9648
SWIDTH 600 0
DWIDTH 5 0
BBX 5 3 0 2
BITMAP
78
70
F0
ENDCHAR
STARTCHAR 25B1
ENCODING 9649
SWIDTH 600 0
DWIDTH 5 0
BBX 5 3 0 2
BITMAP
F8
90
F0
ENDCHAR
STARTCHAR 25B2
ENCODING 9650
SWIDTH 600 0
DWIDTH 5 0
BBX 4 4 1 1
BITMAP
40
40
E0
F0
ENDCHAR
STARTCHAR 25B3
ENCODING 9651
SWIDTH 600 0
DWIDTH 5 0
BBX 5 4 0 1
BITMAP
60
50
90
F8
ENDCHAR
STARTCHAR 25B4
ENCODING 9652
SWIDTH 600 0
DWIDTH 5 0
BBX 2 2 2 2
BITMAP
80
C0
ENDCHAR
STARTCHAR 25B5
ENCODING 9653
SWIDTH 600 0
DWIDTH 5 0
BBX 3 2 1 3
BITMAP
C0
E0
ENDCHAR
STARTCHAR 25B6
ENCODING 9654
SWIDTH 600 0
DWIDTH 5 0
BBX 3 4 1 2
BITMAP
C0
E0
C0
80
ENDCHAR
STARTCHAR 25B7
ENCODING 9655
SWIDTH 600 0
DWIDTH 5 0
BBX 4 4 1 2
BITMAP
C0
B0
E0
80
ENDCHAR
STARTCHAR 25B8
ENCODING 9656
SWIDTH 600 0
DWIDTH 5 0
BBX 1 2 2 2
BITMAP
80
80
ENDCHAR
STARTCHAR 25B9
ENCODING 9657
SWIDTH 600 0
DWIDTH 5 0
BBX 2 2 2 3
BITMAP
C0
80
ENDCHAR
STARTCHAR 25BA
ENCODING 9658
SWIDTH 600 0
DWIDTH 5 0
BBX 4 3 1 2
BITMAP
80
F0
80
ENDCHAR
STARTCHAR 25BB
ENCODING 9659
SWIDTH 600 0
DWIDTH 5 0
BBX 3 3 1 2
BITMAP
80
E0
C0
ENDCHAR
STARTCHAR 25BC
ENCODING 9660
SWIDTH 600 0
DWIDTH 5 0
BBX 4 4 1 1
BITMAP
F0
E0
40
40
ENDCHAR
STARTCHAR 25BD
ENCODING 9661
SWIDTH 600 0
DWIDTH 5 0
BBX 5 4 0 1
BITMAP
F8
90
50
60
ENDCHAR
STARTCHAR 25BE
ENCODING 9662
SWIDTH 600 0
DWIDTH 5 0
BBX 2 2 2 2
BITMAP
C0
80
ENDCHAR
STARTCHAR 25BF
ENCODING 9663
SWIDTH 600 0
DWIDTH 5 0
BBX 3 2 1 2
BITMAP
E0
40
ENDCHAR
STARTCHAR 25C0
ENCODING 9664
SWIDTH 600 0
DWIDTH 5 0
BBX 3 4 1 2
BITMAP
20
E0
60
20
ENDCHAR
STARTCHAR 25C1
ENCODING 9665
SWIDTH 600 0
DWIDTH 5 0
BBX 5 5 0 1
BITMAP
08
38
C8
48
38
ENDCHAR
STARTCHAR 25C2
ENCODING 9666
SWIDTH 600 0
DWIDTH 5 0
BBX 2 3 2 2
BITMAP
40
C0
40
ENDCHAR
STARTCHAR 25C3
ENCODING 9667
SWIDTH 600 0
DWIDTH 5 0
BBX 3 3 1 2
BITMAP
20
E0
60
ENDCHAR
STARTCHAR 25C4
ENCODING 9668
SWIDTH 600 0
DWIDTH 5 0
BBX 5 3 0 2
BITMAP
18
F8
18
ENDCHAR
STARTCHAR 25C5
ENCODING 9669
SWIDTH 600 0
DWIDTH 5 0
BBX 4 3 1 2
BITMAP
70
90
70
ENDCHAR
STARTCHAR 25C6
ENCODING 9670
SWIDTH 600 0
DWIDTH 5 0
BBX 5 5 0 1
BITMAP
20
70
F8
70
20
ENDCHAR
STARTCHAR 25C7
ENCODING 9671
SWIDTH 600 0
DWIDTH 5 0
BBX 5 5 0 1
BITMAP
20
50
88
50
20
ENDCHAR
STARTCHAR 25C8
ENCODING 9672
SWIDTH 600 0
DWIDTH 5 0
BBX 5 5 0 1
BITMAP
20
70
F8
70
20
ENDCHAR
STARTCHAR 25C9
ENCODING 9673
SWIDTH 600 0
DWIDTH 5 0
BBX 5 5 0 1
BITMAP
F0
B8
F8
B8
F0
ENDCHAR
STARTCHAR 25CA
ENCODING 9674
SWIDTH 600 0
DWIDTH 5 0
BBX 3 6 1 0
BITMAP
C0
A0
A0
A0
C0
40
ENDCHAR
STARTCHAR 25CB
ENCODING 9675
SWIDTH 600 0
DWIDTH 5 0
BBX 5 4 0 1
BITMAP
70
88
88
70
ENDCHAR
STARTCHAR 25CC
ENCODING 9676
SWIDTH 600 0
DWIDTH 5 0
BBX 0 0 1 1
BITMAP
ENDCHAR
STARTCHAR 25CD
ENCODING 9677
SWIDTH 600 0
DWIDTH 5 0
BBX 4 4 1 1
BITMAP
E0
F0
F0
E0
ENDCHAR
STARTCHAR 25CE
ENCODING 9678
SWIDTH 600 0
DWIDTH 5 0
BBX 5 5 0 1
BITMAP
F0
F8
D8
D8
F0
ENDCHAR
STARTCHAR 25CF
ENCODING 9679
SWIDTH 600 0
DWIDTH 5 0
BBX 4 4 1 1
BITMAP
E0
F0
F0
E0
ENDCHAR
STARTCHAR 25D0
ENCODING 9680
SWIDTH 600 0
DWIDTH 5 0
BBX 4 4 1 1
BITMAP
E0
D0
D0
E0
ENDCHAR
STARTCHAR 25D1
ENCODING 9681
SWIDTH 600 0
DWIDTH 5 0
BBX 5 4 0 1
BITMAP
70
98
98
70
ENDCHAR
STARTCHAR 25D2
ENCODING 9682
SWIDTH 600 0
DWIDTH 5 0
BBX 5 4 0 1
BITMAP
70
88
78
70
ENDCHAR
STARTCHAR 25D3
ENCODING 9683
SWIDTH 600 0
DWIDTH 5 0
BBX 5 4 0 1
BITMAP
70
78
88
70
ENDCHAR
STARTCHAR 25D4
ENCODING 9684
SWIDTH 600 0
DWIDTH 5 0
BBX 5 4 0 1
BITMAP
70
98
88
70
ENDCHAR
STARTCHAR 25D5
ENCODING 9685
SWIDTH 600 0
DWIDTH 5 0
BBX 5 4 0 1
BITMAP
70
98
78
70
ENDCHAR
STARTCHAR 25D6
ENCODING 9686
SWIDTH 600 0
DWIDTH 5 0
BBX 3 5 1 1
BITMAP
60
E0
E0
E0
60
ENDCHAR
STARTCHAR 25D7
ENCODING 9687
SWIDTH 600 0
DWIDTH 5 0
BBX 3 5 1 1
BITMAP
C0
E0
E0
E0
C0
ENDCHAR
STARTCHAR 25D8
ENCODING 9688
SWIDTH 600 0
DWIDTH 5 0
BBX 5 10 0 -2
BITMAP
F8
F8
F8
F8
D8
C8
F8
F8
F8
F8
ENDCHAR
STARTCHAR 25D9
ENCODING 9689
SWIDTH 600 0
DWIDTH 5 0
BBX 5 10 0 -2
BITMAP
F8
F8
F8
A8
F8
F8
F8
F8
F8
F8
ENDCHAR
STARTCHAR 25DA
ENCODING 9690
SWIDTH 600 0
DWIDTH 5 0
BBX 5 5 0 3
BITMAP
F8
F8
F8
B8
F8
ENDCHAR
STARTCHAR 25DB
ENCODING 9691
SWIDTH 600 0
DWIDTH 5 0
BBX 5 5 0 -2
BITMAP
70
F8
F8
F8
F8
ENDCHAR
STARTCHAR 25DC
ENCODING 9692
SWIDTH 600 0
DWIDTH 5 0
BBX 1 1 1 3
BITMAP
80
ENDCHAR
STARTCHAR 25DD
ENCODING 9693
SWIDTH 600 0
DWIDTH 5 0
BBX 2 2 3 3
BITMAP
80
40
ENDCHAR
STARTCHAR 25DE
ENCODING 9694
SWIDTH 600 0
DWIDTH 5 0
BBX 2 2 3 1
BITMAP
40
80
ENDCHAR
STARTCHAR 25DF
ENCODING 9695
SWIDTH 600 0
DWIDTH 5 0
BBX 1 1 1 2
BITMAP
80
ENDCHAR
STARTCHAR 25E0
ENCODING 9696
SWIDTH 600 0
DWIDTH 5 0
BBX 4 2 1 3
BITMAP
E0
10
ENDCHAR
STARTCHAR 25E1
ENCODING 9697
SWIDTH 600 0
DWIDTH 5 0
BBX 4 2 1 1
BITMAP
10
E0
ENDCHAR
STARTCHAR 25E2
ENCODING 9698
SWIDTH 600 0
DWIDTH 5 0
BBX 4 4 1 1
BITMAP
10
30
70
F0
ENDCHAR
STARTCHAR 25E3
ENCODING 9699
SWIDTH 600 0
DWIDTH 5 0
BBX 3 4 1 1
BITMAP
80
80
C0
E0
ENDCHAR
STARTCHAR 25E4
ENCODING 9700
SWIDTH 600 0
DWIDTH 5 0
BBX 3 4 1 1
BITMAP
E0
C0
80
80
ENDCHAR
STARTCHAR 25E5
ENCODING 9701
SWIDTH 600 0
DWIDTH 5 0
BBX 4 4 1 1
BITMAP
F0
70
30
10
ENDCHAR
STARTCHAR 25E6
ENCODING 9702
SWIDTH 600 0
DWIDTH 5 0
BBX 3 2 1 2
BITMAP
E0
E0
ENDCHAR
STARTCHAR 25E7
ENCODING 9703
SWIDTH 600 0
DWIDTH 5 0
BBX 4 4 1 1
BITMAP
F0
D0
D0
F0
ENDCHAR
STARTCHAR 25E8
ENCODING 9704
SWIDTH 600 0
DWIDTH 5 0
BBX 4 4 1 1
BITMAP
F0
B0
B0
F0
ENDCHAR
STARTCHAR 25E9
ENCODING 9705
SWIDTH 600 0
DWIDTH 5 0
BBX 4 4 1 1
BITMAP
F0
D0
90
F0
ENDCHAR
STARTCHAR 25EA
ENCODING 9706
SWIDTH 600 0
DWIDTH 5 0
BBX 4 4 1 1
BITMAP
F0
B0
F0
F0
ENDCHAR
STARTCHAR 25EB
ENCODING 9707
SWIDTH 600 0
DWIDTH 5 0
BBX 4 4 1 1
BITMAP
F0
D0
D0
F0
ENDCHAR
STARTCHAR 25EC
ENCODING 9708
SWIDTH 600 0
DWIDTH 5 0
BBX 5 4 0 1
BITMAP
60
50
B0
F8
ENDCHAR
STARTCHAR 25ED
ENCODING 9709
SWIDTH 600 0
DWIDTH 5 0
BBX 5 4 0 1
BITMAP
20
30
70
F8
ENDCHAR
STARTCHAR 25EE
ENCODING 9710
SWIDTH 600 0
DWIDTH 5 0
BBX 5 4 0 1
BITMAP
60
50
90
F8
ENDCHAR
STARTCHAR 25EF
ENCODING 9711
SWIDTH 600 0
DWIDTH 5 0
BBX 5 4 0 1
BITMAP
F8
88
88
F8
ENDCHAR
STARTCHAR 25F0
ENCODING 9712
SWIDTH 600 0
DWIDTH 5 0
BBX 4 4 1 1
BITMAP
F0
D0
90
F0
ENDCHAR
STARTCHAR 25F1
ENCODING 9713
SWIDTH 600 0
DWIDTH 5 0
BBX 4 4 1 1
BITMAP
F0
90
D0
F0
ENDCHAR
STARTCHAR 25F2
ENCODING 9714
SWIDTH 600 0
DWIDTH 5 0
BBX 4 4 1 1
BITMAP
F0
90
F0
F0
ENDCHAR
STARTCHAR 25F3
ENCODING 9715
SWIDTH 600 0
DWIDTH 5 0
BBX 4 4 1 1
BITMAP
F0
D0
F0
F0
ENDCHAR
STARTCHAR 25F4
ENCODING 9716
SWIDTH 600 0
DWIDTH 5 0
BBX 5 4 0 1
BITMAP
70
A8
C8
70
ENDCHAR
STARTCHAR 25F5
ENCODING 9717
SWIDTH 600 0
DWIDTH 5 0
BBX 5 4 0 1
BITMAP
F0
88
E8
F0
ENDCHAR
STARTCHAR 25F6
ENCODING 9718
SWIDTH 600 0
DWIDTH 5 0
BBX 5 4 0 1
BITMAP
70
88
B8
70
ENDCHAR
STARTCHAR 25F7
ENCODING 9719
SWIDTH 600 0
DWIDTH 5 0
BBX 5 4 0 1
BITMAP
F0
A8
98
F0
ENDCHAR
STARTCHAR 25F8
ENCODING 9720
SWIDTH 600 0
DWIDTH 5 0
BBX 3 4 1 1
BITMAP
E0
C0
80
80
ENDCHAR
STARTCHAR 25F9
ENCODING 9721
SWIDTH 600 0
DWIDTH 5 0
BBX 5 4 0 1
BITMAP
F8
48
28
18
ENDCHAR
STARTCHAR 25FA
ENCODING 9722
SWIDTH 600 0
DWIDTH 5 0
BBX 3 4 1 1
BITMAP
80
80
C0
E0
ENDCHAR
STARTCHAR 25FB
ENCODING 9723
SWIDTH 600 0
DWIDTH 5 0
BBX 3 2 1 2
BITMAP
E0
E0
ENDCHAR
STARTCHAR 25FC
ENCODING 9724
SWIDTH 600 0
DWIDTH 5 0
BBX 3 3 1 2
BITMAP
E0
E0
E0
ENDCHAR
STARTCHAR 25FD
ENCODING 9725
SWIDTH 600 0
DWIDTH 5 0
BBX 3 3 1 2
BITMAP
E0
A0
E0
ENDCHAR
STARTCHAR 25FE
ENCODING 9726
SWIDTH 600 0
DWIDTH 5 0
BBX 3 3 1 2
BITMAP
E0
E0
E0
ENDCHAR
STARTCHAR 25FF
ENCODING 9727
SWIDTH 600 0
DWIDTH 5 0
BBX 5 4 0 1
BITMAP
08
38
48
F8
ENDCHAR
STARTCHAR 2605
ENCODING 9733
SWIDTH 600 0
DWIDTH 5 0
BBX 4 4 1 1
BITMAP
40
F0
60
A0
ENDCHAR
STARTCHAR 2606
ENCODING 9734
SWIDTH 600 0
DWIDTH 5 0
BBX 4 4 0 2
BITMAP
60
90
70
40
ENDCHAR
STARTCHAR 2609
ENCODING 9737
SWIDTH 600 0
DWIDTH 5 0
BBX 5 5 0 0
BITMAP
F8
A8
88
90
60
ENDCHAR
STARTCHAR 2610
ENCODING 9744
SWIDTH 600 0
DWIDTH 5 0
BBX 5 4 0 1
BITMAP
F8
88
88
F8
ENDCHAR
STARTCHAR 2611
ENCODING 9745
SWIDTH 600 0
DWIDTH 5 0
BBX 5 5 0 1
BITMAP
F8
98
A8
C8
F8
ENDCHAR
STARTCHAR 2612
ENCODING 9746
SWIDTH 600 0
DWIDTH 5 0
BBX 5 4 0 1
BITMAP
F8
E8
E8
F8
ENDCHAR
STARTCHAR 2622
ENCODING 9762
SWIDTH 600 0
DWIDTH 5 0
BBX 5 4 0 1
BITMAP
F0
78
A8
70
ENDCHAR
STARTCHAR 262E
ENCODING 9774
SWIDTH 600 0
DWIDTH 5 0
BBX 5 4 0 1
BITMAP
70
A8
B8
70
ENDCHAR
STARTCHAR 262F
ENCODING 9775
SWIDTH 600 0
DWIDTH 5 0
BBX 4 4 1 1
BITMAP
E0
90
D0
E0
ENDCHAR
STARTCHAR 2630
ENCODING 9776
SWIDTH 600 0
DWIDTH 5 0
BBX 3 4 1 1
BITMAP
E0
00
E0
E0
ENDCHAR
STARTCHAR 2631
ENCODING 9777
SWIDTH 600 0
DWIDTH 5 0
BBX 3 4 1 1
BITMAP
A0
00
E0
E0
ENDCHAR
STARTCHAR 2632
ENCODING 9778
SWIDTH 600 0
DWIDTH 5 0
BBX 3 4 1 1
BITMAP
E0
00
A0
E0
ENDCHAR
STARTCHAR 2633
ENCODING 9779
SWIDTH 600 0
DWIDTH 5 0
BBX 3 4 1 1
BITMAP
A0
00
A0
E0
ENDCHAR
STARTCHAR 2634
ENCODING 9780
SWIDTH 600 0
DWIDTH 5 0
BBX 3 4 1 1
BITMAP
E0
00
E0
A0
ENDCHAR
STARTCHAR 2635
ENCODING 9781
SWIDTH 600 0
DWIDTH 5 0
BBX 3 4 1 1
BITMAP
A0
00
E0
A0
ENDCHAR
STARTCHAR 2636
ENCODING 9782
SWIDTH 600 0
DWIDTH 5 0
BBX 3 4 1 1
BITMAP
E0
00
A0
A0
ENDCHAR
STARTCHAR 2637
ENCODING 9783
SWIDTH 600 0
DWIDTH 5 0
BBX 3 4 1 1
BITMAP
A0
00
A0
A0
ENDCHAR
STARTCHAR 2639
ENCODING 9785
SWIDTH 600 0
DWIDTH 5 0
BBX 5 4 0 1
BITMAP
70
88
88
70
ENDCHAR
STARTCHAR 263A
ENCODING 9786
SWIDTH 600 0
DWIDTH 5 0
BBX 5 4 0 1
BITMAP
70
88
88
70
ENDCHAR
STARTCHAR 263B
ENCODING 9787
SWIDTH 600 0
DWIDTH 5 0
BBX 4 4 1 1
BITMAP
E0
F0
D0
E0
ENDCHAR
STARTCHAR 263F
ENCODING 9791
SWIDTH 600 0
DWIDTH 5 0
BBX 3 6 1 1
BITMAP
A0
E0
A0
A0
40
40
ENDCHAR
STARTCHAR 2640
ENCODING 9792
SWIDTH 600 0
DWIDTH 5 0
BBX 3 7 1 0
BITMAP
E0
A0
A0
A0
40
40
40
ENDCHAR
STARTCHAR 2641
ENCODING 9793
SWIDTH 600 0
DWIDTH 5 0
BBX 5 5 0 1
BITMAP
F8
A8
F8
B0
60
ENDCHAR
STARTCHAR 2642
ENCODING 9794
SWIDTH 600 0
DWIDTH 5 0
BBX 5 5 0 0
BITMAP
08
78
90
90
60
ENDCHAR
STARTCHAR 2643
ENCODING 9795
SWIDTH 600 0
DWIDTH 5 0
BBX 3 4 1 1
BITMAP
40
60
A0
60
ENDCHAR
STARTCHAR 2644
ENCODING 9796
SWIDTH 600 0
DWIDTH 5 0
BBX 4 7 1 0
BITMAP
80
80
E0
90
10
20
40
ENDCHAR
STARTCHAR 2645
ENCODING 9797
SWIDTH 600 0
DWIDTH 5 0
BBX 3 6 1 0
BITMAP
40
60
E0
A0
E0
E0
ENDCHAR
STARTCHAR 2646
ENCODING 9798
SWIDTH 600 0
DWIDTH 5 0
BBX 5 7 0 0
BITMAP
88
A8
A8
70
20
20
20
ENDCHAR
STARTCHAR 2647
ENCODING 9799
SWIDTH 600 0
DWIDTH 5 0
BBX 5 7 0 0
BITMAP
70
50
D8
B0
60
20
20
ENDCHAR
STARTCHAR 2669
ENCODING 9833
SWIDTH 600 0
DWIDTH 5 0
BBX 3 7 1 0
BITMAP
20
20
20
20
E0
E0
E0
ENDCHAR
STARTCHAR 266D
ENCODING 9837
SWIDTH 600 0
DWIDTH 5 0
BBX 3 7 1 0
BITMAP
80
80
E0
A0
A0
A0
C0
ENDCHAR
STARTCHAR 266E
ENCODING 9838
SWIDTH 600 0
DWIDTH 5 0
BBX 3 7 1 0
BITMAP
80
A0
E0
A0
A0
E0
20
ENDCHAR
STARTCHAR 266F
ENCODING 9839
SWIDTH 600 0
DWIDTH 5 0
BBX 5 9 0 -1
BITMAP
10
50
78
D0
50
58
F0
50
40
ENDCHAR
STARTCHAR 2680
ENCODING 9856
SWIDTH 600 0
DWIDTH 5 0
BBX 4 4 1 1
BITMAP
E0
D0
90
E0
ENDCHAR
STARTCHAR 2681
ENCODING 9857
SWIDTH 600 0
DWIDTH 5 0
BBX 4 4 1 1
BITMAP
E0
B0
90
E0
ENDCHAR
STARTCHAR 2682
ENCODING 9858
SWIDTH 600 0
DWIDTH 5 0
BBX 4 4 1 1
BITMAP
F0
90
90
E0
ENDCHAR
STARTCHAR 2683
ENCODING 9859
SWIDTH 600 0
DWIDTH 5 0
BBX 4 4 1 1
BITMAP
E0
B0
B0
E0
ENDCHAR
STARTCHAR 2684
ENCODING 9860
SWIDTH 600 0
DWIDTH 5 0
BBX 4 4 1 1
BITMAP
F0
90
B0
E0
ENDCHAR
STARTCHAR 2685
ENCODING 9861
SWIDTH 600 0
DWIDTH 5 0
BBX 4 5 1 1
BITMAP
E0
B0
B0
B0
E0
ENDCHAR
STARTCHAR 2686
ENCODING 9862
SWIDTH 600 0
DWIDTH 5 0
BBX 5 4 0 1
BITMAP
70
98
88
70
ENDCHAR
STARTCHAR 2687
ENCODING 9863
SWIDTH 600 0
DWIDTH 5 0
BBX 5 4 0 1
BITMAP
70
D8
88
70
ENDCHAR
STARTCHAR 2688
ENCODING 9864
SWIDTH 600 0
DWIDTH 5 0
BBX 4 4 1 1
BITMAP
E0
F0
F0
E0
ENDCHAR
STARTCHAR 2689
ENCODING 9865
SWIDTH 600 0
DWIDTH 5 0
BBX 4 4 1 1
BITMAP
E0
F0
F0
E0
ENDCHAR
STARTCHAR 268A
ENCODING 9866
SWIDTH 600 0
DWIDTH 5 0
BBX 3 1 1 1
BITMAP
E0
ENDCHAR
STARTCHAR 268B
ENCODING 9867
SWIDTH 600 0
DWIDTH 5 0
BBX 3 1 1 1
BITMAP
A0
ENDCHAR
STARTCHAR 268C
ENCODING 9868
SWIDTH 600 0
DWIDTH 5 0
BBX 3 2 1 1
BITMAP
E0
E0
ENDCHAR
STARTCHAR 268D
ENCODING 9869
SWIDTH 600 0
DWIDTH 5 0
BBX 3 2 1 1
BITMAP
A0
E0
ENDCHAR
STARTCHAR 268E
ENCODING 9870
SWIDTH 600 0
DWIDTH 5 0
BBX 3 2 1 1
BITMAP
E0
A0
ENDCHAR
STARTCHAR 268F
ENCODING 9871
SWIDTH 600 0
DWIDTH 5 0
BBX 3 2 1 1
BITMAP
A0
A0
ENDCHAR
STARTCHAR 2690
ENCODING 9872
SWIDTH 600 0
DWIDTH 5 0
BBX 3 4 1 0
BITMAP
C0
A0
E0
80
ENDCHAR
STARTCHAR 2691
ENCODING 9873
SWIDTH 600 0
DWIDTH 5 0
BBX 3 4 1 1
BITMAP
80
E0
E0
80
ENDCHAR
STARTCHAR 26A0
ENCODING 9888
SWIDTH 600 0
DWIDTH 5 0
BBX 5 4 0 1
BITMAP
60
70
B0
F8
ENDCHAR
STARTCHAR 26A1
ENCODING 9889
SWIDTH 600 0
DWIDTH 5 0
BBX 5 4 0 1
BITMAP
60
70
B0
F8
ENDCHAR
STARTCHAR 26AA
ENCODING 9898
SWIDTH 600 0
DWIDTH 5 0
BBX 3 3 1 2
BITMAP
E0
A0
E0
ENDCHAR
STARTCHAR 26AB
ENCODING 9899
SWIDTH 600 0
DWIDTH 5 0
BBX 3 3 1 2
BITMAP
E0
E0
E0
ENDCHAR
STARTCHAR 26AC
ENCODING 9900
SWIDTH 600 0
DWIDTH 5 0
BBX 3 3 1 2
BITMAP
E0
A0
E0
ENDCHAR
STARTCHAR 26B2
ENCODING 9906
SWIDTH 600 0
DWIDTH 5 0
BBX 3 7 1 0
BITMAP
E0
A0
A0
A0
40
40
40
ENDCHAR
STARTCHAR 26B3
ENCODING 9907
SWIDTH 600 0
DWIDTH 5 0
BBX 3 7 1 0
BITMAP
E0
20
20
20
40
40
40
ENDCHAR
STARTCHAR 26B4
ENCODING 9908
SWIDTH 600 0
DWIDTH 5 0
BBX 4 7 1 0
BITMAP
40
A0
90
A0
40
40
40
ENDCHAR
STARTCHAR 26B5
ENCODING 9909
SWIDTH 600 0
DWIDTH 5 0
BBX 3 7 1 0
BITMAP
40
60
40
E0
40
40
40
ENDCHAR
STARTCHAR 26B7
ENCODING 9911
SWIDTH 600 0
DWIDTH 5 0
BBX 3 7 1 0
BITMAP
40
60
60
40
60
A0
E0
ENDCHAR
STARTCHAR 26B9
ENCODING 9913
SWIDTH 600 0
DWIDTH 5 0
BBX 4 4 1 1
BITMAP
A0
F0
A0
20
ENDCHAR
STARTCHAR 26BA
ENCODING 9914
SWIDTH 600 0
DWIDTH 5 0
BBX 5 4 0 1
BITMAP
88
50
50
78
ENDCHAR
STARTCHAR 26BB
ENCODING 9915
SWIDTH 600 0
DWIDTH 5 0
BBX 5 4 0 1
BITMAP
78
50
50
88
ENDCHAR
STARTCHAR 26BC
ENCODING 9916
SWIDTH 600 0
DWIDTH 5 0
BBX 5 6 0 -1
BITMAP
F8
88
A8
F8
20
30
ENDCHAR
STARTCHAR 26CB
ENCODING 9931
SWIDTH 600 0
DWIDTH 5 0
BBX 5 4 0 1
BITMAP
F8
98
98
F8
ENDCHAR
STARTCHAR 26D4
ENCODING 9940
SWIDTH 600 0
DWIDTH 5 0
BBX 5 5 0 1
BITMAP
70
70
88
78
70
ENDCHAR
STARTCHAR 26DB
ENCODING 9947
SWIDTH 600 0
DWIDTH 5 0
BBX 5 4 0 1
BITMAP
F8
50
50
20
ENDCHAR
STARTCHAR 26DD
ENCODING 9949
SWIDTH 600 0
DWIDTH 5 0
BBX 5 4 0 1
BITMAP
F8
E8
E8
F8
ENDCHAR
STARTCHAR 26E2
ENCODING 9954
SWIDTH 600 0
DWIDTH 5 0
BBX 3 6 1 0
BITMAP
40
60
E0
A0
E0
E0
ENDCHAR
STARTCHAR 2713
ENCODING 10003
SWIDTH 600 0
DWIDTH 5 0
BBX 4 3 0 2
BITMAP
10
A0
40
ENDCHAR
STARTCHAR 2714
ENCODING 10004
SWIDTH 600 0
DWIDTH 5 0
BBX 4 3 1 1
BITMAP
10
20
C0
ENDCHAR
STARTCHAR 2715
ENCODING 10005
SWIDTH 600 0
DWIDTH 5 0
BBX 5 5 0 1
BITMAP
08
50
20
50
88
ENDCHAR
STARTCHAR 2716
ENCODING 10006
SWIDTH 600 0
DWIDTH 5 0
BBX 5 5 0 1
BITMAP
40
F8
70
78
50
ENDCHAR
STARTCHAR 2717
ENCODING 10007
SWIDTH 600 0
DWIDTH 5 0
BBX 3 3 1 1
BITMAP
A0
40
A0
ENDCHAR
STARTCHAR 2718
ENCODING 10008
SWIDTH 600 0
DWIDTH 5 0
BBX 3 4 1 1
BITMAP
A0
E0
E0
A0
ENDCHAR
STARTCHAR 2726
ENCODING 10022
SWIDTH 600 0
DWIDTH 5 0
BBX 3 4 1 1
BITMAP
40
E0
E0
40
ENDCHAR
STARTCHAR 2727
ENCODING 10023
SWIDTH 600 0
DWIDTH 5 0
BBX 4 4 0 1
BITMAP
60
90
50
20
ENDCHAR
STARTCHAR 272A
ENCODING 10026
SWIDTH 600 0
DWIDTH 5 0
BBX 5 5 0 1
BITMAP
70
D8
88
D8
70
ENDCHAR
STARTCHAR 272F
ENCODING 10031
SWIDTH 600 0
DWIDTH 5 0
BBX 4 4 0 2
BITMAP
60
90
50
20
ENDCHAR
STARTCHAR 2731
ENCODING 10033
SWIDTH 600 0
DWIDTH 5 0
BBX 5 4 0 1
BITMAP
20
F8
20
50
ENDCHAR
STARTCHAR 2736
ENCODING 10038
SWIDTH 600 0
DWIDTH 5 0
BBX 3 4 1 2
BITMAP
40
E0
E0
40
ENDCHAR
STARTCHAR 2737
ENCODING 10039
SWIDTH 600 0
DWIDTH 5 0
BBX 3 4 1 2
BITMAP
40
E0
E0
C0
ENDCHAR
STARTCHAR 2738
ENCODING 10040
SWIDTH 600 0
DWIDTH 5 0
BBX 5 4 0 1
BITMAP
70
70
F8
70
ENDCHAR
STARTCHAR 2739
ENCODING 10041
SWIDTH 600 0
DWIDTH 5 0
BBX 3 4 1 1
BITMAP
E0
E0
E0
60
ENDCHAR
STARTCHAR 2756
ENCODING 10070
SWIDTH 600 0
DWIDTH 5 0
BBX 5 5 0 1
BITMAP
20
20
D8
20
20
ENDCHAR
STARTCHAR 275B
ENCODING 10075
SWIDTH 600 0
DWIDTH 5 0
BBX 3 5 1 1
BITMAP
40
80
C0
E0
40
ENDCHAR
STARTCHAR 275C
ENCODING 10076
SWIDTH 600 0
DWIDTH 5 0
BBX 3 5 1 2
BITMAP
40
E0
60
40
40
ENDCHAR
STARTCHAR 275D
ENCODING 10077
SWIDTH 600 0
DWIDTH 5 0
BBX 5 5 0 1
BITMAP
50
90
D8
D8
D8
ENDCHAR
STARTCHAR 275E
ENCODING 10078
SWIDTH 600 0
DWIDTH 5 0
BBX 5 5 0 2
BITMAP
D8
D8
D8
48
50
ENDCHAR
STARTCHAR 276E
ENCODING 10094
SWIDTH 600 0
DWIDTH 5 0
BBX 3 6 1 -1
BITMAP
60
40
C0
C0
40
60
ENDCHAR
STARTCHAR 276F
ENCODING 10095
SWIDTH 600 0
DWIDTH 5 0
BBX 3 6 1 -1
BITMAP
C0
40
60
60
40
C0
ENDCHAR
STARTCHAR 2770
ENCODING 10096
SWIDTH 600 0
DWIDTH 5 0
BBX 5 8 0 -2
BITMAP
38
70
70
E0
60
70
70
38
ENDCHAR
STARTCHAR 2771
ENCODING 10097
SWIDTH 600 0
DWIDTH 5 0
BBX 5 8 0 -2
BITMAP
60
70
30
38
38
70
70
E0
ENDCHAR
STARTCHAR 2776
ENCODING 10102
SWIDTH 600 0
DWIDTH 5 0
BBX 5 5 0 1
BITMAP
30
F8
D8
D8
78
ENDCHAR
STARTCHAR 2777
ENCODING 10103
SWIDTH 600 0
DWIDTH 5 0
BBX 5 5 0 1
BITMAP
30
F8
F8
F8
78
ENDCHAR
STARTCHAR 2778
ENCODING 10104
SWIDTH 600 0
DWIDTH 5 0
BBX 5 5 0 1
BITMAP
30
F8
F8
E8
70
ENDCHAR
STARTCHAR 2779
ENCODING 10105
SWIDTH 600 0
DWIDTH 5 0
BBX 5 5 0 1
BITMAP
70
F8
F8
F8
70
ENDCHAR
STARTCHAR 277A
ENCODING 10106
SWIDTH 600 0
DWIDTH 5 0
BBX 5 5 0 1
BITMAP
70
F8
F8
E8
78
ENDCHAR
STARTCHAR 277B
ENCODING 10107
SWIDTH 600 0
DWIDTH 5 0
BBX 5 5 0 1
BITMAP
30
F8
F8
E8
70
ENDCHAR
STARTCHAR 277C
ENCODING 10108
SWIDTH 600 0
DWIDTH 5 0
BBX 5 5 0 0
BITMAP
78
F8
D8
F8
20
ENDCHAR
STARTCHAR 277D
ENCODING 10109
SWIDTH 600 0
DWIDTH 5 0
BBX 5 5 0 1
BITMAP
30
F8
F8
E8
70
ENDCHAR
STARTCHAR 277E
ENCODING 10110
SWIDTH 600 0
DWIDTH 5 0
BBX 5 6 0 0
BITMAP
30
F8
E8
E8
F8
30
ENDCHAR
STARTCHAR 27A5
ENCODING 10149
SWIDTH 600 0
DWIDTH 5 0
BBX 5 3 0 1
BITMAP
90
F8
70
ENDCHAR
STARTCHAR 27A6
ENCODING 10150
SWIDTH 600 0
DWIDTH 5 0
BBX 5 4 0 1
BITMAP
10
F8
F0
80
ENDCHAR
STARTCHAR 27C1
ENCODING 10177
SWIDTH 600 0
DWIDTH 5 0
BBX 5 4 0 1
BITMAP
20
50
F0
F8
ENDCHAR
STARTCHAR 27C2
ENCODING 10178
SWIDTH 600 0
DWIDTH 5 0
BBX 4 5 1 0
BITMAP
40
40
40
40
F0
ENDCHAR
STARTCHAR 27C3
ENCODING 10179
SWIDTH 600 0
DWIDTH 5 0
BBX 3 5 1 0
BITMAP
E0
80
E0
C0
E0
ENDCHAR
STARTCHAR 27C4
ENCODING 10180
SWIDTH 600 0
DWIDTH 5 0
BBX 3 5 1 0
BITMAP
C0
20
E0
60
E0
ENDCHAR
STARTCHAR 27CE
ENCODING 10190
SWIDTH 600 0
DWIDTH 5 0
BBX 5 4 0 1
BITMAP
F8
E8
D8
F8
ENDCHAR
STARTCHAR 27CF
ENCODING 10191
SWIDTH 600 0
DWIDTH 5 0
BBX 5 4 0 1
BITMAP
F8
D8
E8
F8
ENDCHAR
STARTCHAR 27D0
ENCODING 10192
SWIDTH 600 0
DWIDTH 5 0
BBX 5 5 0 1
BITMAP
20
50
A8
50
20
ENDCHAR
STARTCHAR 27D1
ENCODING 10193
SWIDTH 600 0
DWIDTH 5 0
BBX 4 4 0 1
BITMAP
20
60
50
B0
ENDCHAR
STARTCHAR 27D2
ENCODING 10194
SWIDTH 600 0
DWIDTH 5 0
BBX 4 4 1 0
BITMAP
D0
D0
E0
E0
ENDCHAR
STARTCHAR 27D8
ENCODING 10200
SWIDTH 600 0
DWIDTH 5 0
BBX 4 7 1 0
BITMAP
40
40
40
40
40
40
F0
ENDCHAR
STARTCHAR 27D9
ENCODING 10201
SWIDTH 600 0
DWIDTH 5 0
BBX 4 7 1 0
BITMAP
F0
40
40
40
40
40
40
ENDCHAR
STARTCHAR 27DA
ENCODING 10202
SWIDTH 600 0
DWIDTH 5 0
BBX 5 5 0 0
BITMAP
50
D8
50
D8
50
ENDCHAR
STARTCHAR 27DB
ENCODING 10203
SWIDTH 600 0
DWIDTH 5 0
BBX 5 5 0 0
BITMAP
50
50
D8
50
50
ENDCHAR
STARTCHAR 27E0
ENCODING 10208
SWIDTH 600 0
DWIDTH 5 0
BBX 3 6 1 0
BITMAP
C0
A0
A0
E0
C0
40
ENDCHAR
STARTCHAR 27E1
ENCODING 10209
SWIDTH 600 0
DWIDTH 5 0
BBX 3 4 1 1
BITMAP
40
A0
A0
40
ENDCHAR
STARTCHAR 27E2
ENCODING 10210
SWIDTH 600 0
DWIDTH 5 0
BBX 3 4 1 1
BITMAP
40
A0
A0
40
ENDCHAR
STARTCHAR 27E3
ENCODING 10211
SWIDTH 600 0
DWIDTH 5 0
BBX 4 3 0 1
BITMAP
20
D0
60
ENDCHAR
STARTCHAR 27E6
ENCODING 10214
SWIDTH 600 0
DWIDTH 5 0
BBX 2 8 1 -2
BITMAP
C0
C0
C0
C0
C0
C0
C0
C0
ENDCHAR
STARTCHAR 27E7
ENCODING 10215
SWIDTH 600 0
DWIDTH 5 0
BBX 2 8 2 -2
BITMAP
C0
C0
C0
C0
C0
C0
C0
C0
ENDCHAR
STARTCHAR 27E8
ENCODING 10216
SWIDTH 600 0
DWIDTH 5 0
BBX 3 9 1 -2
BITMAP
20
40
40
80
80
40
40
40
20
ENDCHAR
STARTCHAR 27E9
ENCODING 10217
SWIDTH 600 0
DWIDTH 5 0
BBX 3 8 1 -2
BITMAP
80
40
40
20
20
40
40
80
ENDCHAR
STARTCHAR 27EA
ENCODING 10218
SWIDTH 600 0
DWIDTH 5 0
BBX 4 8 0 -2
BITMAP
30
50
60
A0
60
60
30
30
ENDCHAR
STARTCHAR 27EB
ENCODING 10219
SWIDTH 600 0
DWIDTH 5 0
BBX 5 8 0 -2
BITMAP
60
50
30
28
30
50
60
A0
ENDCHAR
STARTCHAR 27F0
ENCODING 10224
SWIDTH 600 0
DWIDTH 5 0
BBX 3 4 1 1
BITMAP
40
E0
60
60
ENDCHAR
STARTCHAR 27F1
ENCODING 10225
SWIDTH 600 0
DWIDTH 5 0
BBX 3 4 1 1
BITMAP
60
60
E0
40
ENDCHAR
STARTCHAR 27F2
ENCODING 10226
SWIDTH 600 0
DWIDTH 5 0
BBX 5 6 0 0
BITMAP
20
D8
88
A8
60
E0
ENDCHAR
STARTCHAR 27F3
ENCODING 10227
SWIDTH 600 0
DWIDTH 5 0
BBX 5 6 0 0
BITMAP
20
D8
88
A8
30
38
ENDCHAR
STARTCHAR 27F5
ENCODING 10229
SWIDTH 600 0
DWIDTH 5 0
BBX 5 3 0 1
BITMAP
40
F8
40
ENDCHAR
STARTCHAR 27F6
ENCODING 10230
SWIDTH 600 0
DWIDTH 5 0
BBX 5 3 0 2
BITMAP
10
F8
10
ENDCHAR
STARTCHAR 27F7
ENCODING 10231
SWIDTH 600 0
DWIDTH 5 0
BBX 5 3 0 2
BITMAP
40
F8
50
ENDCHAR
STARTCHAR 2934
ENCODING 10548
SWIDTH 600 0
DWIDTH 5 0
BBX 4 5 1 1
BITMAP
40
E0
40
40
70
ENDCHAR
STARTCHAR 2935
ENCODING 10549
SWIDTH 600 0
DWIDTH 5 0
BBX 4 5 1 1
BITMAP
80
40
40
D0
60
ENDCHAR
STARTCHAR 2936
ENCODING 10550
SWIDTH 600 0
DWIDTH 5 0
BBX 5 4 0 1
BITMAP
08
48
F0
40
ENDCHAR
STARTCHAR 2937
ENCODING 10551
SWIDTH 600 0
DWIDTH 5 0
BBX 5 4 0 0
BITMAP
80
90
78
10
ENDCHAR
STARTCHAR 2938
ENCODING 10552
SWIDTH 600 0
DWIDTH 5 0
BBX 4 5 1 1
BITMAP
C0
20
20
60
70
ENDCHAR
STARTCHAR 2939
ENCODING 10553
SWIDTH 600 0
DWIDTH 5 0
BBX 5 4 0 1
BITMAP
B0
C8
48
08
ENDCHAR
STARTCHAR 293B
ENCODING 10555
SWIDTH 600 0
DWIDTH 5 0
BBX 5 4 0 1
BITMAP
80
80
98
78
ENDCHAR
STARTCHAR 293E
ENCODING 10558
SWIDTH 600 0
DWIDTH 5 0
BBX 5 5 0 1
BITMAP
08
08
E8
C8
B0
ENDCHAR
STARTCHAR 293F
ENCODING 10559
SWIDTH 600 0
DWIDTH 5 0
BBX 4 5 0 1
BITMAP
30
40
40
60
E0
ENDCHAR
STARTCHAR 2940
ENCODING 10560
SWIDTH 600 0
DWIDTH 5 0
BBX 5 6 0 0
BITMAP
20
70
88
88
88
70
ENDCHAR
STARTCHAR 2941
ENCODING 10561
SWIDTH 600 0
DWIDTH 5 0
BBX 5 6 0 0
BITMAP
20
70
88
88
88
70
ENDCHAR
STARTCHAR 2981
ENCODING 10625
SWIDTH 600 0
DWIDTH 5 0
BBX 3 3 1 2
BITMAP
E0
E0
E0
ENDCHAR
STARTCHAR 2982
ENCODING 10626
SWIDTH 600 0
DWIDTH 5 0
BBX 3 5 1 0
BITMAP
E0
A0
40
E0
E0
ENDCHAR
STARTCHAR 2983
ENCODING 10627
SWIDTH 600 0
DWIDTH 5 0
BBX 5 9 0 -2
BITMAP
18
28
28
28
C8
28
28
28
38
ENDCHAR
STARTCHAR 2984
ENCODING 10628
SWIDTH 600 0
DWIDTH 5 0
BBX 5 9 0 -2
BITMAP
C0
A0
A0
A0
98
A0
A0
A0
E0
ENDCHAR
STARTCHAR 2987
ENCODING 10631
SWIDTH 600 0
DWIDTH 5 0
BBX 3 8 1 -2
BITMAP
60
A0
A0
A0
A0
A0
60
20
ENDCHAR
STARTCHAR 2988
ENCODING 10632
SWIDTH 600 0
DWIDTH 5 0
BBX 3 8 1 -2
BITMAP
C0
A0
A0
A0
A0
A0
C0
C0
ENDCHAR
STARTCHAR 2989
ENCODING 10633
SWIDTH 600 0
DWIDTH 5 0
BBX 3 8 1 -2
BITMAP
20
60
A0
A0
A0
60
60
20
ENDCHAR
STARTCHAR 298A
ENCODING 10634
SWIDTH 600 0
DWIDTH 5 0
BBX 3 8 1 -2
BITMAP
80
C0
A0
A0
A0
A0
C0
80
ENDCHAR
STARTCHAR 2991
ENCODING 10641
SWIDTH 600 0
DWIDTH 5 0
BBX 3 9 1 -2
BITMAP
20
40
40
80
A0
80
40
40
20
ENDCHAR
STARTCHAR 2992
ENCODING 10642
SWIDTH 600 0
DWIDTH 5 0
BBX 3 8 1 -1
BITMAP
80
40
40
A0
20
40
40
80
ENDCHAR
STARTCHAR 2999
ENCODING 10649
SWIDTH 600 0
DWIDTH 5 0
BBX 1 7 2 0
BITMAP
80
00
80
00
80
00
80
ENDCHAR
STARTCHAR 299F
ENCODING 10655
SWIDTH 600 0
DWIDTH 5 0
BBX 5 4 0 1
BITMAP
10
20
40
F8
ENDCHAR
STARTCHAR 29A2
ENCODING 10658
SWIDTH 600 0
DWIDTH 5 0
BBX 3 3 1 1
BITMAP
E0
40
80
ENDCHAR
STARTCHAR 29A3
ENCODING 10659
SWIDTH 600 0
DWIDTH 5 0
BBX 5 4 0 1
BITMAP
10
20
40
F8
ENDCHAR
STARTCHAR 29A4
ENCODING 10660
SWIDTH 600 0
DWIDTH 5 0
BBX 4 5 1 0
BITMAP
20
40
F0
00
F0
ENDCHAR
STARTCHAR 29A5
ENCODING 10661
SWIDTH 600 0
DWIDTH 5 0
BBX 4 5 1 0
BITMAP
80
40
20
C0
F0
ENDCHAR
STARTCHAR 29B0
ENCODING 10672
SWIDTH 600 0
DWIDTH 5 0
BBX 5 4 0 1
BITMAP
F0
C8
A8
70
ENDCHAR
STARTCHAR 29B1
ENCODING 10673
SWIDTH 600 0
DWIDTH 5 0
BBX 5 5 0 1
BITMAP
20
F0
A8
C8
F0
ENDCHAR
STARTCHAR 29B2
ENCODING 10674
SWIDTH 600 0
DWIDTH 5 0
BBX 5 6 0 1
BITMAP
60
00
F0
A8
C8
F0
ENDCHAR
STARTCHAR 29B3
ENCODING 10675
SWIDTH 600 0
DWIDTH 5 0
BBX 5 5 0 2
BITMAP
30
F0
A8
C8
F0
ENDCHAR
STARTCHAR 29B4
ENCODING 10676
SWIDTH 600 0
DWIDTH 5 0
BBX 5 6 0 1
BITMAP
40
20
F0
A8
C8
F0
ENDCHAR
STARTCHAR 29B5
ENCODING 10677
SWIDTH 600 0
DWIDTH 5 0
BBX 5 4 0 1
BITMAP
70
88
F8
70
ENDCHAR
STARTCHAR 29B6
ENCODING 10678
SWIDTH 600 0
DWIDTH 5 0
BBX 5 7 0 0
BITMAP
20
30
E8
A8
A8
70
20
ENDCHAR
STARTCHAR 29B7
ENCODING 10679
SWIDTH 600 0
DWIDTH 5 0
BBX 5 6 0 0
BITMAP
20
D0
88
88
90
60
ENDCHAR
STARTCHAR 29B8
ENCODING 10680
SWIDTH 600 0
DWIDTH 5 0
BBX 5 6 0 0
BITMAP
20
50
A8
A8
90
60
ENDCHAR
STARTCHAR 29B9
ENCODING 10681
SWIDTH 600 0
DWIDTH 5 0
BBX 5 6 0 0
BITMAP
20
D0
A8
F8
88
70
ENDCHAR
STARTCHAR 29BA
ENCODING 10682
SWIDTH 600 0
DWIDTH 5 0
BBX 5 6 0 0
BITMAP
20
F8
F8
88
90
60
ENDCHAR
STARTCHAR 29BB
ENCODING 10683
SWIDTH 600 0
DWIDTH 5 0
BBX 5 4 0 1
BITMAP
70
E8
E8
70
ENDCHAR
STARTCHAR 29BC
ENCODING 10684
SWIDTH 600 0
DWIDTH 5 0
BBX 5 6 0 0
BITMAP
20
D0
A8
B8
50
20
ENDCHAR
STARTCHAR 29BD
ENCODING 10685
SWIDTH 600 0
DWIDTH 5 0
BBX 5 7 0 0
BITMAP
20
30
70
A8
A8
70
20
ENDCHAR
STARTCHAR 29BE
ENCODING 10686
SWIDTH 600 0
DWIDTH 5 0
BBX 5 6 0 0
BITMAP
20
D0
A8
A8
90
60
ENDCHAR
STARTCHAR 29BF
ENCODING 10687
SWIDTH 600 0
DWIDTH 5 0
BBX 5 6 0 0
BITMAP
20
D0
A8
A8
90
60
ENDCHAR
STARTCHAR 29C0
ENCODING 10688
SWIDTH 600 0
DWIDTH 5 0
BBX 5 5 0 1
BITMAP
20
D8
E8
A8
70
ENDCHAR
STARTCHAR 29C1
ENCODING 10689
SWIDTH 600 0
DWIDTH 5 0
BBX 5 6 0 0
BITMAP
20
D0
A8
A8
90
60
ENDCHAR
STARTCHAR 29C2
ENCODING 10690
SWIDTH 600 0
DWIDTH 5 0
BBX 5 4 0 1
BITMAP
E0
98
98
E0
ENDCHAR
STARTCHAR 29C3
ENCODING 10691
SWIDTH 600 0
DWIDTH 5 0
BBX 4 3 0 2
BITMAP
E0
90
E0
ENDCHAR
STARTCHAR 29C4
ENCODING 10692
SWIDTH 600 0
DWIDTH 5 0
BBX 5 4 0 1
BITMAP
F8
98
E8
F8
ENDCHAR
STARTCHAR 29C5
ENCODING 10693
SWIDTH 600 0
DWIDTH 5 0
BBX 5 4 0 1
BITMAP
F8
C8
B8
F8
ENDCHAR
STARTCHAR 29C6
ENCODING 10694
SWIDTH 600 0
DWIDTH 5 0
BBX 5 4 0 1
BITMAP
F8
B8
88
F8
ENDCHAR
STARTCHAR 29C7
ENCODING 10695
SWIDTH 600 0
DWIDTH 5 0
BBX 5 6 0 0
BITMAP
F8
88
A8
A8
88
F8
ENDCHAR
STARTCHAR 29C8
ENCODING 10696
SWIDTH 600 0
DWIDTH 5 0
BBX 5 6 0 0
BITMAP
F8
88
F8
D8
A8
F8
ENDCHAR
STARTCHAR 29CA
ENCODING 10698
SWIDTH 600 0
DWIDTH 5 0
BBX 5 6 0 1
BITMAP
20
20
60
50
90
F8
ENDCHAR
STARTCHAR 29CB
ENCODING 10699
SWIDTH 600 0
DWIDTH 5 0
BBX 5 5 0 0
BITMAP
60
50
90
88
70
ENDCHAR
STARTCHAR 29CD
ENCODING 10701
SWIDTH 600 0
DWIDTH 5 0
BBX 5 4 0 1
BITMAP
60
50
90
F8
ENDCHAR
STARTCHAR 29CE
ENCODING 10702
SWIDTH 600 0
DWIDTH 5 0
BBX 5 6 0 0
BITMAP
40
B0
60
18
E8
38
ENDCHAR
STARTCHAR 29D1
ENCODING 10705
SWIDTH 600 0
DWIDTH 5 0
BBX 5 5 0 1
BITMAP
88
D8
E8
D8
88
ENDCHAR
STARTCHAR 29D2
ENCODING 10706
SWIDTH 600 0
DWIDTH 5 0
BBX 5 5 0 1
BITMAP
88
D8
B8
D8
88
ENDCHAR
STARTCHAR 29D3
ENCODING 10707
SWIDTH 600 0
DWIDTH 5 0
BBX 5 5 0 1
BITMAP
88
D8
F8
D8
88
ENDCHAR
STARTCHAR 29D4
ENCODING 10708
SWIDTH 600 0
DWIDTH 5 0
BBX 5 5 0 1
BITMAP
88
D0
E0
D0
88
ENDCHAR
STARTCHAR 29D5
ENCODING 10709
SWIDTH 600 0
DWIDTH 5 0
BBX 5 5 0 1
BITMAP
88
58
38
58
88
ENDCHAR
STARTCHAR 29D6
ENCODING 10710
SWIDTH 600 0
DWIDTH 5 0
BBX 5 4 0 1
BITMAP
F8
60
60
F8
ENDCHAR
STARTCHAR 29D7
ENCODING 10711
SWIDTH 600 0
DWIDTH 5 0
BBX 4 4 1 1
BITMAP
F0
40
60
F0
ENDCHAR
STARTCHAR 29E2
ENCODING 10722
SWIDTH 600 0
DWIDTH 5 0
BBX 5 4 0 1
BITMAP
88
A8
A8
F8
ENDCHAR
STARTCHAR 29E6
ENCODING 10726
SWIDTH 600 0
DWIDTH 5 0
BBX 4 5 1 0
BITMAP
90
F0
90
F0
90
ENDCHAR
STARTCHAR 29E8
ENCODING 10728
SWIDTH 600 0
DWIDTH 5 0
BBX 5 4 0 1
BITMAP
F8
70
30
20
ENDCHAR
STARTCHAR 29E9
ENCODING 10729
SWIDTH 600 0
DWIDTH 5 0
BBX 5 4 0 1
BITMAP
F8
90
50
60
ENDCHAR
STARTCHAR 29EA
ENCODING 10730
SWIDTH 600 0
DWIDTH 5 0
BBX 5 7 0 -1
BITMAP
20
70
F8
70
20
20
20
ENDCHAR
STARTCHAR 29EB
ENCODING 10731
SWIDTH 600 0
DWIDTH 5 0
BBX 3 6 1 0
BITMAP
40
E0
E0
E0
40
40
ENDCHAR
STARTCHAR 29EC
ENCODING 10732
SWIDTH 600 0
DWIDTH 5 0
BBX 5 6 0 -1
BITMAP
70
88
88
50
20
20
ENDCHAR
STARTCHAR 29ED
ENCODING 10733
SWIDTH 600 0
DWIDTH 5 0
BBX 4 6 1 -1
BITMAP
E0
F0
F0
E0
40
60
ENDCHAR
STARTCHAR 29EE
ENCODING 10734
SWIDTH 600 0
DWIDTH 5 0
BBX 4 7 1 0
BITMAP
40
40
B0
90
90
90
60
ENDCHAR
STARTCHAR 29EF
ENCODING 10735
SWIDTH 600 0
DWIDTH 5 0
BBX 4 7 1 0
BITMAP
40
40
F0
F0
F0
F0
40
ENDCHAR
STARTCHAR 29F0
ENCODING 10736
SWIDTH 600 0
DWIDTH 5 0
BBX 5 7 0 0
BITMAP
20
20
50
88
90
60
20
ENDCHAR
STARTCHAR 29F1
ENCODING 10737
SWIDTH 600 0
DWIDTH 5 0
BBX 5 7 0 0
BITMAP
20
20
70
F8
70
20
20
ENDCHAR
STARTCHAR 29F2
ENCODING 10738
SWIDTH 600 0
DWIDTH 5 0
BBX 5 7 0 0
BITMAP
20
20
50
88
88
50
20
ENDCHAR
STARTCHAR 29F3
ENCODING 10739
SWIDTH 600 0
DWIDTH 5 0
BBX 5 7 0 0
BITMAP
20
20
70
F8
78
70
20
ENDCHAR
STARTCHAR 2A00
ENCODING 10752
SWIDTH 600 0
DWIDTH 5 0
BBX 7 8 -1 -2
BITMAP
3C
C2
82
92
92
82
82
7C
ENDCHAR
STARTCHAR 2A01
ENCODING 10753
SWIDTH 600 0
DWIDTH 5 0
BBX 7 8 -1 -2
BITMAP
3C
C2
92
BE
92
92
82
7C
ENDCHAR
STARTCHAR 2A02
ENCODING 10754
SWIDTH 600 0
DWIDTH 5 0
BBX 7 8 -1 -2
BITMAP
3C
C2
A2
9A
9A
A2
82
7C
ENDCHAR
STARTCHAR 2A03
ENCODING 10755
SWIDTH 600 0
DWIDTH 5 0
BBX 4 8 1 -2
BITMAP
90
90
90
D0
90
90
A0
60
ENDCHAR
STARTCHAR 2A04
ENCODING 10756
SWIDTH 600 0
DWIDTH 5 0
BBX 4 7 1 -1
BITMAP
90
90
D0
D0
90
90
E0
ENDCHAR
STARTCHAR 2A05
ENCODING 10757
SWIDTH 600 0
DWIDTH 5 0
BBX 4 8 1 -1
BITMAP
F0
90
90
90
90
90
90
10
ENDCHAR
STARTCHAR 2A06
ENCODING 10758
SWIDTH 600 0
DWIDTH 5 0
BBX 4 8 1 -1
BITMAP
90
90
90
90
90
90
90
F0
ENDCHAR
STARTCHAR 2A07
ENCODING 10759
SWIDTH 600 0
DWIDTH 5 0
BBX 5 4 0 1
BITMAP
50
70
E8
D8
ENDCHAR
STARTCHAR 2A08
ENCODING 10760
SWIDTH 600 0
DWIDTH 5 0
BBX 5 4 0 1
BITMAP
D8
E8
70
50
ENDCHAR
STARTCHAR 2A09
ENCODING 10761
SWIDTH 600 0
DWIDTH 5 0
BBX 5 9 0 -2
BITMAP
88
50
50
20
20
20
50
50
88
ENDCHAR
STARTCHAR 2A1D
ENCODING 10781
SWIDTH 600 0
DWIDTH 5 0
BBX 5 5 0 1
BITMAP
88
D8
A8
D8
88
ENDCHAR
STARTCHAR 2A1E
ENCODING 10782
SWIDTH 600 0
DWIDTH 5 0
BBX 3 5 1 1
BITMAP
20
60
A0
60
20
ENDCHAR
STARTCHAR 2A1F
ENCODING 10783
SWIDTH 600 0
DWIDTH 5 0
BBX 3 7 1 -2
BITMAP
E0
A0
40
C0
A0
40
40
ENDCHAR
STARTCHAR 2A20
ENCODING 10784
SWIDTH 600 0
DWIDTH 5 0
BBX 4 7 1 0
BITMAP
C0
A0
60
50
60
A0
C0
ENDCHAR
STARTCHAR 2A21
ENCODING 10785
SWIDTH 600 0
DWIDTH 5 0
BBX 2 5 2 1
BITMAP
80
C0
80
80
80
ENDCHAR
STARTCHAR 2A22
ENCODING 10786
SWIDTH 600 0
DWIDTH 5 0
BBX 3 5 1 1
BITMAP
E0
40
40
E0
40
ENDCHAR
STARTCHAR 2A23
ENCODING 10787
SWIDTH 600 0
DWIDTH 5 0
BBX 4 7 1 0
BITMAP
40
A0
40
40
F0
40
40
ENDCHAR
STARTCHAR 2A24
ENCODING 10788
SWIDTH 600 0
DWIDTH 5 0
BBX 4 6 1 1
BITMAP
D0
20
00
40
E0
40
ENDCHAR
STARTCHAR 2A25
ENCODING 10789
SWIDTH 600 0
DWIDTH 5 0
BBX 3 5 1 1
BITMAP
40
E0
40
00
40
ENDCHAR
STARTCHAR 2A26
ENCODING 10790
SWIDTH 600 0
DWIDTH 5 0
BBX 4 6 1 0
BITMAP
40
E0
40
40
D0
20
ENDCHAR
STARTCHAR 2A27
ENCODING 10791
SWIDTH 600 0
DWIDTH 5 0
BBX 5 6 0 -1
BITMAP
20
20
F0
20
18
10
ENDCHAR
STARTCHAR 2A29
ENCODING 10793
SWIDTH 600 0
DWIDTH 5 0
BBX 3 4 1 1
BITMAP
40
40
00
E0
ENDCHAR
STARTCHAR 2A2A
ENCODING 10794
SWIDTH 600 0
DWIDTH 5 0
BBX 3 3 1 1
BITMAP
E0
00
40
ENDCHAR
STARTCHAR 2A2B
ENCODING 10795
SWIDTH 600 0
DWIDTH 5 0
BBX 4 5 1 0
BITMAP
80
00
E0
00
30
ENDCHAR
STARTCHAR 2A2C
ENCODING 10796
SWIDTH 600 0
DWIDTH 5 0
BBX 4 5 1 0
BITMAP
30
00
E0
00
80
ENDCHAR
STARTCHAR 2A2D
ENCODING 10797
SWIDTH 600 0
DWIDTH 5 0
BBX 6 8 -1 -2
BITMAP
30
C0
90
BC
90
90
80
70
ENDCHAR
STARTCHAR 2A2E
ENCODING 10798
SWIDTH 600 0
DWIDTH 5 0
BBX 5 8 1 -2
BITMAP
30
08
48
F8
48
48
08
30
ENDCHAR
STARTCHAR 2A30
ENCODING 10800
SWIDTH 600 0
DWIDTH 5 0
BBX 3 4 1 1
BITMAP
40
A0
40
A0
ENDCHAR
STARTCHAR 2A31
ENCODING 10801
SWIDTH 600 0
DWIDTH 5 0
BBX 3 5 1 1
BITMAP
A0
40
A0
00
E0
ENDCHAR
STARTCHAR 2A34
ENCODING 10804
SWIDTH 600 0
DWIDTH 5 0
BBX 5 8 -1 -2
BITMAP
30
C0
A0
98
98
A0
80
70
ENDCHAR
STARTCHAR 2A35
ENCODING 10805
SWIDTH 600 0
DWIDTH 5 0
BBX 5 8 1 -2
BITMAP
30
08
88
68
68
88
08
30
ENDCHAR
STARTCHAR 2A38
ENCODING 10808
SWIDTH 600 0
DWIDTH 5 0
BBX 5 6 0 0
BITMAP
20
D0
88
A8
90
60
ENDCHAR
STARTCHAR 2A3A
ENCODING 10810
SWIDTH 600 0
DWIDTH 5 0
BBX 5 4 0 1
BITMAP
20
50
90
F8
ENDCHAR
STARTCHAR 2A3C
ENCODING 10812
SWIDTH 600 0
DWIDTH 5 0
BBX 3 2 1 2
BITMAP
20
E0
ENDCHAR
STARTCHAR 2A3E
ENCODING 10814
SWIDTH 600 0
DWIDTH 5 0
BBX 3 7 1 -2
BITMAP
E0
A0
40
C0
A0
40
40
ENDCHAR
STARTCHAR 2A3F
ENCODING 10815
SWIDTH 600 0
DWIDTH 5 0
BBX 4 5 1 0
BITMAP
90
90
90
90
F0
ENDCHAR
STARTCHAR 2A4E
ENCODING 10830
SWIDTH 600 0
DWIDTH 5 0
BBX 4 5 1 0
BITMAP
F0
D0
D0
D0
D0
ENDCHAR
STARTCHAR 2A4F
ENCODING 10831
SWIDTH 600 0
DWIDTH 5 0
BBX 4 4 1 0
BITMAP
D0
D0
D0
F0
ENDCHAR
STARTCHAR 2A51
ENCODING 10833
SWIDTH 600 0
DWIDTH 5 0
BBX 5 6 0 1
BITMAP
20
00
20
50
50
88
ENDCHAR
STARTCHAR 2A52
ENCODING 10834
SWIDTH 600 0
DWIDTH 5 0
BBX 3 6 1 1
BITMAP
40
00
A0
A0
40
40
ENDCHAR
STARTCHAR 2A53
ENCODING 10835
SWIDTH 600 0
DWIDTH 5 0
BBX 4 4 0 1
BITMAP
20
60
70
F0
ENDCHAR
STARTCHAR 2A54
ENCODING 10836
SWIDTH 600 0
DWIDTH 5 0
BBX 5 4 0 1
BITMAP
E8
70
50
20
ENDCHAR
STARTCHAR 2A55
ENCODING 10837
SWIDTH 600 0
DWIDTH 5 0
BBX 5 4 0 1
BITMAP
50
70
E8
D8
ENDCHAR
STARTCHAR 2A56
ENCODING 10838
SWIDTH 600 0
DWIDTH 5 0
BBX 5 4 0 1
BITMAP
D8
E8
70
50
ENDCHAR
STARTCHAR 2A59
ENCODING 10841
SWIDTH 600 0
DWIDTH 5 0
BBX 5 6 0 0
BITMAP
88
70
50
50
B0
08
ENDCHAR
STARTCHAR 2A5A
ENCODING 10842
SWIDTH 600 0
DWIDTH 5 0
BBX 4 4 0 1
BITMAP
20
20
70
B0
ENDCHAR
STARTCHAR 2A5B
ENCODING 10843
SWIDTH 600 0
DWIDTH 5 0
BBX 4 4 0 1
BITMAP
B0
70
30
20
ENDCHAR
STARTCHAR 2A5C
ENCODING 10844
SWIDTH 600 0
DWIDTH 5 0
BBX 5 4 0 1
BITMAP
20
60
F8
90
ENDCHAR
STARTCHAR 2A5D
ENCODING 10845
SWIDTH 600 0
DWIDTH 5 0
BBX 5 4 0 1
BITMAP
88
F8
50
20
ENDCHAR
STARTCHAR 2A5E
ENCODING 10846
SWIDTH 600 0
DWIDTH 5 0
BBX 4 7 1 2
BITMAP
F0
00
F0
40
40
A0
A0
ENDCHAR
STARTCHAR 2A5F
ENCODING 10847
SWIDTH 600 0
DWIDTH 5 0
BBX 4 6 1 -1
BITMAP
40
C0
A0
A0
00
F0
ENDCHAR
STARTCHAR 2A60
ENCODING 10848
SWIDTH 600 0
DWIDTH 5 0
BBX 4 7 1 -2
BITMAP
40
C0
A0
A0
00
F0
F0
ENDCHAR
STARTCHAR 2A62
ENCODING 10850
SWIDTH 600 0
DWIDTH 5 0
BBX 5 8 0 1
BITMAP
78
00
78
88
50
50
20
20
ENDCHAR
STARTCHAR 2A63
ENCODING 10851
SWIDTH 600 0
DWIDTH 5 0
BBX 4 7 1 -2
BITMAP
10
A0
A0
40
00
F0
F0
ENDCHAR
STARTCHAR 2A64
ENCODING 10852
SWIDTH 600 0
DWIDTH 5 0
BBX 5 5 0 1
BITMAP
08
38
C8
78
38
ENDCHAR
STARTCHAR 2A65
ENCODING 10853
SWIDTH 600 0
DWIDTH 5 0
BBX 4 4 1 2
BITMAP
C0
F0
C0
80
ENDCHAR
STARTCHAR 2A66
ENCODING 10854
SWIDTH 600 0
DWIDTH 5 0
BBX 3 6 1 0
BITMAP
E0
00
00
E0
00
40
ENDCHAR
STARTCHAR 2A67
ENCODING 10855
SWIDTH 600 0
DWIDTH 5 0
BBX 3 6 1 1
BITMAP
40
00
E0
00
E0
E0
ENDCHAR
STARTCHAR 2A6A
ENCODING 10858
SWIDTH 600 0
DWIDTH 5 0
BBX 3 4 1 1
BITMAP
40
80
E0
20
ENDCHAR
STARTCHAR 2A6B
ENCODING 10859
SWIDTH 600 0
DWIDTH 5 0
BBX 5 3 0 1
BITMAP
50
A8
50
ENDCHAR
STARTCHAR 2A6C
ENCODING 10860
SWIDTH 600 0
DWIDTH 5 0
BBX 4 6 1 0
BITMAP
D0
20
E0
00
D0
20
ENDCHAR
STARTCHAR 2A6E
ENCODING 10862
SWIDTH 600 0
DWIDTH 5 0
BBX 3 5 1 1
BITMAP
40
40
00
E0
E0
ENDCHAR
STARTCHAR 2A71
ENCODING 10865
SWIDTH 600 0
DWIDTH 5 0
BBX 3 7 1 0
BITMAP
E0
00
E0
00
40
E0
40
ENDCHAR
STARTCHAR 2A72
ENCODING 10866
SWIDTH 600 0
DWIDTH 5 0
BBX 3 7 1 0
BITMAP
40
E0
40
00
E0
00
E0
ENDCHAR
STARTCHAR 2A75
ENCODING 10869
SWIDTH 600 0
DWIDTH 5 0
BBX 5 3 0 1
BITMAP
D8
00
D8
ENDCHAR
STARTCHAR 2A76
ENCODING 10870
SWIDTH 600 0
DWIDTH 5 0
BBX 5 3 0 1
BITMAP
E8
00
E8
ENDCHAR
STARTCHAR 2A77
ENCODING 10871
SWIDTH 600 0
DWIDTH 5 0
BBX 3 6 1 0
BITMAP
A0
00
E0
E0
00
A0
ENDCHAR
STARTCHAR 2A78
ENCODING 10872
SWIDTH 600 0
DWIDTH 5 0
BBX 3 5 1 1
BITMAP
E0
00
E0
00
E0
ENDCHAR
STARTCHAR 2A79
ENCODING 10873
SWIDTH 600 0
DWIDTH 5 0
BBX 4 5 1 0
BITMAP
20
40
F0
60
20
ENDCHAR
STARTCHAR 2A7A
ENCODING 10874
SWIDTH 600 0
DWIDTH 5 0
BBX 3 4 1 0
BITMAP
80
60
E0
40
ENDCHAR
STARTCHAR 2A7B
ENCODING 10875
SWIDTH 600 0
DWIDTH 5 0
BBX 4 6 1 0
BITMAP
40
00
80
E0
C0
30
ENDCHAR
STARTCHAR 2A7C
ENCODING 10876
SWIDTH 600 0
DWIDTH 5 0
BBX 3 6 1 0
BITMAP
20
20
A0
60
20
C0
ENDCHAR
STARTCHAR 2A7D
ENCODING 10877
SWIDTH 600 0
DWIDTH 5 0
BBX 3 6 1 0
BITMAP
20
C0
C0
20
C0
20
ENDCHAR
STARTCHAR 2A7E
ENCODING 10878
SWIDTH 600 0
DWIDTH 5 0
BBX 3 6 1 0
BITMAP
80
60
60
80
60
80
ENDCHAR
STARTCHAR 2A7F
ENCODING 10879
SWIDTH 600 0
DWIDTH 5 0
BBX 3 6 1 0
BITMAP
20
C0
C0
20
C0
20
ENDCHAR
STARTCHAR 2A80
ENCODING 10880
SWIDTH 600 0
DWIDTH 5 0
BBX 4 6 1 0
BITMAP
C0
A0
C0
10
60
80
ENDCHAR
STARTCHAR 2A81
ENCODING 10881
SWIDTH 600 0
DWIDTH 5 0
BBX 4 6 0 1
BITMAP
C0
30
40
30
40
30
ENDCHAR
STARTCHAR 2A82
ENCODING 10882
SWIDTH 600 0
DWIDTH 5 0
BBX 4 6 1 1
BITMAP
10
C0
20
C0
30
C0
ENDCHAR
STARTCHAR 2A83
ENCODING 10883
SWIDTH 600 0
DWIDTH 5 0
BBX 3 7 1 0
BITMAP
20
00
60
80
60
00
E0
ENDCHAR
STARTCHAR 2A84
ENCODING 10884
SWIDTH 600 0
DWIDTH 5 0
BBX 4 7 1 0
BITMAP
80
00
C0
20
C0
10
E0
ENDCHAR
STARTCHAR 2A95
ENCODING 10901
SWIDTH 600 0
DWIDTH 5 0
BBX 3 5 1 2
BITMAP
60
80
60
80
60
ENDCHAR
STARTCHAR 2A96
ENCODING 10902
SWIDTH 600 0
DWIDTH 5 0
BBX 3 6 1 0
BITMAP
80
60
80
60
60
80
ENDCHAR
STARTCHAR 2A97
ENCODING 10903
SWIDTH 600 0
DWIDTH 5 0
BBX 3 6 1 0
BITMAP
20
C0
20
C0
C0
20
ENDCHAR
STARTCHAR 2A98
ENCODING 10904
SWIDTH 600 0
DWIDTH 5 0
BBX 4 5 1 1
BITMAP
C0
30
C0
A0
C0
ENDCHAR
STARTCHAR 2A99
ENCODING 10905
SWIDTH 600 0
DWIDTH 5 0
BBX 4 6 1 0
BITMAP
E0
00
E0
30
C0
70
ENDCHAR
STARTCHAR 2A9A
ENCODING 10906
SWIDTH 600 0
DWIDTH 5 0
BBX 3 6 1 0
BITMAP
E0
00
E0
80
60
C0
ENDCHAR
STARTCHAR 2A9B
ENCODING 10907
SWIDTH 600 0
DWIDTH 5 0
BBX 3 6 1 0
BITMAP
20
C0
E0
20
C0
60
ENDCHAR
STARTCHAR 2A9C
ENCODING 10908
SWIDTH 600 0
DWIDTH 5 0
BBX 3 6 1 0
BITMAP
80
60
E0
C0
20
C0
ENDCHAR
STARTCHAR 2A9D
ENCODING 10909
SWIDTH 600 0
DWIDTH 5 0
BBX 4 6 1 0
BITMAP
80
E0
20
70
80
70
ENDCHAR
STARTCHAR 2A9E
ENCODING 10910
SWIDTH 600 0
DWIDTH 5 0
BBX 3 6 1 0
BITMAP
80
E0
20
C0
20
C0
ENDCHAR
STARTCHAR 2AA1
ENCODING 10913
SWIDTH 600 0
DWIDTH 5 0
BBX 4 4 1 1
BITMAP
10
70
A0
60
ENDCHAR
STARTCHAR 2AA2
ENCODING 10914
SWIDTH 600 0
DWIDTH 5 0
BBX 4 4 1 1
BITMAP
80
60
B0
C0
ENDCHAR
STARTCHAR 2AA3
ENCODING 10915
SWIDTH 600 0
DWIDTH 5 0
BBX 3 5 1 1
BITMAP
A0
C0
60
00
E0
ENDCHAR
STARTCHAR 2AAA
ENCODING 10922
SWIDTH 600 0
DWIDTH 5 0
BBX 3 5 1 0
BITMAP
20
40
E0
40
20
ENDCHAR
STARTCHAR 2AAB
ENCODING 10923
SWIDTH 600 0
DWIDTH 5 0
BBX 3 5 1 0
BITMAP
80
60
E0
40
80
ENDCHAR
STARTCHAR 2AAC
ENCODING 10924
SWIDTH 600 0
DWIDTH 5 0
BBX 3 5 1 1
BITMAP
E0
E0
20
00
E0
ENDCHAR
STARTCHAR 2AAD
ENCODING 10925
SWIDTH 600 0
DWIDTH 5 0
BBX 3 5 1 1
BITMAP
C0
E0
C0
00
E0
ENDCHAR
STARTCHAR 2AAF
ENCODING 10927
SWIDTH 600 0
DWIDTH 5 0
BBX 3 5 1 1
BITMAP
60
C0
20
00
E0
ENDCHAR
STARTCHAR 2AB0
ENCODING 10928
SWIDTH 600 0
DWIDTH 5 0
BBX 3 5 1 1
BITMAP
C0
60
80
00
E0
ENDCHAR
STARTCHAR 2ABB
ENCODING 10939
SWIDTH 600 0
DWIDTH 5 0
BBX 4 4 1 1
BITMAP
50
A0
A0
50
ENDCHAR
STARTCHAR 2ABC
ENCODING 10940
SWIDTH 600 0
DWIDTH 5 0
BBX 5 4 0 1
BITMAP
A0
50
58
A0
ENDCHAR
STARTCHAR 2ABD
ENCODING 10941
SWIDTH 600 0
DWIDTH 5 0
BBX 3 5 1 0
BITMAP
E0
80
E0
80
E0
ENDCHAR
STARTCHAR 2ABE
ENCODING 10942
SWIDTH 600 0
DWIDTH 5 0
BBX 3 5 1 0
BITMAP
C0
20
60
20
C0
ENDCHAR
STARTCHAR 2AC5
ENCODING 10949
SWIDTH 600 0
DWIDTH 5 0
BBX 3 7 1 -2
BITMAP
60
80
80
E0
00
E0
E0
ENDCHAR
STARTCHAR 2AC6
ENCODING 10950
SWIDTH 600 0
DWIDTH 5 0
BBX 3 7 1 -2
BITMAP
C0
20
20
20
C0
E0
E0
ENDCHAR
STARTCHAR 2ACD
ENCODING 10957
SWIDTH 600 0
DWIDTH 5 0
BBX 4 5 1 0
BITMAP
F0
80
80
80
C0
ENDCHAR
STARTCHAR 2ACE
ENCODING 10958
SWIDTH 600 0
DWIDTH 5 0
BBX 5 4 0 0
BITMAP
F8
08
08
38
ENDCHAR
STARTCHAR 2ACF
ENCODING 10959
SWIDTH 600 0
DWIDTH 5 0
BBX 3 5 1 0
BITMAP
E0
A0
A0
A0
E0
ENDCHAR
STARTCHAR 2AD0
ENCODING 10960
SWIDTH 600 0
DWIDTH 5 0
BBX 4 5 1 0
BITMAP
E0
A0
90
A0
E0
ENDCHAR
STARTCHAR 2AD1
ENCODING 10961
SWIDTH 600 0
DWIDTH 5 0
BBX 3 6 1 -1
BITMAP
60
A0
A0
E0
00
E0
ENDCHAR
STARTCHAR 2AD2
ENCODING 10962
SWIDTH 600 0
DWIDTH 5 0
BBX 4 6 1 -1
BITMAP
C0
A0
90
E0
00
E0
ENDCHAR
STARTCHAR 2AD9
ENCODING 10969
SWIDTH 600 0
DWIDTH 5 0
BBX 4 5 1 0
BITMAP
E0
E0
D0
D0
D0
ENDCHAR
STARTCHAR 2ADA
ENCODING 10970
SWIDTH 600 0
DWIDTH 5 0
BBX 4 8 1 -1
BITMAP
E0
40
E0
E0
D0
D0
D0
40
ENDCHAR
STARTCHAR 2ADB
ENCODING 10971
SWIDTH 600 0
DWIDTH 5 0
BBX 4 8 1 -1
BITMAP
40
40
E0
E0
D0
D0
D0
40
ENDCHAR
STARTCHAR 2ADE
ENCODING 10974
SWIDTH 600 0
DWIDTH 5 0
BBX 3 5 1 0
BITMAP
20
20
E0
20
20
ENDCHAR
STARTCHAR 2ADF
ENCODING 10975
SWIDTH 600 0
DWIDTH 5 0
BBX 4 3 1 2
BITMAP
F0
40
40
ENDCHAR
STARTCHAR 2AE0
ENCODING 10976
SWIDTH 600 0
DWIDTH 5 0
BBX 4 3 1 2
BITMAP
40
40
F0
ENDCHAR
STARTCHAR 2AE2
ENCODING 10978
SWIDTH 600 0
DWIDTH 5 0
BBX 4 5 1 0
BITMAP
80
F0
F0
80
F0
ENDCHAR
STARTCHAR 2AE3
ENCODING 10979
SWIDTH 600 0
DWIDTH 5 0
BBX 5 5 0 0
BITMAP
28
28
E8
28
28
ENDCHAR
STARTCHAR 2AE4
ENCODING 10980
SWIDTH 600 0
DWIDTH 5 0
BBX 5 4 0 0
BITMAP
08
78
F8
08
ENDCHAR
STARTCHAR 2AE5
ENCODING 10981
SWIDTH 600 0
DWIDTH 5 0
BBX 5 5 0 0
BITMAP
28
E8
28
E8
28
ENDCHAR
STARTCHAR 2AE6
ENCODING 10982
SWIDTH 600 0
DWIDTH 5 0
BBX 4 5 1 0
BITMAP
C0
C0
F0
C0
C0
ENDCHAR
STARTCHAR 2AE7
ENCODING 10983
SWIDTH 600 0
DWIDTH 5 0
BBX 4 3 1 2
BITMAP
F0
F0
40
ENDCHAR
STARTCHAR 2AE8
ENCODING 10984
SWIDTH 600 0
DWIDTH 5 0
BBX 4 4 1 1
BITMAP
40
40
F0
F0
ENDCHAR
STARTCHAR 2AE9
ENCODING 10985
SWIDTH 600 0
DWIDTH 5 0
BBX 4 5 1 0
BITMAP
40
F0
00
F0
40
ENDCHAR
STARTCHAR 2AEA
ENCODING 10986
SWIDTH 600 0
DWIDTH 5 0
BBX 4 5 1 0
BITMAP
F0
A0
A0
A0
A0
ENDCHAR
STARTCHAR 2AEB
ENCODING 10987
SWIDTH 600 0
DWIDTH 5 0
BBX 4 5 1 0
BITMAP
A0
A0
A0
A0
F0
ENDCHAR
STARTCHAR 2AEC
ENCODING 10988
SWIDTH 600 0
DWIDTH 5 0
BBX 3 3 1 0
BITMAP
E0
E0
20
ENDCHAR
STARTCHAR 2AED
ENCODING 10989
SWIDTH 600 0
DWIDTH 5 0
BBX 3 3 1 0
BITMAP
E0
E0
80
ENDCHAR
STARTCHAR 2AF6
ENCODING 10998
SWIDTH 600 0
DWIDTH 5 0
BBX 1 7 2 0
BITMAP
80
00
00
80
00
00
80
ENDCHAR
STARTCHAR 2AF9
ENCODING 11001
SWIDTH 600 0
DWIDTH 5 0
BBX 3 6 1 0
BITMAP
20
C0
60
C0
A0
60
ENDCHAR
STARTCHAR 2AFA
ENCODING 11002
SWIDTH 600 0
DWIDTH 5 0
BBX 3 6 1 0
BITMAP
80
60
C0
60
80
E0
ENDCHAR
STARTCHAR 2AFD
ENCODING 11005
SWIDTH 600 0
DWIDTH 5 0
BBX 5 7 0 0
BITMAP
28
30
50
50
60
A0
A0
ENDCHAR
STARTCHAR 2AFF
ENCODING 11007
SWIDTH 600 0
DWIDTH 5 0
BBX 3 9 1 -2
BITMAP
E0
A0
A0
A0
A0
A0
A0
A0
E0
ENDCHAR
STARTCHAR 2B00
ENCODING 11008
SWIDTH 600 0
DWIDTH 5 0
BBX 4 4 0 1
BITMAP
70
50
90
60
ENDCHAR
STARTCHAR 2B01
ENCODING 11009
SWIDTH 600 0
DWIDTH 5 0
BBX 4 4 1 1
BITMAP
E0
A0
90
60
ENDCHAR
STARTCHAR 2B02
ENCODING 11010
SWIDTH 600 0
DWIDTH 5 0
BBX 4 4 0 1
BITMAP
40
B0
50
70
ENDCHAR
STARTCHAR 2B03
ENCODING 11011
SWIDTH 600 0
DWIDTH 5 0
BBX 4 4 1 1
BITMAP
20
D0
A0
E0
ENDCHAR
STARTCHAR 2B04
ENCODING 11012
SWIDTH 600 0
DWIDTH 5 0
BBX 5 4 0 1
BITMAP
50
A8
88
70
ENDCHAR
STARTCHAR 2B05
ENCODING 11013
SWIDTH 600 0
DWIDTH 5 0
BBX 4 4 1 1
BITMAP
40
F0
F0
40
ENDCHAR
STARTCHAR 2B06
ENCODING 11014
SWIDTH 600 0
DWIDTH 5 0
BBX 4 4 1 2
BITMAP
60
F0
60
60
ENDCHAR
STARTCHAR 2B07
ENCODING 11015
SWIDTH 600 0
DWIDTH 5 0
BBX 4 4 1 0
BITMAP
60
60
F0
60
ENDCHAR
STARTCHAR 2B08
ENCODING 11016
SWIDTH 600 0
DWIDTH 5 0
BBX 3 4 1 1
BITMAP
E0
60
E0
80
ENDCHAR
STARTCHAR 2B09
ENCODING 11017
SWIDTH 600 0
DWIDTH 5 0
BBX 4 4 1 1
BITMAP
E0
E0
F0
20
ENDCHAR
STARTCHAR 2B0A
ENCODING 11018
SWIDTH 600 0
DWIDTH 5 0
BBX 3 4 1 1
BITMAP
80
E0
60
E0
ENDCHAR
STARTCHAR 2B0B
ENCODING 11019
SWIDTH 600 0
DWIDTH 5 0
BBX 4 4 1 1
BITMAP
20
F0
E0
E0
ENDCHAR
STARTCHAR 2B0C
ENCODING 11020
SWIDTH 600 0
DWIDTH 5 0
BBX 5 4 0 1
BITMAP
50
F8
78
50
ENDCHAR
STARTCHAR 2B0D
ENCODING 11021
SWIDTH 600 0
DWIDTH 5 0
BBX 3 5 1 1
BITMAP
40
E0
40
40
E0
ENDCHAR
STARTCHAR 2B0E
ENCODING 11022
SWIDTH 600 0
DWIDTH 5 0
BBX 5 4 0 1
BITMAP
E0
20
68
30
ENDCHAR
STARTCHAR 2B0F
ENCODING 11023
SWIDTH 600 0
DWIDTH 5 0
BBX 5 4 0 1
BITMAP
30
68
20
E0
ENDCHAR
STARTCHAR 2B10
ENCODING 11024
SWIDTH 600 0
DWIDTH 5 0
BBX 5 4 0 1
BITMAP
38
20
B0
60
ENDCHAR
STARTCHAR 2B11
ENCODING 11025
SWIDTH 600 0
DWIDTH 5 0
BBX 5 4 0 1
BITMAP
60
B0
20
38
ENDCHAR
STARTCHAR 2B12
ENCODING 11026
SWIDTH 600 0
DWIDTH 5 0
BBX 4 4 1 1
BITMAP
F0
F0
90
F0
ENDCHAR
STARTCHAR 2B13
ENCODING 11027
SWIDTH 600 0
DWIDTH 5 0
BBX 4 4 1 1
BITMAP
F0
90
F0
F0
ENDCHAR
STARTCHAR 2B14
ENCODING 11028
SWIDTH 600 0
DWIDTH 5 0
BBX 4 4 1 1
BITMAP
F0
F0
B0
F0
ENDCHAR
STARTCHAR 2B15
ENCODING 11029
SWIDTH 600 0
DWIDTH 5 0
BBX 4 4 1 1
BITMAP
F0
90
D0
F0
ENDCHAR
STARTCHAR 2B16
ENCODING 11030
SWIDTH 600 0
DWIDTH 5 0
BBX 5 5 0 1
BITMAP
20
70
E8
70
20
ENDCHAR
STARTCHAR 2B17
ENCODING 11031
SWIDTH 600 0
DWIDTH 5 0
BBX 5 5 0 1
BITMAP
20
50
98
50
20
ENDCHAR
STARTCHAR 2B18
ENCODING 11032
SWIDTH 600 0
DWIDTH 5 0
BBX 5 5 0 1
BITMAP
20
70
F8
50
20
ENDCHAR
STARTCHAR 2B19
ENCODING 11033
SWIDTH 600 0
DWIDTH 5 0
BBX 5 5 0 1
BITMAP
20
50
88
70
20
ENDCHAR
STARTCHAR 2B1A
ENCODING 11034
SWIDTH 600 0
DWIDTH 5 0
BBX 1 4 4 1
BITMAP
80
80
00
80
ENDCHAR
STARTCHAR 2B1B
ENCODING 11035
SWIDTH 600 0
DWIDTH 5 0
BBX 5 5 0 1
BITMAP
F8
F8
F8
F8
F8
ENDCHAR
STARTCHAR 2B1C
ENCODING 11036
SWIDTH 600 0
DWIDTH 5 0
BBX 5 4 0 1
BITMAP
F8
88
88
F8
ENDCHAR
STARTCHAR 2B1D
ENCODING 11037
SWIDTH 600 0
DWIDTH 5 0
BBX 1 1 2 3
BITMAP
80
ENDCHAR
STARTCHAR 2B1E
ENCODING 11038
SWIDTH 600 0
DWIDTH 5 0
BBX 1 1 2 3
BITMAP
80
ENDCHAR
STARTCHAR 2B1F
ENCODING 11039
SWIDTH 600 0
DWIDTH 5 0
BBX 5 4 0 1
BITMAP
70
F8
78
70
ENDCHAR
STARTCHAR 2B20
ENCODING 11040
SWIDTH 600 0
DWIDTH 5 0
BBX 5 4 0 1
BITMAP
70
88
88
F0
ENDCHAR
STARTCHAR 2B21
ENCODING 11041
SWIDTH 600 0
DWIDTH 5 0
BBX 4 5 1 1
BITMAP
40
B0
90
90
E0
ENDCHAR
STARTCHAR 2B22
ENCODING 11042
SWIDTH 600 0
DWIDTH 5 0
BBX 4 5 1 1
BITMAP
40
F0
F0
F0
40
ENDCHAR
STARTCHAR 2B23
ENCODING 11043
SWIDTH 600 0
DWIDTH 5 0
BBX 5 4 0 1
BITMAP
70
F8
78
70
ENDCHAR
STARTCHAR 2B24
ENCODING 11044
SWIDTH 600 0
DWIDTH 5 0
BBX 5 5 0 1
BITMAP
70
F8
F8
F8
70
ENDCHAR
STARTCHAR 2B25
ENCODING 11045
SWIDTH 600 0
DWIDTH 5 0
BBX 3 4 1 1
BITMAP
40
E0
E0
40
ENDCHAR
STARTCHAR 2B26
ENCODING 11046
SWIDTH 600 0
DWIDTH 5 0
BBX 4 4 0 1
BITMAP
60
90
50
20
ENDCHAR
STARTCHAR 2B27
ENCODING 11047
SWIDTH 600 0
DWIDTH 5 0
BBX 3 5 1 1
BITMAP
40
40
E0
40
40
ENDCHAR
STARTCHAR 2B28
ENCODING 11048
SWIDTH 600 0
DWIDTH 5 0
BBX 3 5 1 1
BITMAP
40
C0
A0
C0
40
ENDCHAR
STARTCHAR 2B29
ENCODING 11049
SWIDTH 600 0
DWIDTH 5 0
BBX 3 3 1 2
BITMAP
40
E0
40
ENDCHAR
STARTCHAR 2B2A
ENCODING 11050
SWIDTH 600 0
DWIDTH 5 0
BBX 1 3 2 2
BITMAP
80
80
80
ENDCHAR
STARTCHAR 2B2B
ENCODING 11051
SWIDTH 600 0
DWIDTH 5 0
BBX 1 3 2 2
BITMAP
80
80
80
ENDCHAR
STARTCHAR 2B2C
ENCODING 11052
SWIDTH 600 0
DWIDTH 5 0
BBX 5 3 0 2
BITMAP
70
F8
70
ENDCHAR
STARTCHAR 2B2D
ENCODING 11053
SWIDTH 600 0
DWIDTH 5 0
BBX 5 3 0 2
BITMAP
70
88
F0
ENDCHAR
STARTCHAR 2B2E
ENCODING 11054
SWIDTH 600 0
DWIDTH 5 0
BBX 3 4 1 1
BITMAP
E0
E0
E0
E0
ENDCHAR
STARTCHAR 2B2F
ENCODING 11055
SWIDTH 600 0
DWIDTH 5 0
BBX 3 4 1 1
BITMAP
E0
A0
A0
E0
ENDCHAR
STARTCHAR 2B50
ENCODING 11088
SWIDTH 600 0
DWIDTH 5 0
BBX 3 3 1 2
BITMAP
C0
E0
20
ENDCHAR
STARTCHAR 2B51
ENCODING 11089
SWIDTH 600 0
DWIDTH 5 0
BBX 3 2 1 2
BITMAP
E0
C0
ENDCHAR
STARTCHAR 2B52
ENCODING 11090
SWIDTH 600 0
DWIDTH 5 0
BBX 2 2 1 2
BITMAP
40
C0
ENDCHAR
STARTCHAR 2B53
ENCODING 11091
SWIDTH 600 0
DWIDTH 5 0
BBX 5 4 0 2
BITMAP
F0
F8
F0
30
ENDCHAR
STARTCHAR 2B54
ENCODING 11092
SWIDTH 600 0
DWIDTH 5 0
BBX 5 4 0 2
BITMAP
F0
88
90
70
ENDCHAR
STARTCHAR 2B95
ENCODING 11157
SWIDTH 600 0
DWIDTH 5 0
BBX 5 4 0 1
BITMAP
10
F8
F0
20
ENDCHAR
STARTCHAR 2BC0
ENCODING 11200
SWIDTH 600 0
DWIDTH 5 0
BBX 3 3 1 2
BITMAP
E0
E0
E0
ENDCHAR
STARTCHAR 2BC1
ENCODING 11201
SWIDTH 600 0
DWIDTH 5 0
BBX 5 5 0 1
BITMAP
20
70
F8
70
20
ENDCHAR
STARTCHAR 2BC2
ENCODING 11202
SWIDTH 600 0
DWIDTH 5 0
BBX 5 4 0 1
BITMAP
70
78
F8
70
ENDCHAR
STARTCHAR 2BC3
ENCODING 11203
SWIDTH 600 0
DWIDTH 5 0
BBX 5 4 0 1
BITMAP
70
F8
F8
70
ENDCHAR
STARTCHAR 2BC4
ENCODING 11204
SWIDTH 600 0
DWIDTH 5 0
BBX 5 5 0 1
BITMAP
20
70
F8
78
70
ENDCHAR
STARTCHAR 2BC6
ENCODING 11206
SWIDTH 600 0
DWIDTH 5 0
BBX 3 3 1 1
BITMAP
E0
40
40
ENDCHAR
STARTCHAR 2BC8
ENCODING 11208
SWIDTH 600 0
DWIDTH 5 0
BBX 3 3 1 2
BITMAP
80
E0
C0
ENDCHAR
STARTCHAR 2BCA
ENCODING 11210
SWIDTH 600 0
DWIDTH 5 0
BBX 4 2 1 3
BITMAP
E0
F0
ENDCHAR
STARTCHAR 2BCB
ENCODING 11211
SWIDTH 600 0
DWIDTH 5 0
BBX 4 2 1 1
BITMAP
F0
E0
ENDCHAR
STARTCHAR 2BCC
ENCODING 11212
SWIDTH 600 0
DWIDTH 5 0
BBX 4 4 0 1
BITMAP
60
90
50
20
ENDCHAR
STARTCHAR 2BCD
ENCODING 11213
SWIDTH 600 0
DWIDTH 5 0
BBX 3 3 1 2
BITMAP
E0
A0
E0
ENDCHAR
STARTCHAR 2BCE
ENCODING 11214
SWIDTH 600 0
DWIDTH 5 0
BBX 4 4 0 1
BITMAP
60
90
50
20
ENDCHAR
STARTCHAR 2BCF
ENCODING 11215
SWIDTH 600 0
DWIDTH 5 0
BBX 3 3 1 2
BITMAP
E0
A0
E0
ENDCHAR
STARTCHAR 2C7C
ENCODING 11388
SWIDTH 600 0
DWIDTH 5 0
BBX 1 3 2 0
BITMAP
80
80
80
ENDCHAR
STARTCHAR 2C7D
ENCODING 11389
SWIDTH 600 0
DWIDTH 5 0
BBX 3 3 1 4
BITMAP
20
C0
40
ENDCHAR
STARTCHAR 2E18
ENCODING 11800
SWIDTH 600 0
DWIDTH 5 0
BBX 4 6 1 -2
BITMAP
40
00
40
C0
D0
E0
ENDCHAR
STARTCHAR A7F2
ENCODING 42994
SWIDTH 600 0
DWIDTH 5 0
BBX 2 2 2 5
BITMAP
C0
80
ENDCHAR
STARTCHAR A7F3
ENCODING 42995
SWIDTH 600 0
DWIDTH 5 0
BBX 1 2 2 5
BITMAP
80
80
ENDCHAR
STARTCHAR A7F4
ENCODING 42996
SWIDTH 600 0
DWIDTH 5 0
BBX 2 2 2 4
BITMAP
80
C0
ENDCHAR
STARTCHAR E0A0
ENCODING 57504
SWIDTH 600 0
DWIDTH 5 0
BBX 3 9 1 -1
BITMAP
80
80
E0
A0
A0
20
C0
80
80
ENDCHAR
STARTCHAR E0A1
ENCODING 57505
SWIDTH 600 0
DWIDTH 5 0
BBX 3 7 1 0
BITMAP
80
80
E0
00
A0
E0
A0
ENDCHAR
STARTCHAR E0A2
ENCODING 57506
SWIDTH 600 0
DWIDTH 5 0
BBX 3 7 1 0
BITMAP
E0
A0
A0
E0
E0
E0
E0
ENDCHAR
STARTCHAR E0A3
ENCODING 57507
SWIDTH 600 0
DWIDTH 5 0
BBX 3 7 1 0
BITMAP
60
80
A0
40
A0
E0
A0
ENDCHAR
STARTCHAR E0B0
ENCODING 57520
SWIDTH 600 0
DWIDTH 5 0
BBX 4 9 0 -1
BITMAP
80
C0
E0
F0
F0
E0
C0
C0
80
ENDCHAR
STARTCHAR E0B1
ENCODING 57521
SWIDTH 600 0
DWIDTH 5 0
BBX 4 10 0 -2
BITMAP
80
40
40
20
10
10
10
20
40
80
ENDCHAR
STARTCHAR E0B2
ENCODING 57522
SWIDTH 600 0
DWIDTH 5 0
BBX 4 9 1 -1
BITMAP
10
30
70
70
F0
70
30
10
10
ENDCHAR
STARTCHAR E0B3
ENCODING 57523
SWIDTH 600 0
DWIDTH 5 0
BBX 4 10 1 -2
BITMAP
10
20
20
40
80
80
40
40
20
10
ENDCHAR
STARTCHAR E0B4
ENCODING 57524
SWIDTH 600 0
DWIDTH 5 0
BBX 5 10 0 -2
BITMAP
C0
F0
F0
F8
F8
F8
F8
F8
F0
E0
ENDCHAR
STARTCHAR E0B5
ENCODING 57525
SWIDTH 600 0
DWIDTH 5 0
BBX 5 11 0 -3
BITMAP
C0
30
10
08
08
08
08
08
10
20
C0
ENDCHAR
STARTCHAR E0B6
ENCODING 57526
SWIDTH 600 0
DWIDTH 5 0
BBX 5 10 0 -2
BITMAP
18
38
78
F8
F8
F8
F8
78
78
38
ENDCHAR
STARTCHAR E0B7
ENCODING 57527
SWIDTH 600 0
DWIDTH 5 0
BBX 5 11 0 -3
BITMAP
18
20
40
80
80
80
80
80
40
20
18
ENDCHAR
STARTCHAR E0B8
ENCODING 57528
SWIDTH 600 0
DWIDTH 5 0
BBX 5 9 0 -1
BITMAP
80
80
C0
C0
E0
E0
F0
F0
F8
ENDCHAR
STARTCHAR E0B9
ENCODING 57529
SWIDTH 600 0
DWIDTH 5 0
BBX 5 10 0 -2
BITMAP
80
80
40
40
20
20
10
10
08
08
ENDCHAR
STARTCHAR E0BA
ENCODING 57530
SWIDTH 600 0
DWIDTH 5 0
BBX 5 9 0 -1
BITMAP
08
08
18
18
38
38
78
78
F8
ENDCHAR
STARTCHAR E0BB
ENCODING 57531
SWIDTH 600 0
DWIDTH 5 0
BBX 5 10 0 -2
BITMAP
08
08
10
10
20
20
40
40
80
80
ENDCHAR
STARTCHAR E0BC
ENCODING 57532
SWIDTH 600 0
DWIDTH 5 0
BBX 5 10 0 -2
BITMAP
F8
F8
F0
F0
E0
E0
C0
C0
80
80
ENDCHAR
STARTCHAR E0BD
ENCODING 57533
SWIDTH 600 0
DWIDTH 5 0
BBX 5 10 0 -2
BITMAP
08
08
10
10
20
20
40
40
80
80
ENDCHAR
STARTCHAR E0BE
ENCODING 57534
SWIDTH 600 0
DWIDTH 5 0
BBX 5 10 0 -2
BITMAP
F8
78
78
38
38
18
18
08
08
08
ENDCHAR
STARTCHAR E0BF
ENCODING 57535
SWIDTH 600 0
DWIDTH 5 0
BBX 5 10 0 -2
BITMAP
80
80
40
40
20
20
10
10
08
08
ENDCHAR
STARTCHAR E0C0
ENCODING 57536
SWIDTH 600 0
DWIDTH 5 0
BBX 3 10 0 -2
BITMAP
C0
C0
E0
E0
C0
C0
C0
E0
80
E0
ENDCHAR
STARTCHAR E0C1
ENCODING 57537
SWIDTH 600 0
DWIDTH 5 0
BBX 4 12 0 -3
BITMAP
80
40
40
A0
50
60
C0
80
80
40
30
60
ENDCHAR
STARTCHAR E0C2
ENCODING 57538
SWIDTH 600 0
DWIDTH 5 0
BBX 4 12 1 -3
BITMAP
10
70
30
10
30
30
30
F0
70
30
70
10
ENDCHAR
STARTCHAR E0C3
ENCODING 57539
SWIDTH 600 0
DWIDTH 5 0
BBX 4 12 1 -3
BITMAP
10
E0
20
10
10
30
20
C0
70
20
40
30
ENDCHAR
STARTCHAR E0C4
ENCODING 57540
SWIDTH 600 0
DWIDTH 5 0
BBX 5 11 0 -3
BITMAP
F0
E8
F0
F0
D8
E0
90
F8
00
C0
60
ENDCHAR
STARTCHAR E0C5
ENCODING 57541
SWIDTH 600 0
DWIDTH 5 0
BBX 5 11 0 -3
BITMAP
68
18
B8
C0
38
D8
38
F8
F8
58
60
ENDCHAR
STARTCHAR E0C6
ENCODING 57542
SWIDTH 600 0
DWIDTH 5 0
BBX 5 11 0 -3
BITMAP
E0
00
F8
60
C0
20
C0
18
E0
00
C0
ENDCHAR
STARTCHAR E0C7
ENCODING 57543
SWIDTH 600 0
DWIDTH 5 0
BBX 5 11 0 -3
BITMAP
08
00
68
C0
08
20
68
00
E8
60
08
ENDCHAR
STARTCHAR E0C8
ENCODING 57544
SWIDTH 600 0
DWIDTH 5 0
BBX 4 10 0 -3
BITMAP
80
E0
E0
80
80
C0
F0
80
C0
C0
ENDCHAR
STARTCHAR E0CA
ENCODING 57546
SWIDTH 600 0
DWIDTH 5 0
BBX 4 10 1 -2
BITMAP
10
30
10
F0
10
30
10
70
30
50
ENDCHAR
STARTCHAR E0CC
ENCODING 57548
SWIDTH 600 0
DWIDTH 5 0
BBX 5 10 0 -2
BITMAP
80
C0
98
38
90
C0
98
38
D0
C0
ENDCHAR
STARTCHAR E0CD
ENCODING 57549
SWIDTH 600 0
DWIDTH 5 0
BBX 7 10 -1 -2
BITMAP
E0
A0
BC
52
F4
A8
BC
52
F4
E8
ENDCHAR
STARTCHAR E0CE
ENCODING 57550
SWIDTH 600 0
DWIDTH 5 0
BBX 4 11 0 -3
BITMAP
C0
F0
F0
F0
C0
C0
F0
F0
F0
C0
C0
ENDCHAR
STARTCHAR E0CF
ENCODING 57551
SWIDTH 600 0
DWIDTH 5 0
BBX 5 5 0 1
BITMAP
20
70
D0
F8
50
ENDCHAR
STARTCHAR E0D0
ENCODING 57552
SWIDTH 600 0
DWIDTH 5 0
BBX 5 5 0 1
BITMAP
F8
E8
D8
00
F8
ENDCHAR
STARTCHAR E0D1
ENCODING 57553
SWIDTH 600 0
DWIDTH 5 0
BBX 4 11 0 -3
BITMAP
C0
F0
F0
F0
C0
C0
F0
F0
F0
C0
C0
ENDCHAR
STARTCHAR E0D2
ENCODING 57554
SWIDTH 600 0
DWIDTH 5 0
BBX 4 10 1 -2
BITMAP
F0
E0
E0
C0
80
00
C0
C0
E0
F0
ENDCHAR
STARTCHAR E0D4
ENCODING 57556
SWIDTH 600 0
DWIDTH 5 0
BBX 4 10 0 -2
BITMAP
F0
70
30
30
10
00
30
30
70
70
ENDCHAR
STARTCHAR E123
ENCODING 57635
SWIDTH 600 0
DWIDTH 5 0
BBX 30 7 0 0
BITMAP
89007388
53009498
51001488
51006588
51001488
61009488
23CC739C
ENDCHAR
STARTCHAR E124
ENCODING 57636
SWIDTH 600 0
DWIDTH 5 0
BBX 2 2 2 5
BITMAP
C0
40
ENDCHAR
STARTCHAR E125
ENCODING 57637
SWIDTH 600 0
DWIDTH 5 0
BBX 2 2 2 6
BITMAP
80
40
ENDCHAR
STARTCHAR E126
ENCODING 57638
SWIDTH 600 0
DWIDTH 5 0
BBX 1 2 2 5
BITMAP
80
80
ENDCHAR
STARTCHAR E127
ENCODING 57639
SWIDTH 600 0
DWIDTH 5 0
BBX 2 3 2 -1
BITMAP
80
C0
C0
ENDCHAR
STARTCHAR E128
ENCODING 57640
SWIDTH 600 0
DWIDTH 5 0
BBX 3 2 1 -1
BITMAP
E0
C0
ENDCHAR
STARTCHAR E129
ENCODING 57641
SWIDTH 600 0
DWIDTH 5 0
BBX 3 3 1 -1
BITMAP
20
E0
E0
ENDCHAR
STARTCHAR E130
ENCODING 57648
SWIDTH 600 0
DWIDTH 5 0
BBX 1 3 2 -1
BITMAP
80
80
80
ENDCHAR
STARTCHAR E131
ENCODING 57649
SWIDTH 600 0
DWIDTH 5 0
BBX 3 3 1 -2
BITMAP
E0
A0
E0
ENDCHAR
STARTCHAR E132
ENCODING 57650
SWIDTH 600 0
DWIDTH 5 0
BBX 3 3 1 -2
BITMAP
E0
A0
60
ENDCHAR
STARTCHAR E133
ENCODING 57651
SWIDTH 600 0
DWIDTH 5 0
BBX 3 3 1 4
BITMAP
E0
A0
60
ENDCHAR
STARTCHAR EE00
ENCODING 60928
SWIDTH 600 0
DWIDTH 5 0
BBX 5 6 0 0
BITMAP
38
40
80
80
80
78
ENDCHAR
STARTCHAR EE01
ENCODING 60929
SWIDTH 600 0
DWIDTH 5 0
BBX 5 6 0 0
BITMAP
F8
00
00
00
00
F8
ENDCHAR
STARTCHAR EE02
ENCODING 60930
SWIDTH 600 0
DWIDTH 5 0
BBX 5 6 0 0
BITMAP
E0
10
08
08
10
F0
ENDCHAR
STARTCHAR EE03
ENCODING 60931
SWIDTH 600 0
DWIDTH 5 0
BBX 5 7 0 0
BITMAP
38
40
B8
B8
B8
58
38
ENDCHAR
STARTCHAR EE04
ENCODING 60932
SWIDTH 600 0
DWIDTH 5 0
BBX 5 7 0 0
BITMAP
F8
00
F8
F8
F8
F8
F8
ENDCHAR
STARTCHAR EE05
ENCODING 60933
SWIDTH 600 0
DWIDTH 5 0
BBX 5 6 0 0
BITMAP
E0
10
E8
E8
E8
F0
ENDCHAR
STARTCHAR FE61
ENCODING 65121
SWIDTH 600 0
DWIDTH 5 0
BBX 1 2 2 2
BITMAP
80
80
ENDCHAR
STARTCHAR FE62
ENCODING 65122
SWIDTH 600 0
DWIDTH 5 0
BBX 3 3 1 1
BITMAP
40
E0
40
ENDCHAR
STARTCHAR FE64
ENCODING 65124
SWIDTH 600 0
DWIDTH 5 0
BBX 3 4 1 1
BITMAP
20
40
C0
20
ENDCHAR
STARTCHAR FE65
ENCODING 65125
SWIDTH 600 0
DWIDTH 5 0
BBX 3 3 1 2
BITMAP
40
20
C0
ENDCHAR
STARTCHAR FE66
ENCODING 65126
SWIDTH 600 0
DWIDTH 5 0
BBX 3 3 1 1
BITMAP
E0
00
E0
ENDCHAR
STARTCHAR FF5B
ENCODING 65371
SWIDTH 600 0
DWIDTH 5 0
BBX 4 9 1 -2
BITMAP
30
40
40
40
80
40
40
40
70
ENDCHAR
STARTCHAR FF5D
ENCODING 65373
SWIDTH 600 0
DWIDTH 5 0
BBX 4 9 1 -2
BITMAP
80
40
40
40
30
40
40
40
C0
ENDCHAR
ENDFONT
